<?xml version="1.0" encoding="utf-8"?>
<!-- Generator: Adobe Illustrator 22.0.1, SVG Export Plug-In . SVG Version: 6.00 Build 0)  -->
<svg version="1.1" id="UiBmerke_grayscale" xmlns="http://www.w3.org/2000/svg" xmlns:xlink="http://www.w3.org/1999/xlink" x="0px"
	 y="0px" viewBox="0 0 99.2 99.2" style="enable-background:new 0 0 99.2 99.2;" xml:space="preserve">
<style type="text/css">
	.st0{fill:none;}
</style>
<g>
	<g>
		<g>
			<path d="M20.5,42.1c-0.6-0.1-1.8-0.3-2.2-0.2c-0.1,0.1-0.2,0.2-0.3,0.5L18,42.6c-0.1,0.1-0.2,0-0.2-0.1c0.1-0.4,0.2-0.8,0.2-1.2
				c0.1-0.4,0.1-0.7,0.2-1.1c0.1-0.1,0.2,0,0.3,0l0,0.3c0,0.3,0,0.5,0.2,0.6c0.3,0.2,1.5,0.4,2.1,0.5l1.2,0.2
				c0.9,0.2,1.8,0.5,2.3,1.2c0.4,0.5,0.5,1.3,0.4,2.1c-0.1,0.7-0.4,1.4-0.9,1.8c-0.5,0.5-1.3,0.6-2.6,0.4l-2.4-0.4
				c-1.1-0.2-1.3-0.2-1.4,0.4l-0.1,0.3c-0.1,0.1-0.2,0-0.2-0.1c0.1-0.5,0.2-0.9,0.3-1.3c0.1-0.4,0.1-0.8,0.2-1.3c0-0.1,0.2,0,0.3,0
				l0,0.3c-0.1,0.6,0.1,0.7,1.2,0.8l2.2,0.4c1.7,0.3,2.8,0,3.1-1.6c0.3-1.5-0.8-2.3-2.4-2.5L20.5,42.1z"/>
			<path d="M27.1,33.7c0.3,0.2,1.4,0.8,1.6,0.9c0,0,0.1,0.1,0,0.2c-0.2,0-0.7,0.1-2,0.4L23,36c-0.4,0.1-1.5,0.3-1.8,0.4l0,0
				c0.1,0.1,0.3,0.2,0.6,0.4l2,1.1c0.4,0.2,1.6,0.9,2,0.9c0.1,0,0.3-0.2,0.4-0.4l0.2-0.3c0.1,0,0.2,0.1,0.2,0.1
				c-0.2,0.4-0.4,0.7-0.6,1.1c-0.2,0.4-0.3,0.6-0.5,1c-0.1,0-0.2,0-0.2-0.1l0.1-0.3c0.1-0.2,0.1-0.4,0-0.5c-0.3-0.3-1.4-0.9-1.8-1.2
				l-2.6-1.5c-0.3-0.1-0.5-0.2-0.8-0.2c-0.2,0.1-0.4,0.2-0.5,0.4l-0.1,0.1c-0.1,0-0.2-0.1-0.2-0.1c0.2-0.4,0.5-0.9,0.6-1
				c0.1-0.1,0.2-0.3,0.2-0.4c0.6,0.1,2.4-0.3,2.9-0.4l1.5-0.3c1.1-0.2,1.8-0.4,2.5-0.6l0,0c0-0.1-0.2-0.1-0.4-0.3l-2-1.1
				c-0.4-0.2-1.6-0.9-2-0.9c-0.1,0-0.2,0.1-0.5,0.5L22,32.6c-0.1,0-0.2-0.1-0.2-0.1c0.3-0.4,0.4-0.7,0.6-1.1c0.2-0.4,0.3-0.6,0.5-1
				c0.1,0,0.2,0,0.2,0.1l-0.1,0.1C23,31,23,31.2,23.1,31.3c0.2,0.3,1.4,1,1.8,1.2L27.1,33.7z"/>
			<path d="M27,28.4c-0.8-0.8-0.9-0.9-1.4-0.5l-0.2,0.2c-0.1,0-0.2-0.1-0.2-0.2c0.4-0.4,0.6-0.6,0.9-0.9c0.3-0.3,0.5-0.6,0.9-1
				c0.1,0,0.2,0.1,0.2,0.2l-0.2,0.2c-0.4,0.5-0.3,0.6,0.5,1.4l2.7,2.6c0.8,0.8,0.9,0.9,1.4,0.5l0.2-0.2c0.1,0,0.2,0.1,0.2,0.2
				c-0.4,0.4-0.6,0.6-0.9,0.9c-0.3,0.3-0.5,0.6-0.9,1c-0.1,0-0.2-0.1-0.2-0.2l0.2-0.2c0.4-0.5,0.3-0.6-0.5-1.4L27,28.4z"/>
			<path d="M30.7,24.3c-0.5-0.4-0.8-0.5-1.2-0.3l-0.2,0.1c-0.1,0-0.2-0.1-0.1-0.2c0.3-0.1,0.6-0.3,0.9-0.6c0.4-0.2,0.7-0.5,1.1-0.7
				c0.1,0,0.2,0.1,0.2,0.2l-0.1,0.1C31,23.2,31,23.3,31,23.4c0.1,0.1,0.5,0.5,1.2,1c1.1,0.8,2.1,1.5,3.2,2.3
				c-0.1-0.8-0.3-1.9-0.4-2.5c-0.1-0.8-0.3-2-0.4-2.5c0-0.2-0.1-0.3-0.1-0.4c0-0.1-0.2-0.1-0.5,0.1l-0.2,0.1c-0.1,0-0.2-0.2-0.1-0.2
				c0.3-0.1,0.6-0.3,0.9-0.6c0.3-0.2,0.6-0.4,0.8-0.6c0.1,0,0.2,0.1,0.2,0.2l-0.3,0.2c-0.2,0.2-0.3,0.3-0.3,0.6
				c0,0.6,0.1,1.5,0.3,2.7l0.2,1.4c0.2,1,0.4,2.3,0.5,2.9c0,0,0,0.1-0.1,0.1c0,0-0.1,0-0.1,0.1c-0.3-0.3-0.8-0.6-1.2-0.9L30.7,24.3z
				"/>
			<path d="M39.5,20.2c-0.3-1-0.4-1.2-1-1.1l-0.2,0c-0.1,0-0.1-0.2-0.1-0.3c0.4-0.1,0.8-0.2,1.2-0.3l1.9-0.5
				c0.6-0.2,1.2-0.4,1.4-0.4c0.1,0.2,0.4,0.9,0.5,1.3c0,0.1-0.2,0.1-0.2,0.1c-0.3-0.4-0.5-0.8-1-0.7c-0.2,0-0.6,0.1-1,0.2l-0.7,0.2
				c-0.3,0.1-0.3,0.1-0.2,0.5l0.6,2c0.1,0.3,0.1,0.3,0.4,0.2l0.6-0.2c0.4-0.1,0.7-0.2,0.8-0.3c0.1-0.1,0.2-0.2,0.1-0.4l0-0.4
				c0-0.1,0.2-0.1,0.3-0.1c0.1,0.2,0.1,0.6,0.2,1c0.1,0.4,0.3,0.7,0.3,1c0,0.1-0.2,0.1-0.3,0.1L43,21.7c-0.1-0.2-0.2-0.3-0.4-0.3
				c-0.2,0-0.4,0.1-0.8,0.2l-0.6,0.2c-0.3,0.1-0.3,0.1-0.3,0.4l0.4,1.4c0.2,0.5,0.3,0.9,0.5,1c0.2,0.1,0.4,0.1,1.3-0.1
				c0.8-0.2,1.1-0.3,1.2-0.5c0.2-0.2,0.3-0.6,0.4-1.2c0.1-0.1,0.2-0.1,0.3,0c0,0.4,0,1.2-0.1,1.5c-0.9,0.2-1.8,0.5-2.7,0.7l-0.9,0.3
				c-0.4,0.1-0.8,0.2-1.4,0.4c-0.1,0-0.1-0.2-0.1-0.2l0.3-0.1c0.6-0.2,0.6-0.4,0.3-1.4L39.5,20.2z"/>
			<path d="M47.8,18.6c0-1,0-1.2-0.5-1.2l-0.3,0c-0.1-0.1-0.1-0.2,0-0.3c0.6,0,1.3-0.1,2.3-0.1c0.7,0,1.3,0.1,1.7,0.3
				c0.5,0.3,0.9,0.7,0.9,1.5c0,1-0.8,1.5-1.3,1.7c-0.1,0.1,0,0.2,0.1,0.3c0.8,1.4,1.4,2.2,2.1,2.8c0.2,0.2,0.4,0.3,0.7,0.3
				c0.1,0,0.1,0.1,0,0.1c-0.1,0-0.3,0.1-0.5,0c-0.9,0-1.4-0.3-2.2-1.3c-0.3-0.4-0.7-1.1-1-1.6c-0.2-0.2-0.3-0.3-0.7-0.3
				c-0.5,0-0.5,0-0.5,0.2l0,1.3c0,1.1,0,1.2,0.6,1.3l0.2,0c0.1,0.1,0,0.2,0,0.3c-0.5,0-0.8,0-1.2,0c-0.4,0-0.8,0-1.3,0
				c-0.1,0-0.1-0.2,0-0.3l0.3,0c0.6-0.1,0.6-0.2,0.6-1.3L47.8,18.6z M48.6,20.1c0,0.2,0,0.3,0,0.3c0,0,0.2,0.1,0.7,0.1
				c0.4,0,0.8,0,1.1-0.3C50.7,20,51,19.7,51,19c0-0.8-0.5-1.6-1.7-1.6c-0.7,0-0.7,0-0.7,0.3L48.6,20.1z"/>
			<path d="M57.1,25.2c-0.8-0.3-1.3-0.7-1.4-0.9c-0.1-0.3,0-1,0.2-1.5c0.1-0.1,0.2,0,0.3,0c0,0.6,0.1,1.7,1.2,2
				c0.8,0.3,1.4-0.2,1.6-0.8c0.1-0.4,0.2-1-0.4-1.7l-0.8-0.9c-0.4-0.5-0.8-1.2-0.5-2.1c0.3-1,1.3-1.5,2.6-1.1
				c0.3,0.1,0.7,0.3,0.9,0.4c0.1,0.1,0.2,0.1,0.3,0.2c0,0.3-0.1,0.9-0.2,1.3c-0.1,0-0.2,0-0.3,0c0-0.5,0-1.3-1-1.6
				c-1-0.3-1.4,0.3-1.5,0.7c-0.2,0.6,0.2,1.2,0.5,1.5l0.6,0.8c0.5,0.6,0.9,1.4,0.6,2.3C59.5,25.2,58.4,25.7,57.1,25.2z"/>
			<path d="M65.4,23c0.6-0.9,0.7-1.1,0.2-1.5l-0.2-0.2c0-0.1,0.1-0.2,0.2-0.2c0.4,0.3,0.7,0.5,1.1,0.7c0.4,0.2,0.7,0.4,1.1,0.7
				c0,0.1,0,0.2-0.1,0.2l-0.2-0.1c-0.6-0.3-0.7-0.1-1.2,0.8l-2,3.2c-0.6,0.9-0.6,1.1-0.1,1.5l0.2,0.2c0,0.1-0.1,0.2-0.2,0.2
				c-0.4-0.3-0.7-0.5-1.1-0.7c-0.4-0.2-0.7-0.4-1.1-0.7c0-0.1,0-0.2,0.1-0.2l0.2,0.1c0.6,0.3,0.7,0.1,1.2-0.8L65.4,23z"/>
			<path d="M69.9,31.4c-0.8,0.7-0.9,0.9-0.5,1.4l0.2,0.3c0,0.1-0.1,0.2-0.2,0.2c-0.4-0.5-0.6-0.7-0.9-1c-0.3-0.3-0.5-0.6-1-1
				c0-0.1,0.1-0.2,0.2-0.2l0.3,0.3c0.4,0.4,0.6,0.3,1.4-0.4l3.4-3.2c0.2-0.2,0.2-0.2,0-0.5l-0.4-0.4c-0.3-0.3-0.7-0.7-1.1-0.8
				c-0.3,0-0.6,0.1-0.9,0.1c-0.1,0-0.2-0.2-0.1-0.3c0.5-0.2,1.1-0.5,1.4-0.8c0,0,0.1,0.1,0.1,0.1c-0.2,0.3,0,0.5,0.4,0.9l2.9,3.1
				c0.4,0.4,0.5,0.5,0.8,0.4c0.1,0,0.1,0.1,0.1,0.2c-0.4,0.2-1.1,0.7-1.3,1c-0.1,0-0.2-0.1-0.2-0.2c0.2-0.2,0.4-0.5,0.4-0.7
				c0-0.3-0.2-0.6-0.6-1.1l-0.5-0.5c-0.2-0.2-0.2-0.2-0.5,0L69.9,31.4z"/>
			<path d="M75.4,38.5c0.2-0.2,0.2-0.2,0.1-0.5l-0.7-1.4c-0.1-0.2-0.2-0.3-0.4-0.3l-1.2,0.1c-0.5,0.1-0.8,0.1-0.9,0.2
				c-0.1,0.1-0.1,0.1-0.1,0.4l0.1,0.3c0,0.1-0.2,0.2-0.2,0.1c-0.1-0.3-0.2-0.5-0.4-1c-0.1-0.3-0.3-0.6-0.5-0.9
				c0-0.1,0.2-0.2,0.2-0.1l0.2,0.3c0.1,0.2,0.3,0.4,0.7,0.3c0.5,0,1.3-0.1,2.5-0.2l3-0.2c0.4,0,0.6-0.1,0.7-0.2
				c0.2,0.2,0.4,0.3,0.6,0.3c0,0.1,0,0.1,0,0.2c-0.4,0.3-0.7,0.7-1.1,1L75,40.1c-0.7,0.7-0.8,0.9-0.6,1.3l0.1,0.3
				c0,0.1-0.2,0.1-0.2,0.1c-0.2-0.4-0.3-0.7-0.5-1.2c-0.2-0.5-0.4-0.8-0.5-1.1c0-0.1,0.1-0.2,0.2-0.1l0.2,0.3
				c0.1,0.2,0.2,0.3,0.3,0.3c0.1-0.1,0.3-0.2,0.4-0.4L75.4,38.5z M75.4,36.2c-0.3,0-0.3,0-0.1,0.3l0.6,1.2c0.1,0.3,0.2,0.3,0.4,0.1
				l1.3-1.2c0.2-0.2,0.4-0.4,0.5-0.5l0,0c-0.1,0-0.3,0-0.7,0L75.4,36.2z"/>
			<path d="M74.8,45.6c-0.1-0.9,0.1-1.5,0.1-1.7c0.2-0.2,0.9-0.4,1.4-0.5c0.1,0,0.1,0.2,0.1,0.2c-0.5,0.2-1.5,0.8-1.3,2
				c0.1,0.9,0.8,1.2,1.4,1.1c0.5-0.1,1-0.2,1.3-1.1l0.5-1.1c0.3-0.6,0.8-1.3,1.6-1.4c1-0.1,1.9,0.5,2.1,1.9c0,0.3,0,0.7,0,1
				c0,0.1,0,0.3,0,0.4c-0.2,0.1-0.8,0.3-1.2,0.4c-0.1,0-0.1-0.2-0.1-0.3c0.5-0.2,1.1-0.6,1-1.6c-0.2-1-0.9-1.1-1.3-1.1
				c-0.6,0.1-1,0.7-1.1,1.1L78.8,46c-0.3,0.7-0.8,1.4-1.8,1.6C75.9,47.7,75,47,74.8,45.6z"/>
		</g>
		<g>
			<path d="M23.6,57.3c0.7-0.3,0.9-0.4,0.8-0.8l-0.1-0.3c0-0.1,0.2-0.1,0.2-0.1c0.2,0.5,0.5,1.2,0.9,2.1c0.2,0.6,0.4,1.2,0.3,1.8
				c-0.1,0.5-0.3,1-1,1.2c-0.7,0.3-1.2,0-1.7-0.5c-0.1,0-0.1,0.1-0.1,0.2c0.1,0.6-0.1,1.5-1.2,1.9c-1.1,0.4-2.2-0.1-2.9-1.9
				c-0.1-0.3-0.3-0.8-0.4-1.2c-0.2-0.4-0.3-0.8-0.4-1.1c0-0.1,0.2-0.1,0.2-0.1l0.1,0.2c0.3,0.5,0.4,0.5,1.4,0.1L23.6,57.3z
				 M20.3,59.4c-0.4,0.1-0.8,0.3-1,0.6c-0.2,0.3-0.1,0.6,0,0.9c0.3,0.9,1,1.4,1.9,1c0.8-0.3,1.5-1,1-2.6c-0.2-0.5-0.3-0.5-0.5-0.5
				L20.3,59.4z M22.6,58.5c-0.3,0.1-0.3,0.1-0.1,0.6c0.4,1,0.9,1.4,1.8,1.1c1-0.4,1.1-1.2,0.8-2c-0.1-0.2-0.2-0.4-0.2-0.4
				c-0.1-0.1-0.1-0.1-0.3,0L22.6,58.5z"/>
			<path d="M26.8,64.6c0.9-0.7,1-0.8,0.7-1.3l-0.1-0.1c0-0.1,0.2-0.2,0.2-0.1c0.3,0.4,0.5,0.7,0.7,1l1.2,1.6c0.4,0.5,0.8,1,0.9,1.1
				c-0.1,0.2-0.7,0.7-1,1c-0.1,0-0.2-0.1-0.2-0.2c0.3-0.4,0.5-0.7,0.3-1.2c-0.1-0.2-0.3-0.5-0.6-0.9l-0.5-0.6
				c-0.2-0.3-0.2-0.2-0.5,0L26.3,66c-0.2,0.2-0.2,0.2,0,0.5l0.4,0.5c0.3,0.4,0.5,0.6,0.6,0.7c0.1,0.1,0.2,0.1,0.4,0l0.4-0.2
				c0.1,0,0.2,0.1,0.2,0.2c-0.2,0.2-0.6,0.4-0.9,0.6c-0.3,0.2-0.6,0.5-0.8,0.6c-0.1,0-0.2-0.1-0.2-0.2l0.3-0.3
				c0.1-0.1,0.2-0.3,0.1-0.5c-0.1-0.1-0.2-0.4-0.4-0.7L26,66.7c-0.2-0.3-0.2-0.3-0.4-0.1l-1.2,0.9c-0.4,0.3-0.7,0.6-0.8,0.8
				c0,0.2,0,0.4,0.6,1.2c0.5,0.6,0.7,0.9,0.9,1c0.2,0.1,0.7,0.1,1.3,0c0.1,0,0.1,0.2,0.1,0.3c-0.3,0.2-1.1,0.4-1.5,0.5
				c-0.5-0.8-1.1-1.5-1.7-2.3l-0.6-0.8c-0.3-0.4-0.5-0.6-0.9-1.1c0-0.1,0.1-0.2,0.2-0.2l0.2,0.3c0.4,0.4,0.6,0.4,1.4-0.3L26.8,64.6z
				"/>
			<path d="M31.9,70.4c0.6-0.8,0.7-1,0.4-1.3L32,68.9c0-0.1,0.1-0.2,0.2-0.2c0.5,0.3,1.1,0.7,1.9,1.3c0.5,0.4,1,0.8,1.2,1.3
				c0.3,0.5,0.3,1.1-0.2,1.7c-0.6,0.8-1.5,0.8-2.1,0.6c-0.1,0-0.1,0.1-0.1,0.2c-0.1,1.6-0.2,2.6,0.1,3.5c0,0.2,0.2,0.5,0.4,0.7
				c0,0,0,0.1-0.1,0.1c-0.1,0-0.2-0.1-0.4-0.2c-0.7-0.5-1-1.1-1-2.3c0-0.5,0.1-1.3,0.1-1.9c0-0.3-0.1-0.5-0.4-0.7
				c-0.4-0.3-0.4-0.3-0.5-0.1l-0.8,1.1c-0.7,0.9-0.7,1-0.3,1.4l0.2,0.2c0,0.1-0.1,0.2-0.2,0.2c-0.4-0.3-0.7-0.5-1-0.8
				c-0.4-0.3-0.7-0.5-1.1-0.7c0-0.1,0-0.2,0.1-0.2l0.2,0.1c0.5,0.3,0.6,0.2,1.3-0.7L31.9,70.4z M31.7,72.1c-0.1,0.2-0.2,0.2-0.2,0.3
				c0,0,0.1,0.2,0.6,0.5c0.3,0.2,0.7,0.4,1,0.4c0.4,0,0.8-0.2,1.2-0.7c0.5-0.7,0.5-1.6-0.4-2.3c-0.5-0.4-0.6-0.4-0.7-0.1L31.7,72.1z
				"/>
			<path d="M42.5,80.4c-0.1,0.4-0.1,0.7,0,0.8c0,0,0,0.1,0,0.1c-0.1,0-0.3-0.1-0.5-0.1c-0.6,0-1.3-0.1-1.9-0.3
				c-1.2-0.4-2.2-1.1-2.7-2.1C37,78,37,77.2,37.2,76.3c0.3-0.8,0.8-1.6,1.7-2.1c0.9-0.5,2-0.6,3.5-0.1c0.6,0.2,1.1,0.5,1.2,0.6
				c0.2,0.1,0.5,0.3,0.6,0.3c-0.1,0.3-0.2,0.9-0.3,1.5c-0.1,0.1-0.2,0-0.3-0.1c0.1-1.2-0.6-1.8-1.6-2.1c-1.9-0.6-3.2,0.5-3.7,2
				c-0.6,1.9-0.1,3.7,1.9,4.4c0.6,0.2,1,0.2,1.2,0.1c0.1-0.1,0.2-0.2,0.3-0.5l0.1-0.4c0.3-0.8,0.3-0.9-0.3-1.2l-0.4-0.2
				c-0.1-0.1,0-0.2,0.1-0.2c0.3,0.1,0.8,0.3,1.4,0.5c0.4,0.1,0.7,0.2,1.1,0.3c0.1,0.1,0,0.2-0.1,0.3l-0.2,0
				c-0.4-0.1-0.5,0.2-0.7,0.7L42.5,80.4z"/>
			<path d="M47.8,76.8c0-1.1,0-1.2-0.6-1.3l-0.2,0c-0.1,0,0-0.2,0-0.3c0.5,0,0.8,0,1.2,0l2,0c0.7,0,1.3,0,1.4,0
				c0.1,0.2,0.1,0.9,0.2,1.4c0,0.1-0.2,0.1-0.3,0c-0.2-0.5-0.2-0.9-0.8-1c-0.2-0.1-0.6-0.1-1-0.1l-0.8,0c-0.3,0-0.3,0-0.3,0.4l0,2.1
				c0,0.3,0,0.3,0.3,0.3l0.6,0c0.4,0,0.8,0,0.9-0.1c0.1,0,0.2-0.1,0.3-0.4l0.1-0.4c0.1-0.1,0.2-0.1,0.3,0c0,0.3,0,0.7,0,1.1
				c0,0.4,0,0.8,0,1c0,0.1-0.2,0.1-0.3,0l-0.1-0.4c0-0.2-0.1-0.3-0.3-0.4c-0.1,0-0.4-0.1-0.8-0.1l-0.6,0c-0.3,0-0.3,0-0.3,0.3l0,1.5
				c0,0.6,0,0.9,0.2,1.1c0.1,0.1,0.3,0.2,1.3,0.2c0.8,0,1.1,0,1.3-0.2c0.2-0.1,0.5-0.5,0.7-1c0.1-0.1,0.2,0,0.3,0.1
				c-0.1,0.4-0.3,1.2-0.5,1.5c-0.9,0-1.9,0-2.8,0l-0.9,0c-0.5,0-0.8,0-1.4,0c-0.1,0-0.1-0.2,0-0.3l0.3,0c0.6-0.1,0.7-0.2,0.7-1.3
				L47.8,76.8z"/>
			<path d="M62.2,75.1c-0.2-0.5-0.6-1.7-0.6-2.1c0-0.1,0.2-0.2,0.5-0.4l0.1-0.1c0-0.1,0-0.2-0.1-0.2c-0.3,0.1-0.6,0.2-1,0.4
				c-0.4,0.1-0.7,0.3-1.2,0.4c-0.1,0.1,0,0.2,0.1,0.3l0.2,0c0.4-0.1,0.6-0.1,0.7,0c0.3,0.2,0.8,1.5,1,2l0.8,2.1
				c0.1,0.2,0.1,0.4,0.1,0.4l0,0c-0.6-0.3-1.3-0.7-2.3-1.2L59,75.9c-0.5-0.2-2.1-1.1-2.5-1.5c-0.1,0.1-0.3,0.1-0.4,0.2
				c-0.2,0.1-0.7,0.3-1.1,0.4c-0.1,0.1,0,0.2,0.1,0.3l0.2,0c0.2-0.1,0.5-0.1,0.7,0c0.3,0.1,0.4,0.4,0.5,0.6l1.1,2.8
				c0.2,0.5,0.6,1.7,0.6,2.1c0,0.1-0.1,0.2-0.4,0.4l-0.3,0.1c0,0.1,0,0.2,0.1,0.2c0.3-0.1,0.6-0.3,1-0.4c0.4-0.1,0.7-0.3,1.2-0.4
				c0.1-0.1,0-0.2-0.1-0.3l-0.3,0.1c-0.3,0.1-0.5,0.1-0.6,0c-0.3-0.2-0.8-1.5-0.9-2l-0.8-2.1c-0.1-0.3-0.2-0.5-0.2-0.7l0,0
				c0.3,0.1,1.3,0.7,1.6,0.9l3.2,1.7c1.2,0.7,1.6,0.9,1.8,1c0.1,0,0.1-0.1,0.1-0.2c-0.1-0.2-0.6-1.4-0.7-1.7L62.2,75.1z"/>
			<path d="M70.4,74.9c-0.7,0.6-1.3,0.7-1.5,0.8c-0.2-0.1-0.8-0.6-1.2-0.9c0-0.1,0.1-0.2,0.2-0.2c0.5,0.3,1.5,0.8,2.4,0
				c0.7-0.6,0.6-1.3,0.2-1.8c-0.3-0.4-0.7-0.7-1.6-0.6l-1.2,0.1c-0.6,0.1-1.5,0-2-0.7c-0.6-0.8-0.6-1.9,0.5-2.8
				c0.2-0.2,0.6-0.4,0.8-0.5c0.1-0.1,0.3-0.1,0.3-0.2c0.2,0.1,0.7,0.5,1,0.9c0,0.1-0.1,0.2-0.2,0.2c-0.4-0.3-1.1-0.6-1.9,0
				c-0.8,0.7-0.5,1.3-0.2,1.7c0.4,0.5,1.1,0.5,1.5,0.4l1-0.1c0.8-0.1,1.7-0.1,2.3,0.7C71.6,72.8,71.5,74,70.4,74.9z"/>
			<path d="M71.6,65.7c-0.9-0.6-1.1-0.7-1.5-0.3l-0.2,0.2c-0.1,0-0.2-0.1-0.2-0.2c0.3-0.4,0.5-0.7,0.8-1.1c0.2-0.3,0.4-0.6,0.7-1.1
				c0.1,0,0.2,0.1,0.2,0.1l-0.1,0.2c-0.3,0.5-0.2,0.7,0.7,1.3l3,2.2c0.9,0.6,1,0.7,1.5,0.2l0.2-0.2c0.1,0,0.2,0.1,0.2,0.2
				c-0.3,0.4-0.5,0.7-0.8,1c-0.3,0.4-0.5,0.7-0.7,1.1c-0.1,0-0.2,0-0.2-0.1l0.1-0.2c0.3-0.5,0.2-0.6-0.7-1.3L71.6,65.7z"/>
			<path d="M80.2,61.3c-0.3,0.8-0.8,1.2-0.9,1.4c-0.3,0-1-0.1-1.5-0.3c-0.1-0.1,0-0.2,0.1-0.2c0.6,0,1.7,0,2.1-1.1
				c0.3-0.8-0.1-1.4-0.7-1.7c-0.4-0.2-0.9-0.3-1.7,0.3l-1,0.7c-0.5,0.4-1.3,0.7-2.1,0.4c-0.9-0.4-1.4-1.4-0.9-2.6
				c0.1-0.3,0.3-0.6,0.5-0.9c0.1-0.1,0.2-0.2,0.2-0.3c0.3,0,0.9,0.1,1.3,0.3c0,0.1,0,0.2-0.1,0.3c-0.5,0-1.3,0-1.6,0.9
				c-0.4,1,0.2,1.4,0.7,1.6c0.6,0.2,1.2-0.1,1.5-0.4l0.8-0.6c0.6-0.5,1.4-0.9,2.3-0.5C80.2,58.9,80.7,60,80.2,61.3z"/>
		</g>
	</g>
	<path d="M49.6,14.2C30,14.2,14.2,30,14.2,49.6C14.2,69.2,30,85,49.6,85C69.2,85,85,69.2,85,49.6C85,30,69.2,14.2,49.6,14.2z
		 M49.6,84c-19,0-34.4-15.4-34.4-34.4c0-19,15.4-34.4,34.4-34.4c19,0,34.4,15.4,34.4,34.4C84,68.6,68.6,84,49.6,84z"/>
	<g>
		<path d="M58,66.8c-0.7,0.5-1.2,1.3-1.5,2c0.7,0.5,2.2,1.2,4.7,1.6c1.1-0.6,2-1.2,3-2c-0.9-0.2-1.8-0.7-2.4-1
			C60.7,66.7,59.3,65.7,58,66.8z"/>
		<path d="M41.4,62.1c-0.9-0.2-1.3-0.2-2.6,0.2c-2.2,0.7-5.7,4.6-5.7,4.6c1,1,2.2,1.9,3.4,2.7c1-1.2,3.5-4.1,5.9-4.1
			c1.3,0,2,0.5,3,1.2c0.1-0.1,0.2-0.3,0.3-0.4C43.8,65.2,41.4,62.1,41.4,62.1z"/>
		<path d="M48.9,65.5c-1.1,0.1-1.8,1-2.3,1.9c2,1.4,3.8,3,6.4,3.7c2,0.6,2.8,0.8,4.9,0.9c0.9-0.3,1.8-0.7,2.7-1.2
			c-1.3-0.2-3-0.8-4.4-1.4C53.8,68.2,51.1,65.2,48.9,65.5z"/>
	</g>
	<path d="M42.8,66.7c-3,0-4.2,2.5-5.1,3.6c3.5,2,7.6,3.2,11.9,3.2c2.3,0,4.5-0.3,6.6-0.9c-1.3-0.1-3-0.4-4.4-1
		C48.5,70.2,45,66.7,42.8,66.7z"/>
	<path d="M64.1,64.6c-2-2.5-3.5-3-4.3-2.8c-0.8,0.2-0.6,0.8-1.5,1.8c-0.8,1-2.7,2.1-3.1,2.3c0.3,0.3,0.7,0.8,0.8,0.9
		c0.9-0.9,2.2-1.7,3.3-1.7c2.1,0,2.7,1.7,5.5,2.7c0.6-0.5,1.2-1,1.7-1.5C66.6,66.4,65.2,66.1,64.1,64.6z"/>
	<g>
		<path d="M59.4,44.1c-0.1-0.1,0-0.3-0.1-0.4c-0.1-0.4-0.3-0.8-0.3-1.3c-0.1-0.3,0.2-0.4,0.4-0.5c0.1-0.3,0.1-0.6,0-0.8
			c-0.1-0.4-0.7-0.5-0.7-1c0-0.3-0.2-0.6-0.2-1c-0.2-0.5-0.1-1.1-0.2-1.6c-0.1-0.6-0.1-1.2-0.2-1.8c-0.1-0.7-0.2-1.4-0.4-2.1
			c-0.1-0.6-0.3-1.2-0.6-1.7c0-0.4-0.4-0.7-0.2-1.1c0.3-0.5,0.6-1,0.8-1.5c0.2-0.3,0.1-0.7,0.2-1.1c0-0.3,0.1-0.6,0-0.9
			c-0.1,0-0.1,0-0.1,0c-0.1,0.5-0.7,0.7-1.1,1c-0.6,0.2-1.2,0.1-1.9,0.2c-0.4,0-0.7,0.4-1.2,0.1c-0.2-0.1-0.4-0.2-0.7-0.3
			c-0.5,0-1,0-1.4,0c-0.7,0-1.2-0.4-1.9-0.3c-0.9,0-1.6,0.4-2.5,0.3c-0.8-0.2-1.6,0.1-2.2,0.4c-0.2,0-0.5-0.2-0.8-0.2
			c-0.7-0.3-1.6,0.2-2.1-0.3c-0.3-0.3-0.5-0.6-0.5-1c-0.1,0.1-0.2,0.2-0.2,0.3c-0.2,0.3-0.3,0.6-0.3,0.9c-0.1,0.4,0,0.9,0.1,1.3
			c0.1,0.7,0.6,1.3,0.5,2c-0.1,0.3-0.3,0.7-0.4,1c-0.3,0.4-0.2,0.8-0.3,1.3c-0.3,0.8-0.1,1.6,0,2.5c-0.3,1-0.4,2-0.5,3
			c-0.1,0.7,0,1.4-0.3,2c-0.4,0.4-0.7,0.7-0.6,1.3c0,0.3,0.2,0.5,0.3,0.7c0.1,0.5,0.1,1.1,0,1.6c0,0.4-0.4,0.6-0.5,0.9
			c-0.1,0.4,0.2,0.6,0.4,0.8c0.1,0.2,0.1,0.6,0.2,0.8c0.1,0.7,0.2,1.3,0.3,2c0.2,1,0.3,2,0.5,2.9c0.2,1.2,0.5,2.3,0.8,3.4
			c0.4,0.8,0.5,1.7,0.8,2.5c0.2,0.7,0.6,1.3,0.6,2c0,0.1,0,0.2,0.1,0.2c0,0.5-0.4,0.8-0.3,1.3c0,0,1.5,2.6,3.2,3.7
			c0.7-0.8,1.7-1.5,3-1.5c2.1,0,4,2.1,6,3.7c0.1-0.2,0.3-0.3,0.5-0.5c-0.7-0.9-3.6-4.3-6-4.7c0,0,0.2-0.5,0-0.7
			c-0.2-0.3-0.2-0.5-0.2-0.8c0-0.1-0.1-0.4,0-0.5c0.4,0.1,0.5,0.5,0.7,0.8c0,0,0.1,0,0.1,0c0,0,0.1,0,0.1-0.1c0-0.4,0.5-0.6,0.7-0.8
			c0.1,0,0.1,0,0.2,0.1c0.1,0.4,0,0.9,0.3,1.2c0.1,0.1,0,0.2-0.1,0.3c0,0.3-0.2,0.2-0.2,0.2c1.8,0.9,2.8,1.9,3.8,3.1
			c0.7-0.5,3.2-2.1,3.1-3.7c0-0.5-0.3-0.5-0.4-0.8c-0.2-0.2-0.4-0.4-0.5-0.7c-0.3-0.5-0.5-1.1-0.4-1.8c0.2-0.5,0.2-1,0.4-1.5
			c0.3-0.9,0.5-1.8,0.7-2.7c0.3-1.2,0.7-2.5,0.8-3.8c0.2-0.4,0.2-0.9,0.3-1.4c0.2-0.4,0.1-1,0.2-1.5c0.1-0.4,0-0.8,0.2-1.1
			c0.1-0.2,0-0.4,0.1-0.6c0-0.3,0.3-0.2,0.3-0.5c0.2-0.1,0.3-0.4,0.4-0.5C60.1,44.7,59.7,44.4,59.4,44.1z M58.3,40.6
			c0.2,0.1,0.4,0.1,0.5,0.3c0.2,0.1,0.2,0.3,0.3,0.5c0,0.1,0,0.3-0.1,0.3c-0.4,0-0.7-0.2-0.9-0.4C58,41,58.2,40.8,58.3,40.6z
			 M56.2,45.5c0,0.6,0,1.3-0.1,1.8c-0.1,0.1,0,0.2,0,0.3c-0.1,0.6,0,1.3-0.1,1.9l-0.1,0c-0.2-0.3-0.7-0.4-0.7-0.8
			c0.3-1,0.2-2.2,0.3-3.3c0.1-0.9,0.1-1.9,0-2.8c0,0,0-0.1,0.1-0.1c0.3,0.1,0.4,0.4,0.7,0.5C56.2,43.9,56.1,44.6,56.2,45.5z
			 M42.5,37.6c-0.3,0-0.3-0.3-0.4-0.5c-0.1-0.1-0.1-0.3-0.1-0.4c0.1-0.1,0.1-0.2,0.1-0.3c-0.1-0.1-0.3,0-0.3-0.2
			c0-0.2-0.1-0.5,0.2-0.6c0.2-0.1,0.5,0,0.8-0.2c0,0,0-0.1-0.1-0.1c-0.3,0-0.5,0.1-0.7,0.2c-0.1,0-0.1-0.1-0.1-0.2
			c0-0.7-0.1-1.3,0.1-1.8c0-0.1-0.1-0.3,0-0.4c0.3-0.1,0.4,0.4,0.7,0.3v0c-0.2-0.2-0.4-0.4-0.6-0.4c-0.1-0.2,0-0.5,0-0.7
			c0.1-0.1,0.1-0.2,0.2-0.1c0.2,0.1,0.3,0.3,0.5,0.4c0.1,0,0.1-0.1,0.1-0.2c-0.2-0.3-0.8-0.3-0.5-0.8c0-0.2,0.1-0.4,0.3-0.4
			c0.2,0.1,0.3,0.3,0.5,0.4l0.1,0c-0.2-0.2-0.3-0.4-0.2-0.6c0.1-0.1,0.3,0.1,0.4,0.1l0.2,0.1c0.2,0.1,0.5,0.2,0.5,0.5
			c0.2,0.3,0.2,0.6,0.5,0.8c0.1,0.2,0.2,0.3,0.3,0.4c-0.1,0.1-0.2,0.1-0.2,0c-0.2-0.1-0.3-0.4-0.5-0.6c-0.1,0-0.1,0-0.1,0.1
			c0.1,0.2,0.1,0.5,0.3,0.6l0,0.2c-0.3,0-0.7-0.3-0.9-0.5c0,0-0.1-0.1-0.2,0c-0.1,0.1,0,0.2,0,0.2c0.2,0.3,0.3,0.6,0.6,0.7
			c0.1,0,0.1,0.2,0,0.2c0,0.2-0.2,0.1-0.3,0.1c-0.2-0.2-0.4-0.4-0.6-0.5l-0.1,0c0,0.2,0.2,0.3,0.2,0.4c0.2,0.3,0.6,0.3,0.5,0.7
			c0,0.1,0,0.2-0.1,0.2c-0.5-0.1-1.2-0.3-1.6,0.2c0,0.1,0,0.1,0.1,0.1c0.5,0,0.9,0,1.3,0.3c0.1,0.1,0.2,0.2,0.1,0.3
			c-0.1,0-0.2,0-0.3,0.1c-0.1,0.1-0.3,0.2-0.5,0.3c0,0,0,0.1,0,0.1c0.2-0.1,0.5-0.2,0.7-0.3c0.1,0,0.2,0,0.2,0.1
			c0,0.1-0.1,0.1-0.2,0.2C43.4,35.9,43,36,43,36.3l0.1,0c0.3,0,0.5-0.5,0.8-0.4c0.1,0,0.1,0.1,0.1,0.2c-0.4,0.3-1,0.5-1.1,1.1
			c0,0,0,0.1,0,0.1c0.1,0,0.1-0.1,0.2-0.2c0.4-0.3,0.7-0.6,1.2-0.7c0,0,0.1,0,0.1,0.1c0,0.2-0.4,0.4-0.4,0.6
			c-0.1,0.2-0.1,0.4-0.2,0.6c0,0,0.1,0.1,0.1,0c0.2-0.3,0.4-0.8,0.8-1c0,0.1,0.1,0,0.2,0.1c0.2,0,0.5,0.1,0.6,0.3
			c0,0.5-0.2,1.1,0,1.5c0.1-0.1,0-0.2,0.1-0.3c0-0.4,0.2-0.6,0.3-1c0-0.1,0.2-0.1,0.2-0.1c0.2,0.1,0.2,0.3,0.4,0.4
			c0.1-0.1,0-0.4,0-0.5c0.1-0.1,0.2-0.1,0.3-0.1c0,0,0.1,0,0.2,0c0.1-0.1,0-0.2,0-0.2c0.2-0.2,0.3-0.6,0.7-0.5l0.1,0.1
			c0,0.2,0,0.5-0.1,0.7c-0.1,0-0.1-0.2-0.3-0.1c-0.1,0.1,0,0.2,0,0.3c0.1,0.2,0.2,0.4,0.3,0.6c0,0.1,0.1,0.1,0,0.2
			c-0.3,0-0.4-0.3-0.5-0.4c-0.1-0.1-0.2,0-0.2,0.1c-0.1,0.3,0.2,0.6,0.4,0.8c0.1,0,0.2,0.1,0.2,0.1c0,0.1-0.1,0.2,0,0.3l0.1,0.2
			c-0.1,0.1-0.3,0-0.5-0.1c-0.3-0.2-0.6-0.6-0.7-1c0,0-0.1-0.1-0.1,0c-0.1,0.3,0,0.5,0.2,0.7c0.2,0.1,0.3,0.3,0.3,0.5
			c-0.1,0.1-0.2,0.1-0.3,0.1c-0.3-0.2-0.3-0.6-0.3-0.9c0,0-0.1-0.1-0.1,0c-0.1,0.2-0.1,0.4-0.1,0.5c0,0.1,0.1,0.4-0.1,0.5
			c-0.2,0.1-0.4,0-0.6,0.1c-0.2-0.1-0.2-0.4-0.2-0.6c0-0.1-0.1,0-0.1,0c-0.2,0.1-0.2,0.6-0.5,0.5c-0.2-0.1-0.5-0.2-0.7-0.5
			c-0.1-0.3,0.2-0.4,0.2-0.7c0.1-0.2,0.3-0.4,0.4-0.6c-0.1-0.1-0.3,0.1-0.4,0.2c-0.2,0.3-0.4,0.6-0.5,0.9c0,0.1-0.1,0.1-0.2,0.1
			c-0.3-0.3-1-0.5-0.9-1c0.1-0.1,0.1-0.2,0.2-0.3C42.7,37.3,42.6,37.5,42.5,37.6z M49.5,38.7c0,0,0.1,0,0.1,0
			c0.1-0.2,0.1-0.6,0.1-0.8c0-0.7,0.1-1.4,0.2-2c0-0.1,0-0.3,0.2-0.3c0.2,0,0.5,0.1,0.6,0.3c0.1,0.9,0,1.9-0.3,2.7
			c-0.1,0.4-0.4,0.7-0.6,1.1c-0.1,0.1-0.1,0.4-0.4,0.4c-0.6-0.8-1-1.8-1-2.9c0-0.4-0.2-1,0.1-1.3c0.3-0.1,0.5-0.4,0.8-0.3l0,0.1
			C49.5,36.6,49.2,37.7,49.5,38.7z M52.1,41.6c-0.5-0.2-1-0.7-1-1.3c0-0.1,0.1-0.1,0.1,0l0.5,0.5c0.4,0.2,0.8,0.5,1,0.9
			c0,0.1,0.1,0.3-0.1,0.4c-0.2,0.2-0.4,0.3-0.7,0.3c-0.5-0.1-1-0.5-1.2-0.9c-0.1-0.3-0.1-0.7,0-1c0.2,0,0.1,0.2,0.2,0.3
			c0.2,0.4,0.6,1,1.1,1.1C52.2,41.7,52.1,41.6,52.1,41.6z M51.9,36.9c-0.1,0.1-0.2,0.2-0.3,0.3c-0.1-0.2,0.1-0.4,0.1-0.5
			c0,0,0-0.1,0-0.1c-0.1-0.1-0.2,0-0.2-0.2c0-0.1,0-0.1,0-0.2l0.2,0c0.2,0.2,0.5,0.5,0.8,0.7c0,0.2,0,0.4-0.1,0.6
			c0,0.2-0.2,0.4-0.2,0.6c0,0.1,0.1,0.1,0.1,0c0.2-0.3,0.3-0.6,0.6-0.9c0.3-0.1,0.6,0,0.9,0c0.2,0.1,0.1,0.4,0.2,0.6
			c0,0.1,0,0.3,0.1,0.4c0.2,0,0.2-0.3,0.2-0.4c0.1-0.3,0-0.5,0-0.8c0-0.1,0-0.1,0-0.2c0.1-0.1,0.2-0.1,0.3,0
			c0.2,0.1,0.3,0.4,0.5,0.5c0.1,0,0-0.1,0-0.2c0-0.2-0.3-0.4-0.3-0.6c0-0.1,0.1-0.1,0.2-0.1c0.2,0.1,0.1,0.4,0.3,0.5
			c0.1,0,0-0.1,0-0.2c-0.1-0.2-0.2-0.4-0.2-0.6c0.1-0.1,0.2,0,0.2,0c0.3,0.1,0.5,0.2,0.8,0.4c0.3,0.2,0.3,0.6,0.4,0.9
			c-0.1,0.3,0.2,0.7-0.1,0.9c-0.2,0.1-0.4,0.3-0.6,0.4c-0.1-0.1-0.1-0.2-0.2-0.3c-0.2-0.2-0.3-0.7-0.6-0.6c-0.1,0.1,0.1,0.3,0.1,0.5
			c0,0.3,0.3,0.6,0.1,0.9c-0.3-0.1-0.4,0.3-0.7,0.2c-0.3-0.1-0.6,0.5-0.9,0c0-0.4,0-0.8-0.1-1.3c0-0.1-0.1-0.3-0.2-0.4
			c-0.1,0.1,0,0.3-0.1,0.5c0,0.4-0.1,0.8-0.3,1.1c-0.1,0.1-0.2,0.2-0.3,0.1c0,0-0.1,0-0.1-0.1c0-0.2,0.1-0.4,0.1-0.6
			c0-0.1-0.1,0-0.1,0c-0.2,0.3-0.5,0.7-0.9,0.6c-0.1-0.1-0.1-0.1-0.2-0.1c0.1-0.2,0.4-0.4,0.4-0.6c-0.2,0-0.3,0.2-0.5,0.3
			c-0.1-0.7,0.6-1.1,0.7-1.8C52,36.9,51.9,36.9,51.9,36.9z M51.9,33.6c0.3-0.4,0.8-0.5,1.3-0.6c0.5,0,1.1,0.1,1.4,0.5
			c0.4,0.5,0.5,1.2,0.3,1.8c-0.3,0.6-0.9,1.1-1.6,1.1c-0.3,0.1-0.5-0.1-0.8-0.2c-0.4-0.2-0.5-0.6-0.7-0.9
			C51.5,34.7,51.6,34.1,51.9,33.6z M57.1,41.6c0,0,0.1-0.1,0.2-0.1c0.2,0,0.3,0,0.5,0.1c0.1,0.2,0.2,0.5,0.1,0.7
			c-0.3,0.1-0.5,0-0.7-0.2C57,41.9,57.2,41.7,57.1,41.6z M57.3,41.2c-0.3-0.1-0.6-0.4-0.8-0.7c-0.1-0.3-0.3-0.5-0.3-0.8
			c0-0.2-0.1-0.4,0-0.6h0c0.2,0.5,0.6,0.9,1,1.3c0.1,0.1,0.3,0.1,0.4,0.3C57.6,40.9,57.5,41.1,57.3,41.2z M54.9,47.4
			c-0.3,0.1-0.5-0.3-0.8-0.4c-0.3-0.4-0.6-0.8-0.6-1.3c0,0,0.1-0.1,0.1-0.1c0.2,0.3,0.4,0.7,0.8,0.8c0.1,0,0.1,0,0.1-0.1
			c-0.1-0.3-0.3-0.6-0.2-0.9c0.2,0,0.3,0.3,0.6,0.3c0.1,0.1,0.1,0.4,0.1,0.5C54.9,46.6,55,47.1,54.9,47.4z M54.8,53.9
			c0-0.8,0.2-1.7,0.2-2.5c0.1-0.1,0.3-0.2,0.5-0.2c0,0.1,0,0.3,0,0.5c0,0.8-0.1,1.6-0.1,2.5c0,0.3-0.1,0.7-0.1,1
			c-0.1,0.2-0.1,0.4-0.1,0.7c0,0.7-0.2,1.3-0.3,1.9c-0.1,0.1-0.1,0.4-0.3,0.4c-0.2-0.2-0.1-0.5-0.1-0.7c0.1-0.2,0-0.5,0.1-0.7
			C54.6,55.8,54.9,54.9,54.8,53.9z M54.6,59.7c0.2,0.4,0.2,0.8,0.3,1.1c0,0.2,0.1,0.4-0.1,0.5c-0.5-0.1-0.9,0.1-1.3,0.4
			c-0.1,0-0.2,0-0.3-0.1c-0.1-0.2,0-0.4,0-0.6c0.1-0.2,0-0.5,0.2-0.7c0.1-0.1,0.3-0.1,0.3-0.3c-0.2-0.1-0.5,0-0.6-0.2
			c-0.2-0.3-0.4-0.6-0.4-1c0.3-0.3,0.8-0.4,1.2-0.3c0.1,0.1,0.3,0.1,0.3,0.2C54.5,59.2,54.5,59.5,54.6,59.7z M53.9,62.1
			c0.1-0.3,0.4-0.3,0.6-0.4c0.1,0,0.2,0,0.2,0.1c-0.1,0.6-0.2,1.2-0.6,1.7c0,0.1-0.1,0.1-0.2,0.1c-0.1,0,0-0.1,0-0.2
			C54.1,63,54.1,62.5,53.9,62.1z M52.9,63.1c-0.4-0.1-0.9-0.4-0.9-0.9c0-0.1-0.1-0.2-0.1-0.3c0.2-0.2,0.5-0.2,0.8-0.2l0.1,0.1
			C52.7,62.2,52.6,62.8,52.9,63.1z M52.3,61.4c-0.2,0-0.4,0.2-0.6,0.2c-0.1-0.2-0.1-0.4-0.2-0.6c-0.1-0.7,0-1.4,0.6-1.8
			c0.1-0.1,0.2,0,0.3,0c0.2,0.2,0.3,0.5,0.4,0.7c0.1,0.2,0.2,0.3,0.3,0.6c0.1,0.3,0,0.6,0,0.9C52.8,61.5,52.5,61.3,52.3,61.4z
			 M47.7,62.4c0.2-0.1,0.4-0.3,0.7-0.1c0.2,0.2,0.2,0.4,0.2,0.6c-0.2,0.4-0.6,0.8-1,0.9c0,0-0.1,0-0.1-0.1c0-0.3,0.2-0.5,0.1-0.8
			C47.5,62.7,47.6,62.6,47.7,62.4z M48.5,62c-0.2,0-0.4-0.1-0.5-0.2c-0.2,0-0.2,0.2-0.4,0.3c-0.1,0-0.1,0.1-0.2,0.1
			c-0.1-0.2-0.1-0.4-0.1-0.6c-0.1-0.2,0-0.5,0.1-0.7c0.2-0.1,0.3-0.3,0.5-0.3c0.1-0.1,0.1-0.1,0.1-0.2c-0.1-0.1-0.3-0.1-0.4-0.1
			c-0.2,0.1-0.3,0.2-0.5,0.4c-0.2-0.3-0.2-0.6-0.2-1c0-0.3,0.1-0.7,0.4-0.8c0.2,0.1,0.6,0.1,0.7,0.4c0.4,0.5,0.8,1,0.9,1.7
			c0,0.4,0.1,0.8-0.1,1.2C48.6,62.2,48.6,62.1,48.5,62z M47.3,58.2c-0.6-0.3-0.7-1-0.6-1.6c0-0.1,0-0.3,0.2-0.3
			c0.1,0.1,0.1,0.2,0.2,0.3c0.3,0.6,1,1,1.5,1.5c0.4,0.2,0.6,0.7,0.6,1.2c0.1,0.1,0,0.3,0,0.4c0,0-0.1,0-0.1-0.1
			C48.6,59,48,58.4,47.3,58.2z M44.4,40.8c0.2-0.1,0.3-0.3,0.5-0.4c0.2-0.2,0.3-0.4,0.5-0.6c0.1,0,0.2,0,0.2,0.1
			c0,0.3-0.1,0.5-0.2,0.8c-0.3,0.6-0.7,1.2-1.4,1.3c-0.2,0-0.4-0.1-0.5-0.2c0-0.3-0.1-0.5-0.1-0.7c0-0.5,0.4-0.9,0.7-1.4
			c0.1-0.1,0.3-0.2,0.3,0c-0.1,0.3-0.1,0.7-0.1,1C44.4,40.7,44.4,40.8,44.4,40.8z M45.9,44.5c0.4-0.3,0.7-0.8,1-1.1c0,0,0.1,0,0.1,0
			c0,0.7-0.4,1.3-0.9,1.9c-0.3,0.3-0.8,0.5-1.2,0.4c-0.3-0.1-0.4-0.4-0.5-0.6c0-0.3,0.1-0.5,0.2-0.7c0.4-0.3,0.9-0.6,1.1-1
			c0-0.1,0.1-0.1,0.2-0.1c0,0.5-0.3,0.9-0.5,1.3C45.7,44.7,45.8,44.6,45.9,44.5z M47,41.8c0.4-0.1,0.6-0.4,0.8-0.7
			c0-0.2,0.2-0.3,0.3-0.5c0,0,0,0,0.1,0c0,0.7-0.3,1.4-0.9,1.9c-0.1,0.1-0.3,0.1-0.4,0.1c-0.2-0.1-0.5-0.2-0.5-0.4
			c0-0.5,0.1-0.9,0.5-1.1c0.1-0.1,0.2-0.3,0.4-0.4c0,0.3-0.1,0.6-0.2,0.8C47.1,41.6,46.9,41.7,47,41.8z M48.9,48.7
			C49,48.7,49,48.7,48.9,48.7c0.2-0.1,0.1-0.3,0.2-0.4c0.1-0.1,0.2,0,0.2,0c0.3,0.2,0.1,0.6,0.2,0.9c0,0.3-0.1,0.7-0.2,1
			c0.1,0.1,0.2,0,0.2,0c0.3-0.4,0.2-0.8,0.3-1.3c0-0.1,0-0.2,0.1-0.3c0.1,0,0.1,0,0.1,0.1c0,0.3,0,0.6,0,0.9l0.1,0
			c0.3-0.4,0.1-0.9,0.3-1.4c0.1-0.2,0-0.5,0.1-0.8c0.2,0,0.2,0.2,0.2,0.4c0,0.2,0.1,0.3,0.2,0.4c0.1,1,0.4,2.4-0.6,3
			c-0.3,0.2-0.8,0.1-1.1,0c-0.3-0.1-0.4-0.5-0.5-0.7c-0.2-0.6-0.4-1.2-0.3-1.9c0.1-0.6,0.2-1.3,0.5-1.8c0.1,0,0,0.2,0,0.3
			C48.9,47.7,48.8,48.2,48.9,48.7z M51.8,46.6c-0.1-0.2-0.1-0.5-0.2-0.8c0-0.2,0.2,0,0.2,0.1c0.2,0.6,1.1,0.7,1.1,1.4
			c0.1,0.2,0.1,0.4,0,0.6c-0.2,0.2-0.5,0.3-0.9,0.3c-0.5-0.2-0.8-0.7-1.2-1.1c0-0.3-0.3-0.5-0.1-0.8c0.1,0,0.2,0.1,0.2,0.1
			c0.3,0.3,0.6,0.6,0.9,0.8c0.1,0,0.1,0,0.2-0.1C52.2,46.9,51.9,46.8,51.8,46.6z M51.3,52.4c-0.1-0.2-0.4-0.4-0.4-0.6
			c0-0.1-0.1-0.2,0.1-0.3c0.5,0.2,0.9,0.5,1.2,0.9c0.1,0.3,0.1,0.7,0,0.9c0,0.1-0.1,0.3-0.2,0.3c-0.1,0.1-0.3,0.1-0.5,0.1
			c-0.5-0.3-0.8-0.9-0.9-1.5h0.1c0.2,0.2,0.3,0.7,0.7,0.5C51.4,52.7,51.4,52.5,51.3,52.4z M52.2,51.3c-0.3-0.4-0.6-0.8-0.6-1.4
			c0,0,0.1-0.1,0.1,0c0.1,0.1,0.1,0.2,0.1,0.3c0.1,0.2,0.2,0.5,0.5,0.5c0.1,0,0-0.2,0-0.2c0-0.3-0.2-0.5-0.1-0.8h0
			c0.4,0.4,0.9,0.8,0.7,1.4c0,0.2-0.2,0.3-0.3,0.3C52.5,51.4,52.4,51.4,52.2,51.3z M47.1,50.7c0.3-0.3,0.5-0.6,0.7-0.9
			c0.1,0,0.1,0,0.1,0.1c0.1,0.8-0.3,1.4-0.9,1.8c-0.2,0.1-0.4,0.1-0.5,0.1c-0.1-0.1-0.2-0.3-0.3-0.4c-0.1-0.6,0.1-1.1,0.5-1.5
			c0.2-0.2,0.2-0.4,0.4-0.5c0.2,0.1,0.1,0.5,0.1,0.7c0,0.3-0.2,0.4-0.2,0.7C46.9,50.9,47,50.7,47.1,50.7z M47.6,51.9
			c0.1-0.3,0.4-0.4,0.6-0.7c0.1,0,0.2,0,0.2,0.1c0,0.5-0.3,0.9-0.5,1.3c0.1,0.1,0.2-0.1,0.4-0.1c0.3-0.2,0.3-0.6,0.5-0.9
			c0.1,0,0.2,0.1,0.2,0.1c0.3,0.7-0.1,1.3-0.4,1.8c-0.2,0.4-0.6,0.2-0.9,0.3c-0.2,0-0.4-0.1-0.4-0.3C47.1,52.9,47.5,52.4,47.6,51.9z
			 M48.5,46.1c0,0.3-0.1,0.5-0.2,0.8L48.2,47c0.1,0.1,0,0.2,0,0.3c-0.1,0.6-0.6,1-1.2,1.1c-0.2,0-0.4-0.1-0.6-0.2
			c-0.3-0.2-0.2-0.6-0.2-1c0.2-0.6,0.6-1.2,1-1.8c0,0,0.1-0.1,0.1,0c0.1,0.6,0,1.1-0.2,1.6c0,0.1,0,0.2,0.1,0.3
			c0.2-0.1,0.2-0.3,0.4-0.4l0-0.1c0.2-0.4,0.5-0.8,0.6-1.3c0-0.1,0.1-0.1,0.1-0.1C48.6,45.7,48.5,45.9,48.5,46.1z M45.5,43
			c-0.2,0.2-0.5,0.4-0.8,0.4c-0.1,0-0.2-0.1-0.2-0.2c-0.1-0.6,0.4-0.9,0.5-1.4c0.1-0.1,0.2-0.3,0.3-0.3c0.1,0.3-0.1,0.6-0.1,1
			c0.1,0.1,0.2-0.1,0.3-0.2c0.2-0.4,0.4-0.9,0.5-1.3c0-0.1,0.1,0,0.1,0C46.1,41.8,45.8,42.4,45.5,43z M44.4,46.7l0.5-0.5
			c0.1,0,0.1,0,0.1,0.1c0.1,0.3-0.1,0.7-0.2,0.9c0,0.1-0.1,0.3,0,0.4c0.2,0,0.3-0.2,0.4-0.3c0.2-0.3,0.4-0.6,0.7-0.8
			c0,0,0.1,0,0.1,0c0,0.5-0.3,0.9-0.5,1.3c-0.2,0.4-0.6,0.7-1.1,0.6l-0.1-0.1C44.2,47.8,44.1,47.1,44.4,46.7z M46.1,52.7
			c0.1-0.1,0.1-0.2,0.2-0.2c0,0.2-0.2,0.3-0.2,0.5c-0.1,0.2-0.2,0.4-0.2,0.6c0.1,0.1,0.2,0,0.3,0c0.2-0.2,0.4-0.4,0.6-0.6
			c0,0,0,0.1,0,0.1c0,0,0,0.1,0,0.1c-0.2,0.4-0.4,1-1,1.1c-0.2,0-0.4,0-0.5-0.1c-0.1-0.3,0-0.7,0.2-1C45.7,53.1,45.8,52.8,46.1,52.7
			z M46,56.6c0,0.4,0.1,0.9-0.1,1.2c-0.1,0.1-0.2,0.2-0.3,0.1c-0.2-0.1-0.2-0.2-0.2-0.4c0-0.4-0.1-0.8,0.1-1.2
			c0.1-0.3,0.1-0.5,0.2-0.8c0-0.2,0.1-0.4,0.1-0.6c0.1,0.1,0,0.3,0.1,0.4C46,55.8,45.8,56.2,46,56.6z M45.3,59.6
			c0.1-0.2,0.2-0.5,0.4-0.7c0.1-0.2,0.4-0.1,0.6-0.2c0.2,0.1,0.6-0.1,0.5,0.2c-0.2,0.4-0.4,0.9-0.2,1.3c-0.1,0.2-0.6,0-0.5,0.3
			c0.2,0.3,0.5,0.1,0.6,0.4c0.1,0.3,0.1,0.7,0.2,1c0,0.1-0.1,0-0.1,0c-0.3-0.2-0.6-0.4-0.9-0.2c-0.2,0.1-0.3,0.3-0.5,0.5
			c-0.1,0.1-0.1-0.1-0.1-0.1C45,61.3,45.1,60.3,45.3,59.6z M47.8,57c-0.2-0.3-0.3-0.7-0.5-1c0-0.4-0.1-0.7,0-1.1
			c0-0.1,0-0.2,0.1-0.3l0,0c0,0.8,0.5,1.3,0.9,1.9c0.3,0.3,1,0.4,0.9,1c0,0.3,0.2,0.5,0,0.8c-0.1,0-0.1,0-0.1-0.1
			C48.8,57.7,48.2,57.4,47.8,57z M49.3,56c-0.4-0.4-0.7-0.9-0.5-1.5c0-0.4,0.2-0.8,0.5-1c0.1-0.1,0-0.3,0.2-0.3
			c0.1,0.1,0,0.2-0.1,0.2c0.1,0.4,0.3,1-0.1,1.3c0,0.1,0,0.2,0.1,0.2c0.4,0.1,0.3-0.4,0.5-0.5c0,0.3-0.2,0.6-0.4,0.8
			c0,0.1,0.2,0.1,0.2,0.2c0.2,0,0.3-0.3,0.4-0.4c0.1-0.5,0.1-0.9-0.2-1.3c0-0.1-0.1-0.3,0.1-0.5c0.3,0,0.4,0.3,0.5,0.5
			c0.2,0.4,0.3,1,0.1,1.4c0.1,0.5-0.4,0.6-0.6,0.9C49.8,56,49.5,56.2,49.3,56z M50.3,57c0-0.2,0.2-0.3,0.3-0.5
			c0.2-0.5,0.4-0.9,0.7-1.3c0.2-0.2,0.1-0.5,0.2-0.8c0.1,0,0.1,0.2,0.2,0.3c0.1,0.5,0.1,1.1-0.1,1.5c-0.3,0.6-0.8,1.1-1,1.6
			c-0.1,0.1-0.1,0.3-0.2,0.4C50.1,57.9,50.1,57.4,50.3,57z M50.6,58.9c0.1-0.5,0.4-0.9,0.6-1.3c0.4-0.5,0.6-1,0.8-1.5
			c0-0.1-0.1-0.2,0-0.3c0.2,0.3,0.3,0.7,0.2,1.1c0,1-1.1,1.6-1.2,2.5c-0.1,0.1-0.2,0.3-0.3,0.4C50.6,59.6,50.7,59.2,50.6,58.9z
			 M53,56.9c0-0.6,0.2-1.1,0.2-1.7c0-0.1,0.1-0.2,0.1-0.1c0.1,0.6,0,1.2,0.2,1.7c0,0.4,0.1,0.9-0.3,1.1C53.1,58,53,57.9,53,57.8
			C52.8,57.5,53,57.2,53,56.9z M53.8,53.5c-0.1,0.1-0.2,0.2-0.4,0.1c-0.6-0.2-0.8-0.8-0.9-1.3c0.1,0,0.2,0.2,0.3,0.2
			c0.2,0.1,0.3,0.5,0.6,0.3c0-0.3-0.3-0.4-0.4-0.7c0-0.1-0.1-0.2-0.1-0.3c0.1,0,0.1,0.2,0.3,0.3c0.3,0.1,0.6,0.4,0.7,0.7
			C54,53,54,53.3,53.8,53.5z M52.7,44.8c-0.4-0.3-0.5-0.7-0.6-1.2c0-0.1-0.1-0.3,0-0.4c0.1,0,0.1,0.1,0.1,0.1
			c0.2,0.2,0.4,0.6,0.7,0.7c0.1,0.1,0.1,0.1,0.1,0.2c0.1,0,0.2,0,0.2-0.1c0-0.1-0.1-0.3-0.2-0.4c-0.1-0.3-0.4-0.5-0.3-0.9
			c0.1-0.1,0.2,0.1,0.4,0.2c0.4,0.1,1,0.4,1.1,0.9c0,0.3,0,0.7-0.2,0.9C53.5,45,53,44.9,52.7,44.8z M53.9,41.8
			c0.1,0.1,0.2,0.2,0.3,0.2c0.2,0.2,0.4,0.5,0.3,0.8c-0.1,0.1-0.1,0.3-0.2,0.4c-0.3,0-0.5-0.3-0.7-0.5c-0.2-0.2-0.3-0.4-0.2-0.7
			c0-0.1,0.1,0,0.2,0c0.2,0.1,0.3,0.4,0.5,0.2C54,42.1,53.8,42,53.9,41.8z M54.2,41.6c-0.3-0.5-0.6-0.9-0.6-1.5c0,0,0.1,0,0.1,0
			c0.2,0.3,0.5,0.8,1,0.8c0.1-0.1-0.1-0.3-0.1-0.4c0-0.2-0.1-0.3-0.1-0.5c0.1,0,0.1,0.1,0.2,0.2c0.3,0.2,0.6,0.4,0.7,0.8
			c0,0.3,0,0.7-0.3,1C54.7,41.9,54.4,41.8,54.2,41.6z M51,45.4c-0.3,0.4-0.9,0.8-1.5,0.8c-0.3-0.1-0.6-0.1-0.8-0.4
			c0-0.2-0.3-0.3-0.2-0.6c-0.2-0.5-0.4-1-0.3-1.6c-0.1-0.6,0.1-1.3,0.2-1.9c0.1-0.1,0.2-0.4,0.3-0.2c0,0.6-0.2,1.1,0.1,1.6
			c0.1,0,0.1,0.1,0.2,0.1c0.2-0.1,0-0.4,0.1-0.6c0.1-0.1,0.1,0,0.2,0.1c0.1,0.6,0,1.3,0.3,1.8c0.1,0.1,0.2,0.2,0.3,0.1
			c0.1-0.1,0-0.1,0.1-0.2c-0.3-0.8-0.3-1.8,0-2.6c0.1,0,0.1,0,0.1,0.1c0.1,0.5-0.1,1.1,0.1,1.5c0.2-0.1,0.2-0.3,0.3-0.5
			c0.1-0.5,0-1.1,0.1-1.6c0.1,0,0,0.1,0.1,0.1C51,42.7,51.8,44.2,51,45.4z M48.6,34c0-0.1,0.1-0.3-0.1-0.3c-0.1,0-0.3,0.1-0.4,0.1
			c0,0-0.1-0.1-0.1-0.1c0,0,0,0,0-0.1c0.2-0.1,0.5-0.3,0.7-0.4c0.1-0.1,0.2-0.2,0.3-0.1C49.1,33.5,48.8,33.8,48.6,34
			C48.6,34.1,48.6,34.1,48.6,34z M47.9,33.2c-0.2,0-0.4,0.1-0.6-0.1c0.1-0.2,0.3-0.1,0.4-0.2c0.3-0.1,0.5,0.2,0.7,0.2c0,0,0,0,0,0.1
			C48.3,33.2,48.1,33.1,47.9,33.2z M48.5,31.6c-0.1,0-0.1-0.2-0.2-0.2c-0.1-0.1-0.1-0.1-0.2-0.1c-0.1,0.1-0.2,0.3-0.3,0.5l0,0.1
			c-0.2,0-0.2-0.2-0.4-0.3c-0.1-0.3,0.2-0.5,0.3-0.7c0.2,0,0.5,0.1,0.6,0.3C48.4,31.2,48.6,31.3,48.5,31.6z M47.7,32.2
			c-0.1,0.3,0.3,0.2,0.4,0.3l0,0.1c0,0.1-0.2,0.1-0.3,0.1c-0.3-0.1-0.6,0-0.8,0.1c-0.1,0-0.2,0-0.3-0.1c0-0.2,0.3-0.1,0.4-0.1
			c0.1-0.1,0.2-0.1,0.3-0.2c-0.3-0.2-0.7,0-1,0c-0.2,0.1-0.5,0.1-0.7,0c0,0,0-0.1,0.1-0.1c0.3,0.1,0.5-0.2,0.8-0.2
			c0.2-0.1,0.5,0,0.8,0C47.5,32.1,47.6,32.2,47.7,32.2z M46.9,31.7c-0.5,0-0.9,0.3-1.5,0.2c0,0-0.1,0-0.1-0.1c0-0.1,0.1-0.1,0.1-0.1
			c0.1-0.2,0.4-0.1,0.5-0.2c0.1,0,0.3,0,0.4-0.1c0.3,0,0.7,0,0.9,0.3l0,0.1C47.1,31.8,47,31.7,46.9,31.7z M45.6,33.1
			c0.6-0.2,1.2,0,1.6,0.3c0.4,0.5,0.5,1.3,0.2,1.9c-0.2,0.4-0.5,0.9-1,0.9c-0.6,0.3-1.2,0-1.7-0.4c-0.3-0.4-0.6-0.9-0.4-1.4
			C44.4,33.9,45,33.3,45.6,33.1z M43.7,42.8C43.7,42.8,43.7,42.9,43.7,42.8c0,1.2,0.1,2.3,0.2,3.6c0.1,1.1,0.1,2.2,0.2,3.2
			c0,0.2-0.2,0.3-0.3,0.5c-0.1,0.1-0.2,0.3-0.4,0.4c-0.2-0.3-0.1-0.7-0.2-1.1c-0.1-1.7-0.3-3.6-0.3-5.4c0.1-0.2,0.2-0.4,0.3-0.7
			C43.4,43.2,43.6,43,43.7,42.8z M44.2,49.9L44.2,49.9c0.3-0.3,0.6-0.6,0.8-0.8c0,0,0.1,0,0.1,0c-0.1,0.5-0.2,1-0.6,1.5
			c0,0.1,0,0.1,0.1,0.1c0.2-0.3,0.4-0.5,0.7-0.8c0.2-0.2,0.3-0.4,0.5-0.6c0.1,0.2,0,0.4,0,0.5c-0.1,0.8-0.4,1.5-1.2,1.9
			c-0.3,0-0.4,0.2-0.7,0.1c-0.2,0-0.4-0.2-0.5-0.4C43.4,50.9,43.8,50.4,44.2,49.9z M43.8,52.2l0.3-0.1c0,0,0.1,0,0.1,0.1
			c0.1,0.9,0.1,1.8,0.2,2.7c0,0.7,0.1,1.2,0.2,1.9c0.1,0.4,0,0.9,0.2,1.3c0.2,0.4-0.1,0.6-0.2,0.9c-0.3,0,0-0.4-0.2-0.6
			c-0.3-1.2-0.6-2.3-0.7-3.6c-0.1-0.6-0.1-1.2-0.2-1.8c-0.1-0.3,0-0.6-0.1-0.9C43.6,52.1,43.7,52.2,43.8,52.2z M43.6,60.8
			c0-0.4,0.1-0.8,0.3-1.1c0-0.2,0.2-0.2,0.4-0.3c0.2,0,0.4-0.2,0.6,0c0,0.1,0.2,0.2,0.1,0.4c-0.1,0.2-0.2,0.4-0.5,0.6
			c-0.1,0-0.3-0.1-0.3,0.1c0,0.3,0.4,0.1,0.5,0.3c0,0.2,0.1,0.5,0,0.7c-0.2,0-0.5,0-0.7,0.1c-0.1,0.1-0.2,0.2-0.3,0.1
			C43.4,61.5,43.5,61.1,43.6,60.8z M44.1,61.8c0.2-0.1,0.4-0.1,0.6,0c0,0.2-0.1,0.5-0.1,0.7c0,0.3,0.2,0.6,0.5,0.7v0
			c-0.2,0.1-0.4-0.1-0.6-0.2c-0.3-0.2-0.3-0.5-0.4-0.7C44.1,62.2,43.9,61.9,44.1,61.8z M46.1,62c0.2,0,0.4,0,0.6,0.2
			c0,0.2-0.1,0.4-0.1,0.7c0,0.3,0,0.6,0.2,0.8l0,0.1c-0.2,0-0.4-0.2-0.5-0.3c-0.3-0.3-0.6-0.6-0.6-1C45.7,62.2,45.9,62.1,46.1,62z
			 M55.5,61.8c-0.1,0,0-0.1,0-0.2c0.2-0.3,0.5-0.1,0.8-0.2l0,0c0.1,0.3-0.3,0.5-0.4,0.8c-0.1,0.1-0.1,0.2-0.1,0.2
			c-0.2,0.2-0.3,0.4-0.5,0.6l-0.1,0C55.3,62.7,55.7,62.3,55.5,61.8z M56.4,61.1c-0.1,0.1-0.1,0.1-0.2,0.1c-0.3-0.1-0.5,0.1-0.8,0.1
			c-0.1-0.2-0.2-0.5-0.2-0.7c0.2-0.2,0.4-0.3,0.5-0.5c0-0.1,0-0.1-0.1-0.1c-0.2,0-0.4,0.4-0.6,0.1c-0.1-0.2-0.2-0.5-0.3-0.8
			c0.2-0.1,0.4,0,0.5,0.1l0.3,0.1c0.5,0.1,0.5,0.7,0.8,1C56.4,60.6,56.7,60.9,56.4,61.1z M55.3,51c-0.6,0.1-1.2-0.2-1.6-0.6
			c-0.2-0.3-0.4-0.6-0.4-1c0-0.1,0.1-0.1,0.2-0.1c0.3,0.3,0.7,0.6,1.1,0.7l0.1-0.1c0.1,0,0.1,0.2,0.2,0.1c0,0,0.1-0.1,0-0.1
			c-0.5-0.4-0.8-0.9-0.9-1.4c0-0.1,0.1-0.1,0.2-0.1c0.5,0.3,1,0.7,1.5,1.1c0.2,0.3,0.4,0.6,0.3,0.9C55.7,50.7,55.5,50.9,55.3,51z
			 M55.6,41.2c0-0.1,0.1,0,0.1,0c0.2,0.2,0.3,0.4,0.5,0.6c0.4,0.3,0.7,0.7,1.2,0.8c0.1,0.2,0.4,0.2,0.5,0.3c0,0.2-0.1,0.4-0.3,0.4
			c-0.6,0-0.9-0.4-1.3-0.8C56,42.2,55.8,41.7,55.6,41.2z M57.9,40.3c-0.1,0-0.3,0-0.4-0.1c-0.4-0.2-0.2-0.6-0.3-1
			c0-0.3-0.1-0.6,0.1-0.8c0.1,0,0.1,0.1,0.1,0.1C57.6,39.1,57.9,39.6,57.9,40.3z M57.5,36.4c0,0.1-0.1,0-0.2,0
			c-0.1-0.2-0.4-0.3-0.5-0.6c0-0.1-0.2-0.1-0.2,0c0,0-0.1,0.1,0,0.1c0.3,0.4,0.4,0.8,0.7,1.2c0,0.2-0.2,0.4-0.3,0.6c0,0-0.1,0-0.1,0
			c-0.2-0.1-0.2-0.3-0.3-0.5c0-0.1-0.1-0.3-0.1-0.4c0.1-0.4-0.3-0.6-0.4-0.9c-0.2-0.2-0.5-0.2-0.6-0.4c0-0.1,0-0.2,0.1-0.2
			c0.3-0.3,0.6,0.1,0.9-0.1c0.1,0.1,0.3,0,0.4,0c0.2,0.1,0.4,0.3,0.6,0.3c0.2,0.1,0.2,0.3,0.2,0.5C57.6,36.2,57.5,36.3,57.5,36.4z
			 M57,32.7c0,0.1-0.1,0.3,0,0.4c0.1,0.1,0.3,0.1,0.3,0.3c0,0.1,0,0.2-0.1,0.2c-0.3,0-0.6,0.1-0.8,0.4c0,0.1,0,0.1,0.1,0.1
			c0.2,0,0.2-0.3,0.5-0.3c0.2,0,0.3-0.1,0.5,0c0,0.2,0.2,0.3,0.2,0.4c-0.1,0.3,0.1,0.7-0.1,1c-0.4,0-0.7-0.4-1.1-0.1
			c-0.2,0-0.5-0.2-0.7-0.1c-0.2-0.1-0.3-0.4-0.2-0.6c0.1-0.2,0.3-0.1,0.4-0.3c0.1,0,0.3,0.1,0.3,0c0-0.2-0.3-0.1-0.4-0.1
			c-0.1,0-0.2,0.1-0.4,0.1c-0.1-0.1-0.1-0.2-0.1-0.4c0.2-0.4,0.7-0.5,1-0.6c0,0,0.1-0.1,0-0.1c-0.4-0.3-0.9,0.1-1.2,0.3
			c-0.1,0-0.1,0-0.1-0.1c0.1-0.3,0.2-0.6,0.5-0.7c0,0,0.1-0.1,0.1-0.1c-0.1-0.1-0.2,0-0.3,0c-0.1,0.1-0.3,0.3-0.5,0.4
			c0-0.2,0.3-0.4,0.4-0.7c0,0,0-0.1-0.1-0.1c-0.3,0.2-0.5,0.5-0.9,0.7c-0.1,0-0.2,0-0.3,0c-0.1,0,0-0.1,0-0.2
			c0.2-0.3,0.5-0.6,0.6-0.9c0.2-0.6,0.9-0.5,1.3-0.9c0.2,0.1,0.4-0.1,0.5,0.1C56.2,31,56.1,31,56,31.1c-0.2,0.2-0.6,0.3-0.7,0.6
			c0.2,0.1,0.2-0.1,0.4-0.2c0.1-0.1,0.2-0.2,0.3-0.1c0.2,0.2,0.3-0.3,0.4,0.1c-0.1,0.2-0.3,0.2-0.4,0.3c-0.1,0.1-0.3,0.3-0.3,0.5
			c0,0.1,0.1,0,0.2,0c0.2-0.2,0.4-0.4,0.7-0.4C56.9,32.1,57,32.4,57,32.7z M53.5,29.8c0.2-0.3,0.6-0.2,0.8-0.4
			c0.7-0.2,1.4,0.1,2-0.4l0.7-0.5c0.3,0,0.4-0.3,0.6-0.4c0.1,0,0.2,0,0.2,0.1c-0.1,0.3-0.2,0.6-0.3,1c-0.1,0.5-0.6,0.6-1,0.9
			c-0.2,0.2-0.5,0.2-0.8,0.2c-0.6,0-1.1,0.3-1.4,0.8c0.1,0.2-0.1,0.3-0.2,0.3c-0.1,0.1-0.3,0.1-0.4,0.2c0.1,0.1,0.2,0,0.2,0.2
			c-0.3,0.3-0.8,0-1.1,0.3c0,0-0.1,0.1-0.1,0.1c0.1,0.1,0.3,0,0.3,0.1c-0.2,0.2-0.6,0.1-0.8,0.3c0,0.1,0,0.1,0.1,0.1
			c0.1,0,0.2-0.1,0.3,0c0,0.1-0.1,0.1-0.2,0.2c-0.3,0.1-0.6,0-0.8,0.2c0.1,0.1,0.3,0.1,0.4,0.2c-0.3,0.2-0.7,0.2-0.9,0.4
			c-0.2,0.1,0.1,0.7-0.3,0.5c-0.2-0.2-0.3-0.4-0.4-0.7c0.1-0.1,0-0.4,0.1-0.3c0.2,0.1,0.2,0.3,0.3,0.4c0.1,0,0.2-0.1,0.3-0.2
			c-0.2-0.3,0.3-0.3,0.4-0.5c0-0.3,0.3-0.2,0.4-0.3c0.3-0.1,0.5-0.1,0.8-0.2c0,0-0.1,0-0.1-0.1c0,0-0.1,0-0.1,0c0,0,0,0,0-0.1
			c0.3-0.4,0.8-0.3,1.2-0.4c0-0.1-0.2-0.1-0.1-0.2c0.3-0.2,0.8-0.1,0.9-0.5c0-0.1,0.1-0.2,0-0.2c-0.2,0.1-0.3,0.3-0.5,0.4
			c-0.2,0.2-0.4,0.3-0.6,0.4c0-0.1,0.1-0.2,0.2-0.3c0.3-0.3,0.5-0.7,0.7-1.2c0-0.1-0.1,0-0.2,0c-0.3,0.3-0.7,0.5-1,0.8
			c-0.1,0-0.2,0.1-0.2,0c-0.1-0.2,0.2-0.2,0.2-0.4C53.1,30.2,53.3,30,53.5,29.8z M50.2,31.6c-0.1-0.1-0.1-0.3-0.1-0.5
			c0,0-0.1,0-0.1,0c-0.1,0.1-0.2,0.3-0.2,0.4c0,0-0.1,0-0.1,0c-0.1-0.3,0-0.6,0.1-0.8c0.1-0.1,0.2-0.2,0.3-0.2
			c0.1,0.1,0.2,0.2,0.3,0.3C50.4,31.1,50.4,31.4,50.2,31.6z M51.2,31.2c-0.1-0.1-0.2,0.1-0.3,0.1c-0.1,0.1-0.2,0.3-0.3,0.4
			c-0.1,0-0.1,0-0.1-0.1c0-0.3,0.1-0.5,0.2-0.8c0.1-0.2,0.4-0.2,0.5-0.4c0.1-0.1,0.4-0.2,0.4,0.1c0,0.2,0.1,0.4,0.2,0.6
			c0,0.2-0.2,0.4-0.2,0.6c0,0-0.1,0.1-0.2,0.1C51.4,31.6,51.3,31.4,51.2,31.2z M51.5,28.9c0-0.3,0.3-0.2,0.5-0.3
			c0.3,0,0.7,0,0.9,0.3c0.1,0.1,0.1,0.2,0.1,0.4c-0.2,0.1-0.1,0.4-0.3,0.5c-0.3-0.1-0.2-0.4-0.4-0.6c-0.3-0.2-0.5,0.1-0.8,0.2
			C51.3,29.2,51.5,29,51.5,28.9z M51.8,29.5c0.1,0,0.1,0,0.2,0.1c0,0.4,0.5,0.7,0.1,1c-0.3,0-0.2-0.3-0.3-0.5
			c-0.2-0.2-0.4,0.2-0.6,0.1c-0.1,0-0.2-0.1-0.1-0.2C51.1,29.7,51.5,29.6,51.8,29.5z M49.7,28.9c0.2-0.4,0.6-0.4,1-0.4
			c0.2,0.2,0.2,0.4,0.4,0.5c0,0.1,0,0.3-0.1,0.4c-0.1,0-0.2-0.2-0.3-0.2C50.5,29,50.3,29,50.1,29c-0.1,0-0.2,0.2-0.3,0.1
			C49.7,29.1,49.7,29,49.7,28.9z M50.1,29.4c0.2-0.1,0.3,0.2,0.4,0.4c0,0.1,0.3,0.2,0.2,0.4c-0.1,0.1-0.1,0.2-0.2,0.2
			c-0.2-0.1-0.3-0.4-0.5-0.3c-0.1,0.1-0.2,0.2-0.3,0.2c-0.1-0.1-0.1-0.3-0.1-0.4C49.8,29.6,49.9,29.5,50.1,29.4z M49.6,33.3
			c0.2-0.1,0.4,0.1,0.5-0.1l0,0c0,0.2,0.2,0.5,0.1,0.7c0,0.1,0.1,0.2,0.1,0.4c-0.1,0-0.1-0.2-0.2-0.3c0-0.1-0.1-0.2-0.2-0.2
			c-0.2,0-0.1,0.5-0.3,0.2c-0.1-0.2,0.1-0.4-0.1-0.5c-0.1,0.2-0.2,0.3-0.3,0.5c-0.1,0-0.2-0.1-0.2-0.2c0.3-0.1-0.1-0.5,0.3-0.6
			C49.4,33.2,49.5,33.2,49.6,33.3z M49.4,31.3c-0.1,0-0.1-0.1-0.1-0.2c0-0.1-0.1-0.2-0.2-0.1C49,31.1,49,31.2,49,31.4l0,0
			c-0.2-0.2-0.3-0.4-0.2-0.7c0-0.2,0.2-0.3,0.3-0.4c0.1,0,0.2,0.1,0.3,0.2C49.5,30.8,49.5,31.1,49.4,31.3z M48.7,30.1
			c0,0.1-0.1,0.2-0.2,0.3c-0.1,0-0.2-0.1-0.2-0.1c-0.1-0.1,0-0.2,0-0.3c0.1-0.2,0.2-0.5,0.4-0.6c0.2,0,0.4,0.3,0.6,0.3
			c0.1,0.1,0.1,0.2,0.1,0.3C49.1,30.1,48.8,29.8,48.7,30.1z M48.7,28.4c0.1,0,0.3,0,0.4,0.1c0.1,0.1,0.1,0.3,0.3,0.5
			c0,0.1,0,0.2-0.1,0.2c-0.4,0.1-0.4-0.4-0.8-0.3c-0.1,0.1-0.3,0.3-0.4,0.5c-0.1,0-0.1,0.1-0.2,0.1c-0.1-0.1-0.2-0.2-0.2-0.3
			C47.9,28.8,48.2,28.4,48.7,28.4z M47.9,30c0,0.1,0.1,0.3,0,0.4c-0.2,0-0.5,0-0.6,0.3c-0.1,0.1-0.1,0.3-0.3,0.4
			c-0.1-0.1-0.2-0.2-0.3-0.4c0.1-0.2,0.2-0.5,0.3-0.7c0,0,0.1-0.1,0.1-0.1C47.5,29.9,47.7,30.1,47.9,30z M46.6,28.8
			c0.2,0,0.4,0,0.6,0.2c0.1,0.1,0.2,0.3,0.3,0.3c0.1,0,0.1,0.1,0.1,0.2c-0.1,0.1-0.2,0-0.3,0c-0.2,0-0.5-0.3-0.7,0.1
			c-0.1,0.1-0.1,0.3-0.2,0.3c-0.1-0.1-0.2-0.3-0.2-0.5C46.3,29.2,46.4,28.9,46.6,28.8z M41.5,28.9c0-0.3,0-0.5,0-0.8
			c0,0,0.1-0.1,0.1-0.1c0.3-0.1,0.2,0.3,0.4,0.4c0.1,0.3,0.4,0.6,0.7,0.6c0.6,0,1.2-0.1,1.8,0.1c0.4,0.1,0.8,0.4,1.1,0.8
			c0.1,0,0.1-0.1,0.2-0.1c0.1,0.1,0.4,0.2,0.3,0.4c0.3,0,0.4,0.4,0.7,0.6c-0.2,0.2,0.5,0.5-0.1,0.5c-0.4-0.2-0.8,0.1-1.2,0.1
			c-0.1,0-0.2,0-0.3-0.1l0-0.1c0.2-0.2,0.5-0.3,0.8-0.3c0.1,0,0-0.2,0.2-0.1c0.1,0.1,0.1,0.2,0.2,0.2c0,0,0-0.1,0-0.1
			c-0.2,0-0.2-0.3-0.4-0.3c-0.2,0-0.3,0-0.4-0.2c-0.1-0.3-0.4-0.4-0.6-0.5c-0.1-0.1-0.2-0.1-0.3-0.1c-0.1,0.1-0.1,0.1-0.1,0.2
			c0.2,0.3,0.4,0.6,0.7,0.8v0c-0.3,0-0.5-0.4-0.7-0.3c0,0-0.1,0.1,0,0.2c0.1,0.2,0.4,0.4,0.2,0.6c-0.2,0-0.3-0.2-0.4-0.3
			c0-0.3-0.3-0.3-0.5-0.4c-0.2-0.1-0.4,0-0.7,0c-0.2-0.1-0.4,0.1-0.6-0.1C42,30.2,41.5,29.6,41.5,28.9z M41.3,40
			c0.1-0.4,0-0.8,0.3-1.1c0.2,0,0.1,0.3,0.1,0.4c0.1,0.3,0.1,0.7,0.2,1c-0.1,0.2-0.3,0.3-0.5,0.3C41.2,40.5,41.3,40.2,41.3,40z
			 M43,39.5c0.1-0.1,0.2-0.1,0.2,0c0,0.3-0.1,0.6-0.2,0.9c-0.3,0.4-0.4,0.9-0.7,1.3c-0.2,0.1-0.4,0.4-0.7,0.4
			c-0.1-0.2-0.3-0.4-0.3-0.7C41.9,40.8,42.6,40.2,43,39.5z M41.8,43.2c-0.1,0.1-0.2,0.2-0.4,0.1c0-0.2-0.1-0.6,0.1-0.7
			c0.1-0.1,0.3-0.3,0.4-0.1C42,42.8,42,43.1,41.8,43.2z M42.2,43.1c0.3-0.4,0.7-0.7,0.9-1.2c0,0,0.1-0.1,0.1-0.1
			c-0.1,0.8-0.4,1.6-0.9,2.2c-0.2,0.3-0.6,0.4-0.9,0.5c-0.1,0-0.2-0.1-0.2-0.2c0-0.1-0.1-0.2-0.1-0.3C41.5,43.8,41.9,43.5,42.2,43.1
			z M40.1,42.7c0-0.3,0.1-0.5,0.4-0.7c0.1-0.1,0.3-0.2,0.5-0.2l0.2,0.3c0,0.4-0.4,0.5-0.7,0.8c-0.1,0-0.1,0.1-0.2,0.1
			C40.1,42.9,40.1,42.8,40.1,42.7z M40.3,46.6c-0.1,0-0.2-0.1-0.3-0.1c-0.1-0.1-0.2-0.3-0.2-0.5c0.1-0.2,0.4-0.3,0.5-0.5
			c0.3-0.2,0.5-0.5,0.8-0.8c0.1,0,0.3-0.1,0.4,0C41.3,45.4,40.9,46,40.3,46.6z M42.1,56c-0.4-1.3-0.8-2.6-1-4
			c-0.2-1.2-0.3-2.4-0.5-3.6c0.1-0.5,0-1.1,0-1.6c0.1-0.2,0.3-0.3,0.5-0.4c0,0,0.1,0,0.1,0.1c0,0.9,0.2,1.7,0.2,2.6
			c0.1,0.7,0.2,1.4,0.2,2c0,0.7,0.1,1.4,0.1,2.1c0.1,0.8,0.2,1.5,0.3,2.2C42,55.6,42.1,55.8,42.1,56L42.1,56z M42.4,55
			c-0.1-0.6-0.1-1.3-0.2-1.9c-0.2-1.2-0.2-2.5-0.3-3.7c-0.1-0.3-0.1-0.7-0.1-1.1c-0.1-0.8-0.1-1.6-0.2-2.3c-0.1-0.5,0.1-0.9,0.2-1.2
			c0.1-0.1,0.3-0.3,0.4-0.2c0.1,0.8,0,1.6,0.1,2.4c0.1,0.3,0.1,0.7,0.1,1c0.1,1.3,0.1,2.5,0.3,3.7c0.2,1.7,0.4,3.4,0.6,5.2
			c0.1,0.6,0.2,1.2,0.3,1.9c0,0-0.1,0.1-0.1,0C42.9,57.6,42.6,56.3,42.4,55z M56.5,55.4c-0.2,0.9-0.3,1.8-0.6,2.7
			c0,0.3-0.1,0.6-0.2,0.8c0,0-0.1,0-0.1,0c0-0.7,0.3-1.2,0.3-1.8c0.1-0.5,0.1-1,0.2-1.5c0.1-0.7,0.1-1.3,0.1-2
			c0.1-0.2,0.1-0.5,0.1-0.7c-0.1-0.5,0.1-1,0.1-1.5c0.1-0.5,0.2-1.1,0.2-1.6c0.1-1,0.2-1.9,0.2-2.9c0.1-0.3,0-0.7,0.1-0.9
			c0-0.3,0-0.5,0-0.8c0.1-0.2-0.2-0.7,0.2-0.8c0.1,0.1,0.3,0.2,0.4,0.3c0,0.3-0.1,0.6-0.1,0.9c0,0.5-0.1,1-0.1,1.6
			c0,0.8,0,1.5-0.1,2.2c-0.1,0.9-0.2,1.8-0.3,2.6C56.9,53.1,56.7,54.2,56.5,55.4z M58.7,45.9c-0.1,0.6,0,1.1-0.1,1.7
			c0,0.5-0.2,1-0.2,1.5c0,0.8-0.3,1.5-0.3,2.3c-0.1,0.8-0.3,1.5-0.5,2.3c-0.2,0.9-0.5,1.8-0.8,2.6c0,0-0.1,0-0.1,0
			c0.1-0.8,0.3-1.7,0.4-2.5c0.2-1,0.4-2.1,0.6-3.1c0.1-0.8,0.1-1.6,0.2-2.4c0.1-1,0.2-2,0.3-2.9c0.1-0.1,0.3,0.1,0.4,0.1
			C58.7,45.6,58.7,45.7,58.7,45.9z M59.3,45.4c-0.5-0.4-1-0.7-1.3-1.2c-0.1-0.1-0.2-0.3-0.2-0.5c0.1-0.1,0.1-0.2,0.2-0.1
			c0.2,0,0.3,0.3,0.6,0.3c0.1,0.1,0.1,0.2,0.1,0.3c0.2,0.2,0.5,0.5,0.7,0.7c0.1,0.1,0.2,0.2,0.1,0.4C59.5,45.3,59.4,45.5,59.3,45.4z
			"/>
		<path d="M42.1,29.1c0.2,0.2,0.5,0.2,0.8,0.2c0.3,0.1,0.6,0,0.8,0.2c0.1,0.1,0.3,0.2,0.3,0.5L44,30c-0.6-0.3-1.3,0-1.8-0.5
			c-0.2,0-0.3-0.2-0.3-0.4c0-0.1,0-0.1,0-0.2C42,28.9,42,29.1,42.1,29.1z"/>
		<path d="M57.4,29c0,0.1-0.1,0.3-0.3,0.4c-0.5,0.3-1.2,0.5-1.9,0.4c0,0,0-0.1,0-0.1c0.4-0.1,0.9-0.2,1.3-0.4
			C56.7,29.2,57,29,57.4,29L57.4,29z"/>
		<path d="M45.2,33.9c-0.1,0-0.8,1.1-0.1,1.7c0.9,0.8,2-0.6,1.8-0.9c-0.1-0.1-0.4,0.8-1.2,0.6C44.8,35.1,45.3,33.9,45.2,33.9z"/>
		<path d="M52.5,35.4c0,0.3,1.1,0.8,1.7,0.1c0.7-1.1-0.3-1.7-0.6-1.4c-0.1,0.1,0.6,0.4,0.3,1.1C53.4,35.9,52.5,35.2,52.5,35.4z"/>
	</g>
</g>
<rect class="st0" width="99.2" height="99.2"/>
</svg>
