<?xml version="1.0" encoding="utf-8"?>
<!-- Generator: Adobe Illustrator 22.0.1, SVG Export Plug-In . SVG Version: 6.00 Build 0)  -->
<svg version="1.1" id="UiBlogo_grayscale" xmlns="http://www.w3.org/2000/svg" xmlns:xlink="http://www.w3.org/1999/xlink" x="0px"
	 y="0px" viewBox="0 0 439.4 99.2" style="enable-background:new 0 0 439.4 99.2;" xml:space="preserve">
<style type="text/css">
	.st0{fill:none;}
	.st1{fill:#FFFFFF;}
</style>
<rect class="st0" width="439.4" height="99.2"/>
<g>
	<path class="st1" d="M360.7,42.1c-0.6-0.1-1.8-0.3-2.2-0.2c-0.1,0.1-0.2,0.2-0.3,0.5l-0.1,0.3c-0.1,0.1-0.2,0-0.2-0.1
		c0.1-0.4,0.2-0.8,0.2-1.2c0.1-0.4,0.1-0.7,0.2-1.1c0.1-0.1,0.2,0,0.3,0l0,0.3c0,0.3,0,0.5,0.2,0.6c0.3,0.2,1.5,0.4,2.1,0.5l1.2,0.2
		c0.9,0.2,1.8,0.5,2.3,1.2c0.4,0.5,0.5,1.3,0.4,2.1c-0.1,0.7-0.4,1.4-0.9,1.8c-0.5,0.5-1.3,0.6-2.6,0.4l-2.4-0.4
		c-1.1-0.2-1.3-0.2-1.4,0.4l-0.1,0.3c-0.1,0.1-0.2,0-0.2-0.1c0.1-0.5,0.2-0.9,0.3-1.3c0.1-0.4,0.1-0.8,0.2-1.3c0-0.1,0.2,0,0.2,0
		l0,0.2c-0.1,0.6,0.1,0.7,1.2,0.8l2.2,0.4c1.7,0.3,2.8,0,3.1-1.6c0.3-1.5-0.8-2.3-2.4-2.5L360.7,42.1z"/>
	<path class="st1" d="M367.2,33.7c0.3,0.2,1.4,0.8,1.6,0.9c0,0,0.1,0.1,0,0.2c-0.2,0-0.7,0.1-2,0.4l-3.6,0.8
		c-0.4,0.1-1.5,0.3-1.8,0.4l0,0c0.1,0.1,0.3,0.2,0.6,0.4l2,1.1c0.4,0.2,1.6,0.9,2,0.9c0.1,0,0.3-0.2,0.4-0.4l0.2-0.3
		c0.1,0,0.2,0.1,0.2,0.1c-0.2,0.4-0.4,0.7-0.6,1.1c-0.2,0.4-0.3,0.6-0.5,1c-0.1,0-0.2,0-0.2-0.1l0.1-0.3c0.1-0.2,0.1-0.4,0-0.5
		c-0.3-0.3-1.4-0.9-1.8-1.2l-2.6-1.5c-0.3-0.1-0.5-0.2-0.8-0.2c-0.2,0.1-0.4,0.2-0.5,0.4l-0.1,0.1c-0.1,0-0.2-0.1-0.2-0.1
		c0.2-0.4,0.5-0.9,0.6-1c0.1-0.1,0.2-0.3,0.2-0.4c0.6,0.1,2.4-0.3,2.9-0.4l1.5-0.3c1.1-0.2,1.8-0.4,2.5-0.6l0,0
		c0-0.1-0.2-0.1-0.4-0.3l-2-1.1c-0.4-0.2-1.6-0.9-2-0.9c-0.1,0-0.2,0.1-0.5,0.5l-0.1,0.1c-0.1,0-0.2-0.1-0.2-0.1
		c0.3-0.4,0.4-0.7,0.6-1.1c0.2-0.4,0.3-0.6,0.5-1c0.1,0,0.2,0,0.2,0.1l-0.1,0.1c-0.1,0.3-0.1,0.5-0.1,0.6c0.2,0.3,1.4,1,1.8,1.2
		L367.2,33.7z"/>
	<path class="st1" d="M367.2,28.4c-0.8-0.8-0.9-0.9-1.4-0.5l-0.2,0.2c-0.1,0-0.2-0.1-0.2-0.2c0.4-0.4,0.6-0.6,0.9-0.9
		c0.3-0.3,0.5-0.6,0.9-1c0.1,0,0.2,0.1,0.2,0.2l-0.2,0.2c-0.4,0.5-0.3,0.6,0.5,1.4l2.7,2.6c0.8,0.8,0.9,0.9,1.4,0.5l0.2-0.2
		c0.1,0,0.2,0.1,0.2,0.2c-0.4,0.4-0.6,0.6-0.9,0.9c-0.3,0.3-0.5,0.6-0.9,1c-0.1,0-0.2-0.1-0.2-0.2l0.2-0.2c0.4-0.5,0.3-0.6-0.5-1.4
		L367.2,28.4z"/>
	<path class="st1" d="M370.9,24.3c-0.5-0.4-0.8-0.5-1.2-0.3l-0.2,0.1c-0.1,0-0.2-0.1-0.1-0.2c0.3-0.1,0.6-0.3,0.9-0.6
		c0.4-0.2,0.7-0.5,1.1-0.7c0.1,0,0.2,0.1,0.2,0.2l-0.1,0.1c-0.3,0.3-0.3,0.4-0.3,0.4c0.1,0.1,0.5,0.5,1.2,1c1.1,0.8,2.1,1.5,3.2,2.3
		c-0.1-0.8-0.3-1.9-0.4-2.5c-0.1-0.8-0.3-2-0.4-2.5c0-0.2-0.1-0.3-0.1-0.4c0-0.1-0.2-0.1-0.5,0.1l-0.2,0.1c-0.1,0-0.2-0.2-0.1-0.2
		c0.3-0.1,0.6-0.3,0.9-0.6c0.3-0.2,0.6-0.4,0.8-0.6c0.1,0,0.2,0.1,0.2,0.2l-0.3,0.2c-0.2,0.2-0.3,0.3-0.3,0.6c0,0.6,0.1,1.5,0.3,2.7
		l0.2,1.4c0.2,1,0.4,2.3,0.5,2.9c0,0,0,0.1-0.1,0.1c0,0-0.1,0-0.1,0.1c-0.3-0.3-0.8-0.6-1.2-0.9L370.9,24.3z"/>
	<path class="st1" d="M379.7,20.2c-0.3-1.1-0.4-1.2-1-1.1l-0.2,0c-0.1,0-0.1-0.2-0.1-0.3c0.4-0.1,0.8-0.2,1.2-0.3l1.9-0.5
		c0.6-0.2,1.2-0.4,1.4-0.4c0.1,0.2,0.4,0.9,0.5,1.3c0,0.1-0.2,0.1-0.2,0.1c-0.3-0.4-0.5-0.8-1-0.7c-0.2,0-0.6,0.1-1,0.2l-0.7,0.2
		c-0.3,0.1-0.3,0.1-0.2,0.5l0.6,2c0.1,0.3,0.1,0.3,0.4,0.2l0.6-0.2c0.4-0.1,0.7-0.2,0.8-0.3c0.1-0.1,0.2-0.2,0.1-0.4l0-0.4
		c0-0.1,0.2-0.1,0.3-0.1c0.1,0.2,0.1,0.6,0.2,1c0.1,0.4,0.3,0.7,0.3,1c0,0.1-0.2,0.1-0.3,0.1l-0.2-0.4c-0.1-0.2-0.2-0.3-0.4-0.3
		c-0.2,0-0.4,0.1-0.8,0.2l-0.6,0.2c-0.3,0.1-0.3,0.1-0.3,0.4l0.4,1.4c0.2,0.5,0.3,0.9,0.5,1c0.2,0.1,0.4,0.1,1.3-0.1
		c0.8-0.2,1.1-0.3,1.2-0.5c0.2-0.2,0.3-0.6,0.4-1.2c0.1-0.1,0.2-0.1,0.3,0c0,0.4,0,1.2-0.1,1.5c-0.9,0.2-1.8,0.5-2.7,0.7l-0.9,0.3
		c-0.4,0.1-0.8,0.2-1.4,0.4c-0.1,0-0.1-0.2-0.1-0.2l0.3-0.1c0.6-0.2,0.6-0.4,0.3-1.4L379.7,20.2z"/>
	<path class="st1" d="M387.9,18.6c0-1,0-1.2-0.5-1.2l-0.3,0c-0.1-0.1-0.1-0.2,0-0.3c0.6,0,1.3-0.1,2.3-0.1c0.6,0,1.3,0.1,1.7,0.3
		c0.5,0.3,0.9,0.7,0.9,1.5c0,1-0.8,1.5-1.3,1.7c-0.1,0.1,0,0.2,0.1,0.3c0.8,1.4,1.4,2.2,2.1,2.8c0.2,0.2,0.4,0.3,0.7,0.3
		c0.1,0,0.1,0.1,0,0.1c-0.1,0-0.3,0.1-0.5,0.1c-0.9,0-1.4-0.3-2.2-1.3c-0.3-0.4-0.7-1.1-1-1.6c-0.2-0.2-0.3-0.3-0.7-0.3
		c-0.5,0-0.5,0-0.5,0.2l0,1.3c0,1.1,0,1.2,0.6,1.3l0.2,0c0.1,0.1,0,0.2,0,0.3c-0.5,0-0.8,0-1.2,0c-0.4,0-0.8,0-1.3,0
		c-0.1,0-0.1-0.2,0-0.3l0.3,0c0.6-0.1,0.6-0.2,0.6-1.3L387.9,18.6z M388.8,20.1c0,0.2,0,0.3,0,0.3c0,0,0.2,0.1,0.7,0.1
		c0.4,0,0.8,0,1.1-0.3c0.3-0.2,0.5-0.6,0.5-1.3c0-0.8-0.5-1.6-1.7-1.6c-0.7,0-0.7,0-0.7,0.3L388.8,20.1z"/>
	<path class="st1" d="M397.2,25.2c-0.8-0.3-1.3-0.7-1.4-0.9c-0.1-0.3,0-1,0.2-1.5c0.1-0.1,0.2,0,0.2,0c0,0.6,0.1,1.7,1.2,2
		c0.8,0.3,1.4-0.2,1.6-0.8c0.1-0.4,0.2-1-0.4-1.7l-0.8-0.9c-0.4-0.5-0.8-1.2-0.5-2.1c0.3-1,1.3-1.5,2.6-1.1c0.3,0.1,0.7,0.3,0.9,0.4
		c0.1,0.1,0.2,0.1,0.3,0.2c0,0.3-0.1,0.9-0.2,1.3c-0.1,0-0.2,0-0.3,0c0-0.5,0-1.3-1-1.6c-1-0.3-1.4,0.3-1.5,0.7
		c-0.2,0.6,0.2,1.2,0.5,1.5l0.6,0.8c0.5,0.6,0.9,1.4,0.6,2.3C399.6,25.2,398.5,25.7,397.2,25.2z"/>
	<path class="st1" d="M405.6,23c0.6-0.9,0.7-1.1,0.2-1.5l-0.2-0.2c0-0.1,0.1-0.2,0.2-0.2c0.4,0.3,0.7,0.5,1.1,0.7
		c0.4,0.2,0.7,0.4,1.1,0.7c0,0.1,0,0.2-0.1,0.2l-0.2-0.1c-0.6-0.3-0.7-0.1-1.2,0.8l-2,3.2c-0.6,0.9-0.6,1.1-0.2,1.5l0.2,0.2
		c0,0.1-0.1,0.2-0.2,0.2c-0.4-0.3-0.7-0.5-1.1-0.7c-0.4-0.2-0.7-0.4-1.1-0.7c0-0.1,0-0.2,0.1-0.2l0.2,0.1c0.6,0.3,0.7,0.1,1.2-0.8
		L405.6,23z"/>
	<path class="st1" d="M410,31.4c-0.8,0.7-0.9,0.9-0.5,1.4l0.2,0.3c0,0.1-0.1,0.2-0.2,0.2c-0.4-0.5-0.6-0.7-0.9-1
		c-0.3-0.3-0.5-0.6-1-1c0-0.1,0.1-0.2,0.2-0.2l0.3,0.3c0.4,0.4,0.6,0.3,1.4-0.4l3.4-3.2c0.2-0.2,0.2-0.2,0-0.5l-0.4-0.4
		c-0.3-0.3-0.7-0.7-1.1-0.8c-0.3,0-0.6,0.1-0.9,0.1c-0.1,0-0.2-0.2-0.1-0.2c0.5-0.2,1.1-0.5,1.4-0.8c0,0,0.1,0.1,0.1,0.1
		c-0.2,0.3,0,0.5,0.4,0.9l2.9,3.1c0.4,0.4,0.5,0.5,0.8,0.4c0.1,0,0.1,0.1,0.1,0.2c-0.4,0.2-1.1,0.7-1.3,1c-0.1,0-0.2-0.1-0.2-0.2
		c0.2-0.2,0.4-0.5,0.4-0.7c0-0.3-0.2-0.6-0.6-1.1l-0.5-0.5c-0.2-0.2-0.2-0.2-0.5,0L410,31.4z"/>
	<path class="st1" d="M415.6,38.5c0.2-0.2,0.2-0.2,0.1-0.5l-0.7-1.4c-0.1-0.2-0.2-0.3-0.4-0.3l-1.2,0.1c-0.5,0.1-0.8,0.1-0.9,0.2
		c-0.1,0.1-0.1,0.1-0.1,0.4l0.1,0.3c0,0.1-0.2,0.2-0.2,0.1c-0.1-0.3-0.2-0.5-0.4-1c-0.1-0.3-0.3-0.6-0.5-0.9c0-0.1,0.2-0.2,0.2-0.1
		l0.2,0.3c0.1,0.2,0.3,0.4,0.7,0.3c0.5,0,1.3-0.1,2.5-0.2l3-0.3c0.4,0,0.6-0.1,0.7-0.2c0.2,0.2,0.4,0.3,0.6,0.3c0,0.1,0,0.1,0,0.2
		c-0.4,0.3-0.7,0.7-1.1,1l-3.2,3.1c-0.7,0.7-0.8,0.9-0.6,1.3l0.1,0.3c0,0.1-0.2,0.1-0.2,0.1c-0.2-0.4-0.3-0.7-0.5-1.2
		c-0.2-0.5-0.4-0.8-0.5-1.1c0-0.1,0.1-0.2,0.2-0.1l0.2,0.3c0.1,0.2,0.2,0.3,0.3,0.2c0.1,0,0.3-0.2,0.4-0.4L415.6,38.5z M415.5,36.2
		c-0.3,0-0.3,0-0.1,0.3l0.6,1.2c0.1,0.3,0.2,0.3,0.4,0.1l1.3-1.2c0.2-0.2,0.4-0.4,0.5-0.5l0,0c-0.1,0-0.3,0-0.7,0L415.5,36.2z"/>
	<path class="st1" d="M414.9,45.6c-0.1-0.9,0.1-1.5,0.1-1.7c0.2-0.2,0.9-0.4,1.4-0.5c0.1,0,0.1,0.2,0.1,0.2c-0.5,0.2-1.5,0.8-1.3,2
		c0.1,0.9,0.8,1.2,1.4,1.1c0.5-0.1,1-0.2,1.3-1.1l0.5-1.1c0.3-0.6,0.8-1.3,1.6-1.4c1-0.1,1.9,0.5,2.1,1.9c0,0.3,0,0.7,0,1
		c0,0.1,0,0.3,0,0.4c-0.2,0.1-0.8,0.3-1.2,0.4c-0.1,0-0.1-0.2-0.1-0.3c0.5-0.2,1.1-0.6,1-1.6c-0.2-1-0.9-1.1-1.3-1.1
		c-0.6,0.1-1,0.7-1.1,1.1L419,46c-0.3,0.7-0.8,1.4-1.8,1.6C416,47.7,415.1,47,414.9,45.6z"/>
	<path class="st1" d="M363.8,57.3c0.7-0.3,0.9-0.4,0.8-0.8l-0.1-0.3c0-0.1,0.2-0.1,0.2-0.1c0.2,0.5,0.5,1.2,0.9,2.1
		c0.2,0.6,0.4,1.2,0.3,1.8c0,0.5-0.3,1-1,1.2c-0.7,0.3-1.2,0-1.7-0.5c-0.1,0-0.1,0.1-0.1,0.2c0.1,0.6-0.1,1.5-1.2,1.9
		c-1.1,0.4-2.2-0.1-2.9-1.9c-0.1-0.3-0.3-0.8-0.4-1.2c-0.2-0.4-0.3-0.8-0.4-1.1c0-0.1,0.2-0.2,0.2-0.1l0.1,0.2
		c0.3,0.5,0.4,0.5,1.4,0.1L363.8,57.3z M360.5,59.4c-0.4,0.1-0.8,0.3-1,0.6c-0.2,0.3-0.1,0.6,0,0.9c0.3,0.9,1,1.4,2,1
		c0.8-0.3,1.5-1,1-2.6c-0.2-0.5-0.3-0.5-0.5-0.5L360.5,59.4z M362.8,58.5c-0.3,0.1-0.3,0.1-0.1,0.6c0.4,1,0.9,1.4,1.8,1.1
		c1-0.4,1.1-1.2,0.8-2c-0.1-0.2-0.2-0.4-0.2-0.4c-0.1-0.1-0.1-0.1-0.3,0L362.8,58.5z"/>
	<path class="st1" d="M367,64.5c0.9-0.7,1-0.8,0.7-1.3l-0.1-0.1c0-0.1,0.2-0.2,0.2-0.1c0.3,0.4,0.5,0.7,0.7,1l1.2,1.6
		c0.4,0.5,0.8,1,0.9,1.1c-0.1,0.2-0.7,0.7-1,1c-0.1,0-0.2-0.1-0.2-0.2c0.3-0.4,0.5-0.7,0.3-1.2c-0.1-0.2-0.3-0.5-0.6-0.9l-0.5-0.6
		c-0.2-0.2-0.2-0.2-0.5,0l-1.7,1.3c-0.2,0.2-0.2,0.2,0,0.5l0.4,0.5c0.3,0.4,0.5,0.6,0.6,0.7c0.1,0.1,0.2,0.1,0.4,0l0.4-0.2
		c0.1,0,0.2,0.1,0.2,0.2c-0.2,0.2-0.6,0.4-0.9,0.6c-0.3,0.2-0.6,0.5-0.8,0.6c-0.1,0-0.2-0.1-0.2-0.2l0.3-0.3
		c0.1-0.1,0.2-0.3,0.1-0.5c-0.1-0.1-0.2-0.4-0.4-0.7l-0.4-0.5c-0.2-0.3-0.2-0.3-0.4-0.1l-1.2,0.9c-0.4,0.3-0.7,0.6-0.8,0.8
		c0,0.2,0,0.4,0.6,1.2c0.5,0.6,0.7,0.9,0.9,1c0.2,0.1,0.7,0.1,1.3,0c0.1,0,0.2,0.2,0.1,0.3c-0.3,0.2-1.1,0.4-1.5,0.5
		c-0.6-0.8-1.1-1.5-1.7-2.3l-0.6-0.8c-0.3-0.4-0.5-0.6-0.9-1.1c0-0.1,0.1-0.2,0.2-0.2l0.2,0.3c0.4,0.4,0.6,0.4,1.4-0.3L367,64.5z"/>
	<path class="st1" d="M372.1,70.4c0.6-0.8,0.7-1,0.4-1.3l-0.2-0.2c0-0.1,0.1-0.2,0.2-0.2c0.5,0.3,1.1,0.7,1.9,1.3
		c0.5,0.4,1,0.8,1.2,1.3c0.3,0.5,0.3,1.1-0.2,1.7c-0.6,0.8-1.5,0.8-2.1,0.6c-0.1,0-0.1,0.1-0.1,0.2c-0.1,1.6-0.2,2.6,0.1,3.5
		c0.1,0.2,0.2,0.5,0.4,0.7c0,0,0,0.1-0.1,0.1c-0.1,0-0.2-0.1-0.4-0.2c-0.7-0.5-1-1.1-1-2.3c0-0.5,0.1-1.3,0.1-1.9
		c0-0.3-0.1-0.5-0.4-0.7c-0.4-0.3-0.4-0.3-0.5-0.1l-0.8,1.1c-0.7,0.9-0.7,1-0.3,1.4l0.2,0.2c0,0.1-0.1,0.2-0.2,0.2
		c-0.4-0.3-0.6-0.5-1-0.8c-0.4-0.3-0.7-0.5-1.1-0.8c0-0.1,0-0.2,0.1-0.2l0.2,0.1c0.5,0.3,0.6,0.2,1.3-0.7L372.1,70.4z M371.9,72.1
		c-0.1,0.2-0.2,0.2-0.2,0.3c0,0,0.1,0.2,0.6,0.5c0.3,0.2,0.7,0.4,1,0.4c0.4,0,0.8-0.2,1.2-0.7c0.5-0.7,0.5-1.6-0.4-2.3
		c-0.5-0.4-0.6-0.4-0.7-0.1L371.9,72.1z"/>
	<path class="st1" d="M382.7,80.4c-0.1,0.4-0.2,0.7,0,0.8c0,0,0,0.1,0,0.1c-0.1,0-0.3-0.1-0.5-0.1c-0.6,0-1.3-0.2-1.9-0.3
		c-1.2-0.4-2.2-1.1-2.7-2.1c-0.4-0.8-0.5-1.7-0.2-2.6c0.3-0.8,0.8-1.6,1.7-2.1c0.9-0.5,2-0.6,3.5-0.1c0.6,0.2,1.1,0.5,1.2,0.6
		c0.2,0.1,0.5,0.3,0.6,0.3c-0.1,0.3-0.2,0.9-0.3,1.5c-0.1,0.1-0.2,0-0.3-0.1c0.1-1.2-0.6-1.8-1.6-2.1c-1.9-0.6-3.2,0.5-3.7,2
		c-0.6,1.9-0.1,3.7,1.9,4.4c0.6,0.2,1,0.2,1.2,0.1c0.1-0.1,0.2-0.2,0.3-0.5l0.1-0.4c0.3-0.8,0.3-0.9-0.3-1.2l-0.4-0.2
		c-0.1-0.1,0-0.2,0.1-0.2c0.3,0.1,0.8,0.3,1.4,0.5c0.4,0.1,0.7,0.2,1.1,0.3c0.1,0.1,0,0.2-0.1,0.3l-0.2,0c-0.4-0.1-0.5,0.2-0.7,0.7
		L382.7,80.4z"/>
	<path class="st1" d="M388,76.8c0-1.1,0-1.2-0.6-1.3l-0.2,0c-0.1,0,0-0.2,0-0.3c0.5,0,0.8,0,1.2,0l2,0c0.7,0,1.3,0,1.4,0
		c0.1,0.2,0.1,0.9,0.2,1.4c0,0.1-0.2,0.1-0.3,0c-0.2-0.5-0.2-0.9-0.8-1c-0.2-0.1-0.6-0.1-1-0.1h-0.8c-0.3,0-0.3,0-0.3,0.4l0,2.1
		c0,0.3,0,0.3,0.3,0.3h0.6c0.4,0,0.8,0,0.9-0.1c0.1,0,0.2-0.1,0.3-0.4l0.1-0.4c0.1-0.1,0.2-0.1,0.3,0c0,0.3,0,0.7,0,1.1
		c0,0.4,0,0.8,0,1c0,0.1-0.2,0.1-0.3,0l-0.1-0.4c0-0.2-0.1-0.3-0.3-0.4c-0.1,0-0.4-0.1-0.8-0.1h-0.6c-0.3,0-0.3,0-0.3,0.3l0,1.5
		c0,0.6,0,0.9,0.2,1.1c0.1,0.1,0.3,0.2,1.3,0.2c0.8,0,1.1,0,1.3-0.2c0.2-0.1,0.5-0.5,0.7-1c0.1-0.1,0.2,0,0.3,0.1
		c-0.1,0.4-0.3,1.2-0.5,1.5c-0.9,0-1.9,0-2.8,0h-0.9c-0.5,0-0.8,0-1.4,0c-0.1,0-0.1-0.2,0-0.3l0.3,0c0.6-0.1,0.7-0.2,0.7-1.3
		L388,76.8z"/>
	<path class="st1" d="M402.3,75.1c-0.2-0.5-0.6-1.7-0.6-2.1c0-0.1,0.2-0.2,0.5-0.4l0.1-0.1c0-0.1,0-0.2-0.1-0.2
		c-0.3,0.1-0.6,0.2-1,0.4c-0.4,0.1-0.7,0.3-1.2,0.4c-0.1,0.1,0,0.2,0.1,0.3l0.2,0c0.4-0.1,0.6-0.1,0.7,0c0.3,0.2,0.8,1.5,1,2
		l0.8,2.1c0.1,0.2,0.1,0.4,0.1,0.4l0,0c-0.6-0.3-1.3-0.7-2.3-1.2l-1.4-0.7c-0.5-0.2-2.1-1.1-2.5-1.5c-0.1,0.1-0.3,0.1-0.4,0.2
		c-0.2,0.1-0.7,0.3-1.1,0.4c-0.1,0.1,0,0.2,0.1,0.3l0.2,0c0.2-0.1,0.5-0.1,0.7,0c0.3,0.1,0.4,0.4,0.5,0.6l1.1,2.8
		c0.2,0.5,0.6,1.7,0.6,2.1c0,0.1-0.1,0.2-0.4,0.4l-0.3,0.1c0,0.1,0,0.2,0.1,0.2c0.3-0.1,0.6-0.3,1-0.4c0.4-0.1,0.7-0.3,1.2-0.4
		c0-0.1,0-0.2-0.1-0.3l-0.3,0.1c-0.3,0.1-0.5,0.1-0.6,0c-0.3-0.2-0.8-1.5-0.9-2l-0.8-2.1c-0.1-0.3-0.2-0.5-0.2-0.7l0,0
		c0.3,0.1,1.3,0.7,1.6,0.9l3.2,1.7c1.2,0.7,1.6,0.9,1.8,1c0.1,0,0.1-0.1,0.1-0.2c-0.1-0.2-0.6-1.4-0.7-1.7L402.3,75.1z"/>
	<path class="st1" d="M410.6,74.9c-0.7,0.6-1.3,0.7-1.5,0.8c-0.2-0.1-0.8-0.6-1.2-0.9c0-0.1,0.1-0.2,0.2-0.2c0.5,0.3,1.5,0.8,2.4,0
		c0.7-0.6,0.6-1.3,0.2-1.8c-0.3-0.4-0.7-0.7-1.6-0.6l-1.2,0.1c-0.6,0.1-1.5,0-2-0.7c-0.6-0.8-0.6-1.9,0.5-2.8
		c0.2-0.2,0.6-0.4,0.8-0.5c0.1-0.1,0.3-0.1,0.3-0.2c0.2,0.1,0.7,0.5,1,0.9c0,0.1-0.1,0.2-0.2,0.2c-0.4-0.3-1.1-0.6-1.9,0
		c-0.8,0.7-0.5,1.3-0.2,1.7c0.4,0.5,1.1,0.5,1.5,0.4l1-0.1c0.8-0.1,1.7-0.1,2.3,0.7C411.8,72.8,411.6,74,410.6,74.9z"/>
	<path class="st1" d="M411.7,65.7c-0.9-0.6-1.1-0.7-1.5-0.3l-0.2,0.2c-0.1,0-0.2-0.1-0.2-0.2c0.3-0.4,0.5-0.7,0.8-1.1
		c0.2-0.3,0.4-0.6,0.7-1.1c0.1,0,0.2,0.1,0.2,0.1l-0.1,0.2c-0.3,0.5-0.2,0.7,0.7,1.3l3,2.2c0.9,0.6,1,0.7,1.5,0.2l0.2-0.2
		c0.1,0,0.2,0.1,0.2,0.2c-0.3,0.4-0.5,0.7-0.8,1c-0.3,0.4-0.5,0.7-0.7,1.1c-0.1,0-0.2,0-0.2-0.1l0.1-0.2c0.3-0.5,0.2-0.7-0.7-1.3
		L411.7,65.7z"/>
	<path class="st1" d="M420.3,61.3c-0.3,0.8-0.8,1.2-0.9,1.4c-0.3,0-1-0.1-1.5-0.3c-0.1-0.1,0-0.2,0.1-0.2c0.6,0,1.7,0,2.1-1.1
		c0.3-0.8-0.1-1.4-0.7-1.7c-0.4-0.2-0.9-0.3-1.7,0.3l-1,0.7c-0.5,0.4-1.3,0.7-2.1,0.4c-0.9-0.3-1.4-1.4-0.9-2.6
		c0.1-0.3,0.3-0.6,0.5-0.9c0.1-0.1,0.2-0.2,0.2-0.3c0.3,0,0.9,0.1,1.3,0.3c0,0.1,0,0.2-0.1,0.3c-0.5,0-1.3,0-1.6,0.9
		c-0.4,1,0.2,1.4,0.7,1.6c0.6,0.2,1.2-0.1,1.5-0.4L417,59c0.6-0.5,1.4-0.9,2.3-0.5C420.4,58.9,420.8,60,420.3,61.3z"/>
	<path class="st1" d="M389.8,14.2c-19.6,0-35.4,15.9-35.4,35.4c0,19.6,15.9,35.4,35.4,35.4c19.6,0,35.4-15.9,35.4-35.4
		C425.2,30,409.3,14.2,389.8,14.2z M389.8,84c-19,0-34.4-15.4-34.4-34.4c0-19,15.4-34.4,34.4-34.4c19,0,34.4,15.4,34.4,34.4
		C424.1,68.6,408.7,84,389.8,84z"/>
	<path class="st1" d="M398.1,66.8c-0.7,0.5-1.2,1.3-1.5,2c0.7,0.5,2.2,1.2,4.7,1.6c1.1-0.6,2-1.2,3-2c-0.9-0.2-1.8-0.7-2.4-1
		C400.9,66.7,399.5,65.7,398.1,66.8z"/>
	<path class="st1" d="M381.6,62.1c-0.9-0.2-1.3-0.2-2.6,0.2c-2.2,0.7-5.7,4.6-5.7,4.6c1,1,2.2,1.9,3.4,2.7c1-1.2,3.5-4.1,5.9-4.1
		c1.3,0,2,0.5,3,1.2c0.1-0.1,0.2-0.3,0.3-0.4C383.9,65.2,381.6,62.1,381.6,62.1z"/>
	<path class="st1" d="M389.1,65.5c-1.1,0.1-1.8,1-2.3,1.9c2,1.4,3.8,3,6.4,3.7c2,0.6,2.8,0.8,4.9,0.9c0.9-0.3,1.8-0.7,2.7-1.2
		c-1.3-0.2-3-0.8-4.4-1.5C394,68.2,391.2,65.2,389.1,65.5z"/>
	<path class="st1" d="M383,66.7c-3,0-4.2,2.5-5.1,3.6c3.5,2,7.6,3.2,11.9,3.2c2.3,0,4.5-0.3,6.6-0.9c-1.3-0.1-3-0.4-4.4-1
		C388.6,70.2,385.1,66.7,383,66.7z"/>
	<path class="st1" d="M404.2,64.6c-2-2.5-3.5-3-4.3-2.8c-0.8,0.2-0.6,0.8-1.5,1.8c-0.8,1-2.7,2.1-3.1,2.3c0.3,0.3,0.7,0.8,0.8,0.9
		c0.9-0.9,2.2-1.7,3.3-1.7c2.1,0,2.7,1.7,5.5,2.7c0.6-0.5,1.2-1,1.7-1.5C406.7,66.4,405.4,66.1,404.2,64.6z"/>
	<path class="st1" d="M399.6,44.1c-0.1-0.1,0-0.3-0.1-0.4c-0.1-0.4-0.3-0.8-0.3-1.3c-0.1-0.3,0.2-0.4,0.4-0.5c0.1-0.3,0.1-0.6,0-0.8
		c-0.1-0.4-0.7-0.5-0.7-1c0-0.3-0.2-0.6-0.2-1c-0.2-0.5-0.1-1.1-0.2-1.6c-0.1-0.6-0.1-1.2-0.2-1.8c-0.1-0.7-0.2-1.4-0.4-2.1
		c-0.1-0.6-0.3-1.2-0.6-1.7c0-0.4-0.4-0.7-0.2-1.1c0.3-0.5,0.6-1,0.8-1.5c0.2-0.3,0.1-0.7,0.2-1.1c0-0.3,0.1-0.6,0-0.9
		c-0.1,0-0.1,0-0.1,0c-0.1,0.5-0.7,0.7-1.1,1c-0.5,0.2-1.2,0.1-1.9,0.2c-0.4,0-0.7,0.4-1.2,0.1c-0.2-0.2-0.4-0.2-0.7-0.3
		c-0.5,0-1,0-1.4,0c-0.7,0-1.2-0.4-1.9-0.3c-0.9,0-1.6,0.4-2.5,0.3c-0.8-0.2-1.6,0.1-2.2,0.4c-0.2,0-0.5-0.2-0.8-0.2
		c-0.7-0.3-1.6,0.2-2.1-0.3c-0.3-0.3-0.5-0.6-0.5-1c-0.1,0.1-0.2,0.2-0.2,0.3c-0.2,0.3-0.3,0.6-0.3,0.9c-0.1,0.4,0,0.9,0.1,1.3
		c0.1,0.7,0.6,1.3,0.5,2c-0.1,0.3-0.3,0.7-0.4,1c-0.3,0.3-0.2,0.8-0.3,1.3c-0.3,0.8-0.1,1.6,0,2.5c-0.3,1-0.4,2-0.5,3
		c-0.1,0.7,0,1.4-0.3,2c-0.4,0.4-0.7,0.7-0.6,1.3c0,0.3,0.2,0.5,0.3,0.7c0.1,0.5,0.1,1.1,0,1.6c0,0.4-0.4,0.6-0.5,0.9
		c-0.1,0.4,0.2,0.6,0.4,0.8c0.1,0.2,0.1,0.6,0.2,0.8c0.1,0.7,0.2,1.3,0.3,2c0.2,1,0.3,2,0.5,2.9c0.2,1.2,0.5,2.3,0.8,3.4
		c0.3,0.8,0.5,1.7,0.8,2.5c0.2,0.7,0.6,1.3,0.6,2c0,0.1,0,0.2,0.1,0.2c0,0.5-0.4,0.8-0.3,1.3c0,0,1.5,2.6,3.2,3.7
		c0.7-0.8,1.7-1.5,3-1.5c2.1,0,4,2.1,6,3.7c0.1-0.2,0.3-0.3,0.5-0.5c-0.7-0.9-3.6-4.3-6-4.7c0,0,0.2-0.5,0-0.7
		c-0.2-0.3-0.2-0.5-0.2-0.8c0-0.1-0.1-0.4,0-0.5c0.4,0.1,0.5,0.5,0.7,0.8c0,0,0.1,0,0.1,0c0,0,0.1,0,0.1-0.1c0-0.4,0.5-0.6,0.7-0.8
		c0.1,0,0.1,0,0.2,0.1c0.1,0.4,0,0.9,0.3,1.2c0.1,0.1,0,0.2-0.1,0.3c0,0.3-0.2,0.2-0.2,0.2c1.8,0.9,2.8,1.9,3.8,3.1
		c0.7-0.5,3.2-2.1,3.1-3.7c0-0.5-0.3-0.5-0.4-0.8c-0.2-0.2-0.4-0.4-0.5-0.7c-0.3-0.5-0.5-1.1-0.4-1.8c0.2-0.5,0.2-1,0.4-1.5
		c0.3-0.9,0.5-1.8,0.7-2.7c0.3-1.2,0.7-2.5,0.8-3.8c0.2-0.4,0.2-0.9,0.3-1.4c0.2-0.4,0.1-1,0.2-1.5c0.1-0.4,0-0.8,0.2-1.1
		c0.1-0.2,0-0.4,0.1-0.6c0-0.3,0.3-0.2,0.3-0.5c0.2-0.1,0.3-0.4,0.4-0.5C400.2,44.7,399.8,44.4,399.6,44.1z M398.4,40.6
		c0.2,0.1,0.4,0.1,0.5,0.3c0.2,0.1,0.2,0.3,0.3,0.5c0,0.1,0,0.3-0.1,0.3c-0.4,0-0.7-0.2-0.9-0.4C398.1,41,398.3,40.8,398.4,40.6z
		 M396.3,45.5c0,0.6,0,1.2-0.1,1.8c-0.1,0.1,0,0.2,0,0.3c-0.1,0.6,0,1.3-0.1,1.9l-0.1,0c-0.2-0.3-0.7-0.4-0.7-0.8
		c0.3-1,0.2-2.2,0.3-3.3c0.1-0.9,0.1-1.9,0-2.8c0,0,0-0.1,0.1-0.1c0.3,0.1,0.4,0.4,0.7,0.5C396.4,43.9,396.3,44.6,396.3,45.5z
		 M382.7,37.6c-0.3,0-0.3-0.3-0.4-0.5c-0.1-0.1-0.1-0.3-0.1-0.4c0.1-0.1,0.1-0.2,0.1-0.3c-0.1-0.1-0.3,0-0.3-0.2
		c0-0.2-0.1-0.5,0.2-0.6c0.2-0.1,0.6,0,0.8-0.2c0,0,0-0.1-0.1-0.1c-0.3,0-0.5,0.1-0.7,0.2c-0.1,0-0.1-0.1-0.1-0.2
		c0-0.7-0.1-1.3,0.1-1.8c0-0.1-0.1-0.3,0-0.4c0.3-0.1,0.4,0.4,0.7,0.3l0,0c-0.2-0.2-0.4-0.4-0.6-0.4c-0.1-0.2,0-0.5,0-0.7
		c0.1-0.1,0.1-0.2,0.2-0.1c0.2,0.1,0.3,0.3,0.5,0.4c0.1,0,0.1-0.1,0.1-0.2c-0.2-0.3-0.8-0.3-0.5-0.8c0-0.2,0.1-0.4,0.3-0.4
		c0.2,0.1,0.3,0.3,0.5,0.4l0.1,0c-0.2-0.2-0.3-0.4-0.2-0.6c0.1-0.1,0.3,0.1,0.4,0.1l0.2,0.1c0.2,0.1,0.5,0.2,0.5,0.5
		c0.2,0.3,0.2,0.6,0.5,0.8c0.1,0.2,0.2,0.3,0.3,0.4c-0.1,0.1-0.2,0.1-0.2,0c-0.2-0.2-0.3-0.4-0.5-0.6c-0.1,0-0.1,0-0.1,0.1
		c0.1,0.2,0.1,0.5,0.3,0.7l0,0.2c-0.3,0-0.7-0.3-0.9-0.5c0,0-0.1-0.1-0.2,0c-0.1,0.1,0,0.2,0,0.2c0.2,0.3,0.3,0.6,0.6,0.7
		c0.1,0,0.1,0.2,0,0.2c0,0.2-0.2,0.1-0.3,0.1c-0.2-0.2-0.4-0.4-0.6-0.5l-0.1,0c0,0.2,0.2,0.3,0.2,0.4c0.2,0.3,0.6,0.3,0.5,0.7
		c0,0.1,0,0.2-0.1,0.2c-0.5-0.1-1.2-0.3-1.6,0.2c0,0.1,0,0.1,0.1,0.1c0.5,0,0.9,0,1.3,0.3c0.1,0.1,0.2,0.2,0.1,0.3
		c-0.1,0-0.2,0-0.3,0.1c-0.1,0.1-0.3,0.2-0.5,0.3c0,0,0,0.1,0,0.1c0.2-0.1,0.5-0.2,0.7-0.3c0.1,0,0.2,0,0.2,0.1
		c0,0.1-0.1,0.1-0.2,0.2c-0.2,0.2-0.5,0.3-0.5,0.6l0.1,0c0.3,0,0.5-0.5,0.8-0.4c0.1,0,0.1,0.1,0.1,0.2c-0.4,0.3-1,0.5-1.1,1.1
		c0,0,0,0.1,0,0.1c0.1,0,0.1-0.1,0.2-0.2c0.4-0.3,0.7-0.6,1.2-0.7c0,0,0.1,0,0.1,0.1c0,0.2-0.4,0.4-0.4,0.6
		c-0.1,0.2-0.1,0.4-0.2,0.6c0,0,0.1,0.1,0.1,0c0.2-0.3,0.4-0.8,0.8-1c0,0.1,0.1,0,0.2,0.1c0.2,0,0.5,0.1,0.6,0.3
		c0,0.5-0.2,1.1,0,1.5c0.1-0.1,0-0.2,0-0.3c0-0.4,0.2-0.6,0.3-1c0-0.1,0.2-0.1,0.2-0.1c0.2,0.1,0.2,0.3,0.4,0.4c0.1-0.1,0-0.4,0-0.5
		c0.1-0.1,0.2-0.1,0.3-0.1c0,0,0.1,0,0.2,0c0.1-0.1,0-0.2,0-0.2c0.2-0.2,0.3-0.6,0.7-0.5l0.1,0.1c0,0.2,0,0.5-0.1,0.7
		c-0.1,0-0.1-0.2-0.3-0.1c-0.1,0.1,0,0.2,0,0.3c0.1,0.2,0.2,0.4,0.3,0.6c0,0.1,0.1,0.1,0,0.2c-0.3,0-0.4-0.3-0.5-0.4
		c-0.1-0.1-0.2,0-0.2,0.1c0,0.3,0.2,0.6,0.4,0.8c0.1,0,0.2,0.1,0.2,0.1c0,0.1-0.1,0.2,0,0.3l0.1,0.2c-0.1,0.1-0.3,0-0.5-0.1
		c-0.3-0.2-0.6-0.6-0.7-1c0,0-0.1-0.1-0.1,0c-0.1,0.3,0,0.5,0.2,0.7c0.2,0.1,0.3,0.3,0.3,0.5c-0.1,0.1-0.2,0.1-0.3,0.1
		c-0.3-0.2-0.3-0.6-0.3-0.9c0,0-0.1-0.1-0.1,0c-0.1,0.2-0.1,0.4-0.1,0.5c0,0.2,0.1,0.4-0.1,0.5c-0.2,0.1-0.4,0-0.6,0.1
		c-0.2-0.1-0.2-0.4-0.2-0.6c0-0.1-0.1,0-0.1,0c-0.2,0.1-0.2,0.6-0.5,0.5c-0.2-0.1-0.5-0.2-0.7-0.5c-0.1-0.3,0.2-0.4,0.2-0.7
		c0.1-0.2,0.3-0.3,0.4-0.6c-0.1-0.1-0.3,0.1-0.4,0.2c-0.2,0.3-0.4,0.6-0.5,0.9c0,0.1-0.1,0.1-0.2,0.1c-0.3-0.3-1-0.5-0.9-1
		c0.1-0.1,0.1-0.2,0.2-0.3C382.8,37.3,382.8,37.5,382.7,37.6z M389.7,38.7c0,0,0.1,0,0.1,0c0.1-0.2,0.1-0.6,0.1-0.8
		c0-0.7,0.1-1.4,0.2-2c0.1-0.1,0-0.2,0.2-0.3c0.2,0,0.5,0.1,0.6,0.3c0.1,0.9,0,1.9-0.3,2.7c-0.1,0.4-0.4,0.7-0.6,1.1
		c-0.1,0.1-0.1,0.4-0.4,0.4c-0.6-0.8-1-1.8-1-2.9c0-0.4-0.2-1,0.1-1.3c0.3-0.1,0.5-0.4,0.8-0.3l0,0.1
		C389.6,36.6,389.4,37.7,389.7,38.7z M392.3,41.6c-0.5-0.2-1-0.7-1-1.3c0-0.1,0.1-0.1,0.1,0l0.5,0.5c0.4,0.2,0.8,0.5,1,0.9
		c0,0.1,0.1,0.3-0.1,0.4c-0.2,0.2-0.4,0.3-0.7,0.3c-0.5-0.1-1-0.5-1.2-0.9c-0.1-0.3-0.1-0.7,0-1c0.2,0,0.1,0.2,0.2,0.3
		c0.2,0.4,0.6,1,1.1,1.1C392.3,41.6,392.3,41.6,392.3,41.6z M392.1,36.9c-0.1,0.1-0.2,0.2-0.3,0.3c-0.1-0.2,0.1-0.3,0.1-0.5
		c0,0,0-0.1,0-0.1c-0.1-0.1-0.2,0-0.2-0.2c0-0.1,0-0.1,0-0.2l0.2,0c0.2,0.2,0.5,0.5,0.8,0.7c0,0.2,0,0.4-0.1,0.6
		c0,0.2-0.2,0.4-0.2,0.6c0,0.1,0.1,0.1,0.1,0c0.2-0.3,0.3-0.6,0.6-0.9c0.3-0.1,0.6,0,0.9,0c0.2,0.1,0.1,0.4,0.2,0.6
		c0,0.1,0,0.3,0.1,0.4c0.2,0,0.2-0.3,0.2-0.4c0.1-0.3,0-0.5,0-0.8c0,0,0-0.1,0-0.2c0.1-0.1,0.2-0.1,0.3,0c0.2,0.1,0.3,0.4,0.5,0.5
		c0.1,0,0-0.1,0-0.2c0-0.2-0.3-0.4-0.3-0.6c0-0.1,0.1-0.1,0.2-0.1c0.2,0.1,0.1,0.4,0.3,0.5c0.1,0,0-0.1,0-0.2
		c-0.1-0.2-0.2-0.4-0.2-0.6c0.1-0.1,0.2,0,0.2,0c0.3,0.1,0.5,0.2,0.8,0.4c0.3,0.2,0.3,0.6,0.4,0.9c-0.1,0.3,0.2,0.7-0.1,0.9
		c-0.2,0.1-0.4,0.3-0.6,0.4c-0.1-0.1-0.1-0.2-0.2-0.3c-0.2-0.2-0.3-0.7-0.6-0.6c-0.1,0.1,0.1,0.3,0.1,0.5c0,0.3,0.3,0.6,0.1,0.9
		c-0.3-0.1-0.4,0.3-0.7,0.2c-0.3-0.1-0.6,0.5-0.9,0c0-0.4,0-0.8-0.1-1.3c-0.1-0.1-0.1-0.3-0.2-0.4c-0.1,0.1,0,0.3-0.1,0.5
		c0,0.4-0.1,0.8-0.3,1.1c-0.1,0.1-0.2,0.2-0.3,0.1c0,0-0.1,0-0.1-0.1c0-0.2,0.1-0.4,0.1-0.6c0-0.1-0.1,0-0.1,0
		c-0.2,0.3-0.5,0.7-0.9,0.6c-0.1-0.1-0.1-0.1-0.2-0.1c0.1-0.2,0.4-0.4,0.4-0.6c-0.2,0-0.3,0.2-0.5,0.3
		C391.3,38,392.1,37.6,392.1,36.9C392.1,36.9,392.1,36.9,392.1,36.9z M392.1,33.6c0.3-0.4,0.8-0.5,1.3-0.6c0.5,0,1.1,0.1,1.4,0.5
		c0.4,0.5,0.5,1.2,0.3,1.8c-0.3,0.6-0.9,1.1-1.6,1.1c-0.3,0.1-0.5-0.1-0.8-0.2c-0.4-0.2-0.5-0.6-0.7-0.9
		C391.7,34.7,391.8,34.1,392.1,33.6z M397.3,41.6c0,0,0.1-0.1,0.2-0.1c0.2,0,0.3,0,0.5,0.1c0.1,0.2,0.2,0.5,0.1,0.7
		c-0.3,0.1-0.5,0-0.7-0.2C397.2,41.9,397.3,41.7,397.3,41.6z M397.5,41.2c-0.3-0.1-0.6-0.4-0.8-0.6c-0.1-0.3-0.3-0.5-0.3-0.8
		c0-0.2-0.1-0.4,0-0.6h0c0.2,0.5,0.6,0.9,1,1.3c0.1,0.1,0.3,0.1,0.4,0.3C397.7,40.9,397.7,41.1,397.5,41.2z M395.1,47.4
		c-0.3,0.1-0.5-0.3-0.8-0.4c-0.3-0.4-0.6-0.8-0.6-1.3c0,0,0.1-0.1,0.1,0c0.2,0.3,0.4,0.7,0.8,0.8c0.1,0,0.1,0,0.1-0.1
		c-0.1-0.3-0.3-0.6-0.2-0.9c0.2,0,0.3,0.3,0.6,0.3c0.1,0.1,0.1,0.4,0.1,0.5C395.1,46.6,395.2,47.1,395.1,47.4z M395,53.9
		c0-0.8,0.2-1.7,0.2-2.5c0.1-0.1,0.3-0.2,0.5-0.2c0,0.1,0,0.3,0,0.5c0,0.8-0.1,1.6-0.1,2.4c0,0.3-0.1,0.7-0.1,1
		c-0.1,0.2-0.1,0.4-0.1,0.7c0,0.7-0.2,1.3-0.3,1.9c-0.1,0.1-0.1,0.4-0.3,0.4c-0.2-0.2-0.1-0.5-0.1-0.7c0.1-0.2,0-0.5,0.1-0.7
		C394.8,55.8,395.1,54.9,395,53.9z M394.8,59.7c0.2,0.4,0.3,0.8,0.3,1.1c0,0.2,0.1,0.4-0.1,0.5c-0.5-0.1-0.9,0.1-1.3,0.4
		c-0.1,0-0.2,0-0.3-0.1c-0.1-0.2,0-0.4,0-0.6c0.1-0.2,0-0.6,0.2-0.7c0.1-0.1,0.3-0.1,0.3-0.3c-0.2-0.1-0.5,0-0.6-0.2
		c-0.2-0.3-0.4-0.6-0.4-1c0.3-0.3,0.8-0.4,1.2-0.3c0.1,0.1,0.3,0.1,0.3,0.2C394.6,59.2,394.6,59.5,394.8,59.7z M394,62.1
		c0.1-0.3,0.4-0.3,0.6-0.4c0.1,0,0.2,0,0.2,0.1c-0.1,0.6-0.2,1.2-0.6,1.7c0,0.1-0.1,0.1-0.2,0.1c-0.1,0,0-0.1,0-0.2
		C394.3,63,394.2,62.5,394,62.1z M393.1,63.1c-0.4-0.1-0.9-0.4-0.9-0.9c0-0.1-0.1-0.2-0.1-0.3c0.2-0.2,0.5-0.2,0.8-0.2l0.1,0.1
		C392.9,62.2,392.7,62.8,393.1,63.1z M392.4,61.4c-0.2,0-0.4,0.2-0.6,0.2c-0.1-0.2-0.1-0.4-0.2-0.6c-0.1-0.7,0-1.4,0.6-1.8
		c0.1-0.1,0.2,0,0.3,0c0.2,0.2,0.3,0.5,0.4,0.7c0.1,0.2,0.2,0.3,0.3,0.6c0.1,0.3,0,0.6,0,0.9C393,61.5,392.7,61.3,392.4,61.4z
		 M387.9,62.4c0.2-0.1,0.4-0.3,0.7-0.1c0.2,0.2,0.2,0.4,0.2,0.6c-0.2,0.4-0.6,0.8-1,0.9c0,0-0.1,0-0.1-0.1c0-0.3,0.2-0.5,0.1-0.9
		C387.6,62.7,387.8,62.6,387.9,62.4z M388.6,62c-0.2,0-0.4-0.1-0.5-0.2c-0.2,0-0.2,0.2-0.4,0.3c-0.1,0-0.1,0.1-0.2,0.1
		c-0.1-0.2-0.1-0.4-0.1-0.6c-0.1-0.2,0-0.5,0.1-0.7c0.2-0.1,0.3-0.3,0.5-0.3c0.1-0.1,0.1-0.1,0.1-0.2c-0.1-0.1-0.3-0.1-0.4-0.1
		c-0.2,0.1-0.3,0.2-0.5,0.4c-0.2-0.3-0.2-0.6-0.2-1c0-0.3,0.1-0.7,0.4-0.8c0.2,0.1,0.6,0.1,0.7,0.4c0.4,0.5,0.8,1,0.9,1.7
		c0,0.4,0.1,0.8-0.1,1.2C388.8,62.2,388.7,62.1,388.6,62z M387.5,58.2c-0.6-0.3-0.7-1-0.6-1.6c0-0.1,0-0.3,0.2-0.3
		c0.1,0.1,0.1,0.2,0.2,0.3c0.3,0.6,1,1,1.5,1.5c0.4,0.2,0.6,0.7,0.6,1.2c0.1,0.1,0,0.3,0,0.4c0,0-0.1,0-0.1-0.1
		C388.8,59,388.2,58.4,387.5,58.2z M384.6,40.8c0.2-0.1,0.3-0.3,0.5-0.4c0.2-0.2,0.3-0.4,0.5-0.6c0.1,0,0.2,0,0.2,0.1
		c0,0.3-0.1,0.5-0.2,0.8c-0.3,0.6-0.7,1.2-1.4,1.3c-0.2,0-0.4-0.1-0.5-0.2c0-0.3-0.1-0.5-0.1-0.7c0-0.5,0.4-0.9,0.7-1.4
		c0.1-0.1,0.3-0.2,0.3,0c-0.1,0.3-0.1,0.7-0.1,1C384.5,40.7,384.5,40.8,384.6,40.8z M386.1,44.5c0.4-0.3,0.7-0.8,1-1.1
		c0,0,0.1,0,0.1,0c0,0.7-0.4,1.3-0.9,1.9c-0.3,0.3-0.8,0.5-1.2,0.4c-0.3,0-0.4-0.4-0.5-0.6c0-0.3,0.1-0.5,0.2-0.7
		c0.4-0.3,0.9-0.6,1.1-1c0-0.1,0.1-0.1,0.2-0.1c0,0.5-0.3,0.9-0.5,1.3C385.8,44.7,386,44.6,386.1,44.5z M387.2,41.8
		c0.4-0.1,0.6-0.4,0.8-0.7c0-0.2,0.2-0.3,0.3-0.5c0,0,0,0,0.1,0c0,0.7-0.3,1.4-0.9,1.9c-0.1,0.1-0.3,0.1-0.4,0.1
		c-0.2-0.1-0.5-0.2-0.5-0.4c0-0.5,0.1-0.9,0.5-1.1c0.1-0.1,0.2-0.3,0.4-0.4c0,0.3-0.1,0.6-0.2,0.8C387.3,41.6,387.1,41.7,387.2,41.8
		z M389.1,48.7C389.1,48.7,389.1,48.7,389.1,48.7c0.2-0.1,0.1-0.3,0.2-0.4c0-0.1,0.1,0,0.2,0c0.3,0.2,0.1,0.6,0.2,0.9
		c0,0.3-0.1,0.7-0.2,1c0.1,0.1,0.2,0,0.2,0c0.3-0.4,0.2-0.8,0.3-1.3c0-0.1,0-0.2,0.1-0.3c0.1,0,0.1,0,0.1,0.1c0,0.3,0,0.6,0,0.9
		l0.1,0c0.3-0.4,0.1-0.9,0.3-1.4c0.1-0.2,0-0.5,0.1-0.8c0.2,0,0.2,0.2,0.2,0.4c0,0.2,0.1,0.3,0.2,0.4c0.1,1,0.4,2.4-0.6,3
		c-0.3,0.2-0.8,0.1-1.1,0c-0.3-0.1-0.4-0.5-0.5-0.7c-0.2-0.6-0.4-1.2-0.3-1.9c0.1-0.6,0.2-1.3,0.5-1.8c0.1,0.1,0,0.2,0,0.3
		C389,47.7,388.9,48.2,389.1,48.7z M392,46.6c-0.1-0.2-0.1-0.5-0.2-0.8c0-0.2,0.2,0,0.2,0.1c0.2,0.6,1.1,0.7,1.1,1.4
		c0.1,0.2,0.1,0.4,0,0.6c-0.2,0.2-0.5,0.3-0.9,0.3c-0.5-0.2-0.8-0.7-1.2-1.1c0-0.3-0.3-0.5-0.1-0.8c0.1,0,0.2,0.1,0.2,0.1
		c0.3,0.3,0.6,0.6,0.9,0.8c0.1,0,0.1,0,0.2-0.1C392.3,46.9,392,46.8,392,46.6z M391.5,52.4c-0.1-0.2-0.4-0.4-0.4-0.6
		c0-0.1-0.1-0.2,0.1-0.3c0.5,0.2,0.9,0.5,1.2,0.9c0.1,0.3,0.1,0.7-0.1,0.9c0,0.1-0.1,0.3-0.2,0.3c-0.1,0.1-0.3,0.1-0.5,0.1
		c-0.5-0.3-0.8-0.9-0.9-1.5h0.1c0.2,0.2,0.3,0.7,0.7,0.5C391.5,52.7,391.5,52.5,391.5,52.4z M392.4,51.3c-0.3-0.4-0.6-0.8-0.6-1.4
		c0,0,0.1-0.1,0.1,0c0.1,0.1,0.1,0.2,0.1,0.3c0.1,0.2,0.2,0.5,0.5,0.5c0.1,0,0-0.2,0-0.2c0-0.3-0.2-0.5-0.1-0.8h0
		c0.4,0.4,0.9,0.8,0.7,1.4c0,0.2-0.2,0.3-0.3,0.3C392.7,51.4,392.5,51.4,392.4,51.3z M387.3,50.7c0.3-0.3,0.5-0.6,0.7-0.9
		c0.1,0,0.1,0,0.1,0.1c0.1,0.8-0.3,1.4-0.9,1.8c-0.2,0.1-0.4,0.1-0.5,0.1c-0.1-0.1-0.2-0.3-0.3-0.4c-0.1-0.6,0.1-1.1,0.5-1.5
		c0.2-0.2,0.2-0.4,0.4-0.5c0.2,0.1,0.1,0.5,0.1,0.7c0,0.3-0.2,0.4-0.3,0.7C387.1,50.9,387.2,50.7,387.3,50.7z M387.8,51.9
		c0.1-0.3,0.4-0.4,0.6-0.7c0.1,0,0.2,0,0.2,0.1c0,0.5-0.3,0.9-0.5,1.3c0.1,0.1,0.2-0.1,0.4-0.1c0.3-0.2,0.3-0.6,0.5-0.9
		c0.1,0,0.2,0.1,0.2,0.1c0.3,0.7-0.1,1.3-0.4,1.8c-0.2,0.4-0.6,0.2-0.9,0.3c-0.2,0-0.4-0.1-0.4-0.3
		C387.3,52.9,387.7,52.4,387.8,51.9z M388.7,46.1c0,0.3-0.1,0.5-0.2,0.8l-0.1,0.1c0.1,0.1,0,0.2,0,0.3c-0.1,0.6-0.6,1-1.2,1.1
		c-0.2,0-0.4-0.1-0.5-0.2c-0.3-0.2-0.2-0.6-0.2-1c0.2-0.6,0.6-1.2,1-1.8c0,0,0.1-0.1,0.1,0c0.1,0.6,0,1.1-0.2,1.6
		c0,0.1,0,0.2,0.1,0.3c0.2-0.1,0.2-0.3,0.4-0.4l0-0.1c0.2-0.4,0.5-0.8,0.6-1.3c0-0.1,0.1,0,0.1-0.1
		C388.8,45.7,388.7,45.9,388.7,46.1z M385.6,43c-0.2,0.2-0.5,0.4-0.8,0.4c-0.1,0-0.2-0.1-0.2-0.2c-0.1-0.6,0.4-0.9,0.5-1.4
		c0.1-0.1,0.2-0.3,0.3-0.3c0.1,0.3-0.1,0.6-0.1,1c0.1,0.1,0.2-0.1,0.3-0.2c0.2-0.4,0.4-0.9,0.5-1.3c0-0.1,0.1,0,0.1,0
		C386.2,41.8,386,42.4,385.6,43z M384.5,46.7l0.5-0.5c0.1,0,0.1,0,0.1,0.1c0.1,0.3-0.1,0.7-0.2,0.9c0,0.1-0.1,0.3,0,0.4
		c0.2,0,0.3-0.2,0.4-0.3c0.2-0.3,0.4-0.6,0.7-0.8c0,0,0.1,0,0.1,0c0,0.5-0.3,0.9-0.5,1.3c-0.2,0.4-0.6,0.7-1.1,0.6l-0.1-0.1
		C384.4,47.8,384.2,47.1,384.5,46.7z M386.2,52.7c0.1-0.1,0.1-0.2,0.2-0.2c0,0.2-0.2,0.3-0.2,0.5c-0.1,0.2-0.2,0.4-0.2,0.6
		c0.1,0.1,0.2,0,0.3,0c0.2-0.2,0.4-0.4,0.6-0.6c0,0,0,0.1,0,0.1c0,0,0,0.1,0,0.1c-0.2,0.4-0.4,1-1,1.1c-0.2,0.1-0.4,0-0.5-0.1
		c-0.1-0.3,0-0.7,0.2-1C385.8,53.1,385.9,52.8,386.2,52.7z M386.1,56.6c0.1,0.4,0.1,0.9-0.1,1.2c-0.1,0.1-0.2,0.2-0.3,0.1
		c-0.2-0.1-0.2-0.2-0.2-0.4c0-0.4-0.1-0.8,0.1-1.2c0.1-0.3,0.1-0.5,0.2-0.8c0-0.2,0.1-0.4,0.1-0.6c0.1,0.1,0,0.3,0.1,0.4
		C386.1,55.8,386,56.2,386.1,56.6z M385.4,59.6c0.1-0.2,0.2-0.5,0.4-0.7c0.1-0.2,0.4-0.1,0.6-0.2c0.2,0.1,0.6-0.1,0.5,0.2
		c-0.2,0.4-0.4,0.9-0.2,1.3c-0.1,0.2-0.6-0.1-0.5,0.3c0.2,0.3,0.5,0.1,0.6,0.4c0.1,0.3,0.1,0.7,0.2,1c0,0.1-0.1,0-0.1,0
		c-0.3-0.2-0.6-0.4-0.9-0.2c-0.2,0.1-0.3,0.3-0.5,0.5c-0.1,0.1-0.1-0.1-0.1-0.1C385.1,61.3,385.2,60.3,385.4,59.6z M387.9,57
		c-0.2-0.3-0.3-0.7-0.5-1c0-0.4-0.1-0.7,0-1.1c0-0.1,0-0.2,0.1-0.3l0,0c0,0.8,0.5,1.3,0.9,1.9c0.3,0.3,1,0.4,0.9,1
		c0,0.3,0.2,0.5,0,0.8c-0.1,0-0.1-0.1-0.1-0.1C389,57.7,388.4,57.4,387.9,57z M389.4,56c-0.4-0.4-0.7-0.9-0.5-1.5
		c0-0.4,0.2-0.8,0.5-1c0.1-0.1,0-0.3,0.1-0.3c0.1,0.1,0,0.2-0.1,0.2c0.1,0.4,0.3,1-0.1,1.3c0,0.1,0,0.2,0.1,0.2
		c0.4,0.1,0.3-0.4,0.5-0.5c0,0.3-0.2,0.6-0.4,0.8c0,0.1,0.2,0.1,0.2,0.2c0.2,0,0.3-0.3,0.4-0.4c0.1-0.5,0.1-0.9-0.2-1.3
		c0-0.1-0.1-0.3,0.1-0.5c0.3,0,0.4,0.3,0.5,0.5c0.2,0.4,0.3,1,0.1,1.4c0.1,0.5-0.4,0.6-0.6,0.9C389.9,56,389.6,56.2,389.4,56z
		 M390.5,57c0-0.2,0.2-0.3,0.3-0.5c0.2-0.5,0.4-0.9,0.7-1.3c0.2-0.2,0.1-0.5,0.2-0.8c0.1,0,0.1,0.2,0.2,0.3c0.1,0.5,0.1,1.1-0.1,1.5
		c-0.3,0.6-0.8,1.1-1,1.6c-0.1,0.1-0.1,0.3-0.2,0.4C390.3,57.9,390.3,57.4,390.5,57z M390.8,58.9c0.1-0.5,0.4-0.8,0.6-1.3
		c0.4-0.5,0.6-1,0.8-1.5c0-0.1-0.1-0.2,0-0.3c0.2,0.3,0.3,0.7,0.2,1.1c0,1-1.1,1.6-1.2,2.5c-0.1,0.1-0.2,0.3-0.3,0.4
		C390.7,59.6,390.8,59.2,390.8,58.9z M393.1,56.9c0-0.6,0.2-1.1,0.2-1.7c0-0.1,0.1-0.2,0.1-0.1c0.1,0.6,0,1.2,0.2,1.7
		c0,0.4,0.1,0.9-0.3,1.1c-0.1,0.1-0.2-0.1-0.3-0.2C393,57.5,393.2,57.2,393.1,56.9z M394,53.5c-0.1,0.1-0.2,0.2-0.4,0.1
		c-0.6-0.2-0.8-0.8-0.9-1.3c0.1,0,0.2,0.2,0.3,0.2c0.2,0.1,0.3,0.5,0.6,0.3c0-0.3-0.3-0.4-0.4-0.7c0-0.1-0.1-0.2-0.1-0.3
		c0.1,0,0.1,0.2,0.3,0.3c0.3,0.1,0.6,0.4,0.7,0.7C394.2,53,394.1,53.3,394,53.5z M392.8,44.8c-0.4-0.3-0.5-0.7-0.6-1.2
		c0-0.1-0.1-0.3,0-0.4c0.1,0,0.1,0.1,0.1,0.1c0.2,0.2,0.4,0.6,0.7,0.7c0.1,0.1,0.1,0.1,0.2,0.2c0.1,0,0.2,0,0.2-0.1
		c0-0.1-0.1-0.3-0.2-0.4c-0.1-0.3-0.4-0.5-0.3-0.9c0.1-0.1,0.2,0.1,0.4,0.2c0.4,0.1,1,0.4,1.1,0.9c0,0.3,0,0.7-0.2,0.9
		C393.7,45,393.2,44.9,392.8,44.8z M394,41.8c0.1,0.1,0.2,0.2,0.3,0.2c0.2,0.2,0.4,0.5,0.3,0.8c-0.1,0.1-0.1,0.3-0.2,0.4
		c-0.3,0-0.5-0.3-0.7-0.5c-0.2-0.2-0.3-0.4-0.2-0.7c0-0.1,0.1,0,0.2,0c0.2,0.1,0.3,0.4,0.5,0.2C394.1,42.1,394,41.9,394,41.8z
		 M394.3,41.6c-0.3-0.5-0.6-0.9-0.6-1.5c0,0,0.1,0,0.1,0c0.2,0.3,0.5,0.8,1,0.8c0.1-0.1-0.1-0.3-0.1-0.4c0-0.2-0.1-0.3-0.1-0.5
		c0.1,0,0.1,0.1,0.2,0.2c0.3,0.2,0.6,0.4,0.7,0.8c0,0.3,0,0.7-0.3,1C394.9,41.9,394.6,41.8,394.3,41.6z M391.1,45.4
		c-0.3,0.4-0.9,0.8-1.4,0.8c-0.3-0.1-0.6-0.1-0.8-0.4c0-0.2-0.3-0.3-0.2-0.6c-0.2-0.5-0.4-1-0.3-1.6c-0.1-0.6,0.1-1.3,0.2-1.9
		c0.1-0.1,0.2-0.4,0.3-0.2c0,0.6-0.2,1.1,0.1,1.6c0.1,0,0.1,0.1,0.2,0.1c0.2-0.1,0-0.4,0.1-0.6c0.1-0.1,0.1,0,0.2,0.1
		c0.1,0.6,0,1.3,0.3,1.8c0.1,0.1,0.2,0.2,0.3,0.1c0.1-0.1,0.1-0.1,0.1-0.2c-0.3-0.8-0.3-1.8,0-2.6c0.1,0,0.1,0,0.1,0.1
		c0.1,0.5-0.1,1.1,0.1,1.5c0.2-0.1,0.2-0.3,0.3-0.5c0.1-0.5,0-1.1,0.1-1.6c0.1,0,0,0.1,0.1,0.1C391.2,42.7,392,44.2,391.1,45.4z
		 M388.8,34c0-0.1,0.1-0.3-0.1-0.3c-0.1,0-0.3,0.1-0.4,0.1c0,0-0.1-0.1-0.1-0.1c0,0,0,0,0-0.1c0.2-0.1,0.5-0.3,0.7-0.4
		c0-0.1,0.2-0.2,0.3-0.1C389.2,33.5,389,33.8,388.8,34C388.8,34.1,388.8,34.1,388.8,34z M388,33.2c-0.2,0-0.4,0.1-0.6-0.1
		c0.1-0.2,0.3-0.1,0.4-0.2c0.3-0.1,0.4,0.2,0.7,0.2c0,0,0,0,0,0.1C388.4,33.2,388.2,33.1,388,33.2z M388.7,31.6
		c-0.1,0-0.1-0.2-0.2-0.2c-0.1-0.1-0.1-0.1-0.2-0.1c-0.1,0.1-0.2,0.3-0.3,0.5l0,0.1c-0.2,0-0.2-0.2-0.4-0.3
		c-0.1-0.3,0.2-0.5,0.3-0.7c0.2,0,0.5,0.1,0.6,0.3C388.6,31.2,388.7,31.3,388.7,31.6z M387.8,32.2c-0.1,0.3,0.3,0.2,0.4,0.3l0,0.1
		c0,0.1-0.2,0.1-0.3,0.1c-0.3-0.1-0.6-0.1-0.8,0.1c-0.1,0-0.2,0-0.3-0.1c0-0.2,0.3-0.1,0.4-0.1c0.1-0.1,0.2-0.1,0.3-0.2
		c-0.3-0.2-0.7,0-1,0c-0.2,0.1-0.5,0.1-0.7,0c0,0,0-0.1,0.1-0.1c0.3,0.1,0.5-0.2,0.8-0.2c0.2-0.1,0.5,0,0.8,0
		C387.6,32.1,387.7,32.2,387.8,32.2z M387.1,31.7c-0.5,0-0.9,0.3-1.5,0.2c0,0-0.1,0-0.1-0.1c0-0.1,0.1-0.1,0.1-0.1
		c0.1-0.2,0.4-0.1,0.5-0.2c0.1,0,0.3,0,0.4-0.1c0.3,0,0.7,0,0.9,0.3l0,0.1C387.3,31.8,387.2,31.7,387.1,31.7z M385.8,33.1
		c0.6-0.2,1.2,0,1.6,0.3c0.4,0.5,0.5,1.3,0.2,1.9c-0.2,0.4-0.5,0.9-1,0.9c-0.6,0.3-1.2,0-1.7-0.4c-0.3-0.4-0.6-0.9-0.4-1.4
		C384.6,33.9,385.1,33.3,385.8,33.1z M383.9,42.8C383.9,42.8,383.9,42.9,383.9,42.8c0,1.2,0.1,2.3,0.2,3.6c0.1,1.1,0.1,2.2,0.2,3.2
		c0,0.2-0.2,0.3-0.3,0.5c-0.1,0.1-0.2,0.3-0.4,0.4c-0.2-0.3-0.1-0.7-0.2-1.1c-0.1-1.7-0.3-3.6-0.3-5.4c0.1-0.2,0.2-0.4,0.3-0.7
		C383.5,43.2,383.7,43,383.9,42.8z M384.4,49.9L384.4,49.9c0.3-0.3,0.6-0.6,0.8-0.8c0,0,0.1,0,0.1,0c-0.1,0.5-0.2,1-0.6,1.5
		c0,0.1,0,0.1,0.1,0.1c0.2-0.3,0.4-0.5,0.7-0.8c0.2-0.2,0.3-0.4,0.5-0.6c0.1,0.2,0,0.4,0,0.5c-0.1,0.8-0.4,1.5-1.2,1.9
		c-0.2,0-0.4,0.2-0.7,0.1c-0.2,0-0.4-0.2-0.5-0.4C383.5,50.9,384,50.4,384.4,49.9z M384,52.2l0.3-0.1c0,0,0.1,0,0.1,0.1
		c0.1,0.9,0.1,1.8,0.2,2.7c0,0.7,0.1,1.2,0.2,1.9c0.1,0.4,0,0.9,0.2,1.3c0.2,0.4-0.1,0.6-0.2,0.9c-0.3,0,0-0.4-0.2-0.6
		c-0.3-1.2-0.6-2.3-0.7-3.6c-0.1-0.6-0.1-1.2-0.2-1.8c-0.1-0.3,0-0.6-0.1-0.9C383.8,52.1,383.9,52.2,384,52.2z M383.7,60.8
		c0-0.4,0.1-0.8,0.3-1.1c0-0.2,0.2-0.2,0.4-0.3c0.2,0,0.4-0.2,0.6,0c0,0.1,0.2,0.2,0.1,0.4c-0.1,0.2-0.2,0.4-0.5,0.6
		c-0.1,0-0.3-0.1-0.3,0.1c0,0.3,0.4,0.1,0.5,0.3c0,0.2,0.1,0.5,0,0.7c-0.2,0-0.5,0-0.7,0.2c-0.1,0.1-0.2,0.2-0.3,0.1
		C383.6,61.5,383.7,61.1,383.7,60.8z M384.2,61.8c0.2-0.1,0.4-0.1,0.6,0c0,0.2-0.1,0.5-0.1,0.7c0,0.3,0.2,0.6,0.5,0.7v0
		c-0.2,0-0.4-0.1-0.6-0.2c-0.3-0.2-0.3-0.5-0.4-0.7C384.2,62.2,384,61.9,384.2,61.8z M386.2,62c0.2,0,0.4,0,0.6,0.2
		c0,0.2-0.1,0.4-0.1,0.7c0,0.3,0,0.6,0.2,0.8l0,0.1c-0.2,0-0.4-0.2-0.5-0.3c-0.3-0.3-0.6-0.6-0.6-1C385.8,62.2,386,62.1,386.2,62z
		 M395.6,61.8c-0.1,0,0-0.1,0-0.2c0.2-0.3,0.5-0.1,0.8-0.2l0,0c0.1,0.3-0.3,0.5-0.4,0.8c-0.1,0.1-0.1,0.2-0.1,0.2
		c-0.2,0.2-0.3,0.4-0.5,0.6l-0.1,0C395.4,62.6,395.8,62.3,395.6,61.8z M396.6,61.1c-0.1,0.1-0.1,0.1-0.2,0.1
		c-0.3-0.1-0.5,0.1-0.8,0.1c-0.1-0.2-0.2-0.5-0.2-0.7c0.2-0.2,0.4-0.3,0.5-0.5c0-0.1,0-0.1-0.1-0.1c-0.2,0-0.4,0.4-0.6,0.1
		c-0.1-0.2-0.2-0.5-0.3-0.8c0.2-0.1,0.4,0,0.5,0.1l0.3,0.1c0.5,0.1,0.5,0.7,0.8,1C396.6,60.6,396.8,60.9,396.6,61.1z M395.4,51
		c-0.6,0.1-1.2-0.2-1.6-0.6c-0.2-0.3-0.4-0.6-0.4-1c0-0.1,0.1-0.1,0.2-0.1c0.3,0.3,0.7,0.6,1.1,0.7l0.1-0.1c0.1,0,0.1,0.2,0.2,0.1
		c0,0,0.1-0.1,0-0.1c-0.5-0.4-0.8-0.9-0.9-1.4c0-0.1,0.1-0.1,0.2-0.1c0.5,0.3,1,0.7,1.5,1.1c0.2,0.3,0.4,0.6,0.3,0.9
		C395.9,50.7,395.7,50.9,395.4,51z M395.8,41.2c0-0.1,0.1,0,0.1,0c0.2,0.2,0.3,0.4,0.5,0.6c0.4,0.3,0.7,0.7,1.2,0.8
		c0.1,0.2,0.4,0.2,0.5,0.3c0,0.2-0.1,0.4-0.3,0.4c-0.6,0-0.9-0.4-1.3-0.8C396.1,42.2,395.9,41.7,395.8,41.2z M398.1,40.3
		c-0.1,0-0.3,0-0.4-0.1c-0.4-0.2-0.2-0.6-0.3-1c0-0.3-0.1-0.6,0.1-0.8c0.1,0,0.1,0.1,0.1,0.1C397.8,39.1,398.1,39.6,398.1,40.3z
		 M397.7,36.4c0,0.1-0.1,0.1-0.2,0c-0.1-0.2-0.4-0.3-0.5-0.6c0-0.1-0.2-0.1-0.2,0c0,0-0.1,0.1,0,0.1c0.3,0.4,0.4,0.8,0.7,1.2
		c0,0.2-0.2,0.4-0.3,0.6c0,0-0.1,0-0.1,0c-0.2-0.1-0.2-0.3-0.3-0.5c0-0.1-0.1-0.3-0.1-0.4c0.1-0.4-0.3-0.6-0.4-0.9
		c-0.2-0.2-0.5-0.2-0.6-0.4c0-0.1,0-0.2,0.1-0.2c0.3-0.3,0.6,0.1,0.9-0.1c0.1,0.1,0.3,0,0.4,0c0.2,0.1,0.4,0.3,0.6,0.3
		c0.2,0.1,0.2,0.3,0.2,0.5C397.7,36.2,397.7,36.3,397.7,36.4z M397.2,32.7c0,0.1-0.1,0.3,0,0.4c0.1,0.1,0.3,0.1,0.3,0.3
		c0,0.1,0,0.2-0.1,0.2c-0.3,0-0.6,0.1-0.8,0.4c0,0.1,0,0.1,0.1,0.1c0.2,0,0.2-0.3,0.4-0.3c0.2,0,0.3-0.1,0.5,0
		c0,0.2,0.2,0.3,0.2,0.4c-0.1,0.3,0.1,0.7-0.1,1c-0.4,0-0.7-0.4-1.1-0.1c-0.2,0-0.5-0.2-0.7-0.1c-0.2-0.1-0.3-0.4-0.2-0.6
		c0.1-0.2,0.3-0.1,0.4-0.3c0.1,0,0.3,0.1,0.3,0c0-0.2-0.3-0.1-0.4-0.1c-0.1,0.1-0.2,0.1-0.4,0.1c-0.1-0.1-0.1-0.2-0.1-0.4
		c0.2-0.4,0.7-0.5,1-0.6c0,0,0.1-0.1,0-0.1c-0.4-0.3-0.9,0.1-1.2,0.3c-0.1,0-0.1,0-0.1-0.1c0.1-0.3,0.2-0.6,0.5-0.7
		c0,0,0.1-0.1,0.1-0.1c-0.1-0.1-0.2,0-0.3,0c-0.1,0.1-0.3,0.3-0.5,0.4c0-0.2,0.3-0.4,0.3-0.7c0,0,0-0.1-0.1-0.1
		c-0.3,0.2-0.5,0.5-0.9,0.7c-0.1,0-0.2,0-0.3,0c-0.1,0,0-0.1,0-0.2c0.2-0.3,0.5-0.6,0.6-0.9c0.2-0.6,0.9-0.5,1.3-0.9
		c0.2,0.1,0.4-0.1,0.5,0.1c-0.1,0.1-0.2,0.1-0.3,0.1c-0.2,0.2-0.6,0.3-0.7,0.6c0.2,0.1,0.2-0.2,0.3-0.2c0.1-0.1,0.2-0.2,0.3-0.1
		c0.2,0.2,0.3-0.3,0.4,0.1c-0.1,0.2-0.3,0.2-0.4,0.3c-0.1,0.1-0.3,0.3-0.3,0.5c0,0.1,0.1,0,0.2,0c0.2-0.2,0.4-0.4,0.7-0.4
		C397.1,32.1,397.2,32.4,397.2,32.7z M393.7,29.8c0.2-0.3,0.6-0.2,0.8-0.4c0.7-0.2,1.4,0.1,2-0.4l0.7-0.5c0.3,0,0.4-0.3,0.6-0.4
		c0.1,0,0.2,0,0.2,0.1c-0.1,0.3-0.2,0.6-0.3,1c-0.1,0.5-0.6,0.6-1,0.9c-0.2,0.2-0.5,0.2-0.8,0.2c-0.6,0-1.1,0.3-1.4,0.8
		c0.1,0.2-0.1,0.3-0.2,0.3c-0.1,0.1-0.3,0.1-0.4,0.2c0.1,0.1,0.2,0,0.2,0.2c-0.3,0.3-0.8,0-1.1,0.3c0,0-0.1,0.1-0.1,0.1
		c0.1,0.1,0.3,0,0.3,0.1c-0.2,0.2-0.6,0.1-0.8,0.3c0,0.1,0,0.1,0.1,0.1c0.1,0,0.2-0.1,0.3,0c0,0.1-0.1,0.1-0.2,0.2
		c-0.3,0.1-0.6,0-0.8,0.2c0.1,0.1,0.3,0.1,0.4,0.2c-0.3,0.2-0.7,0.2-0.9,0.4c-0.2,0.2,0.1,0.7-0.3,0.5c-0.2-0.2-0.3-0.4-0.4-0.7
		c0.1-0.1,0-0.4,0.2-0.3c0.2,0.1,0.2,0.3,0.3,0.4c0.1,0,0.2-0.1,0.3-0.2c-0.2-0.3,0.3-0.3,0.4-0.5c0-0.3,0.3-0.2,0.4-0.3
		c0.3-0.1,0.5-0.1,0.8-0.2c0,0-0.1,0-0.1-0.1c0,0-0.1,0-0.1,0c0,0,0,0,0-0.1c0.3-0.4,0.8-0.3,1.2-0.4c0-0.1-0.2-0.1-0.1-0.2
		c0.3-0.2,0.8-0.1,0.9-0.5c0-0.1,0.1-0.2,0-0.2c-0.2,0.1-0.3,0.3-0.5,0.4c-0.2,0.2-0.4,0.3-0.6,0.4c0-0.1,0.1-0.2,0.2-0.3
		c0.3-0.3,0.5-0.7,0.7-1.2c0-0.1-0.1,0-0.2,0c-0.3,0.3-0.7,0.5-1,0.8c-0.1,0-0.2,0.1-0.2,0c-0.1-0.2,0.2-0.2,0.2-0.4
		C393.3,30.2,393.5,30,393.7,29.8z M390.4,31.6c-0.1-0.1-0.1-0.3-0.1-0.5c0,0-0.1,0-0.1,0c-0.1,0.1-0.2,0.3-0.2,0.4c0,0-0.1,0-0.1,0
		c-0.1-0.3,0-0.6,0.1-0.8c0.1-0.1,0.2-0.2,0.3-0.2c0.1,0.1,0.2,0.2,0.3,0.3C390.6,31.1,390.6,31.4,390.4,31.6z M391.4,31.2
		c-0.1-0.1-0.2,0.1-0.3,0.1c-0.1,0.1-0.2,0.3-0.3,0.4c-0.1,0-0.1,0-0.1-0.1c0-0.3,0.1-0.5,0.2-0.8c0.1-0.2,0.4-0.2,0.5-0.4
		c0.1-0.1,0.4-0.2,0.4,0.1c0,0.2,0.1,0.4,0.2,0.6c0,0.2-0.2,0.4-0.2,0.6c0,0-0.1,0.1-0.2,0.1C391.6,31.6,391.5,31.4,391.4,31.2z
		 M391.6,28.9c0-0.3,0.3-0.2,0.5-0.3c0.3,0,0.7,0,0.9,0.3c0.1,0.1,0.1,0.2,0.1,0.4c-0.2,0.1-0.1,0.4-0.3,0.5
		c-0.3-0.1-0.2-0.4-0.4-0.6c-0.3-0.2-0.5,0.1-0.8,0.2C391.5,29.2,391.6,29,391.6,28.9z M392,29.5c0.1,0,0.1,0,0.2,0.1
		c0,0.4,0.5,0.7,0.1,1c-0.3,0-0.2-0.3-0.3-0.5c-0.2-0.2-0.4,0.2-0.6,0.1c-0.1,0-0.2-0.1-0.1-0.2C391.3,29.6,391.7,29.6,392,29.5z
		 M389.9,28.9c0.2-0.4,0.6-0.4,1-0.4c0.2,0.2,0.2,0.4,0.4,0.5c0,0.1,0,0.3-0.1,0.4c-0.1,0-0.2-0.2-0.3-0.2c-0.2-0.1-0.4-0.2-0.6-0.1
		c-0.1,0-0.2,0.2-0.3,0.1C389.8,29.1,389.8,29,389.9,28.9z M390.3,29.4c0.2-0.1,0.3,0.2,0.4,0.4c0,0.1,0.3,0.2,0.2,0.4
		c-0.1,0.1-0.1,0.2-0.2,0.2c-0.2-0.1-0.3-0.4-0.5-0.3c-0.1,0.1-0.2,0.2-0.3,0.2c-0.1-0.1-0.1-0.3-0.1-0.4
		C390,29.6,390.1,29.5,390.3,29.4z M389.8,33.3c0.2-0.1,0.4,0.1,0.5-0.1l0,0c0,0.2,0.2,0.5,0.1,0.7c0,0.1,0.1,0.2,0.1,0.4
		c-0.1,0-0.1-0.2-0.2-0.3c0-0.1-0.1-0.2-0.2-0.2c-0.2,0-0.1,0.5-0.3,0.2c-0.1-0.2,0.1-0.4-0.1-0.5c-0.1,0.2-0.2,0.3-0.3,0.5
		c-0.1,0-0.2-0.1-0.2-0.2c0.3-0.1-0.1-0.5,0.3-0.6C389.6,33.2,389.7,33.2,389.8,33.3z M389.6,31.3c-0.1,0-0.1-0.1-0.1-0.2
		c0-0.1-0.1-0.2-0.2-0.1c-0.1,0.1-0.1,0.3-0.1,0.4l0,0c-0.2-0.2-0.3-0.4-0.2-0.7c0-0.2,0.2-0.3,0.3-0.4c0.1,0,0.2,0.1,0.3,0.2
		C389.7,30.8,389.6,31.1,389.6,31.3z M388.8,30.1c0,0.1-0.1,0.2-0.2,0.3c-0.1,0-0.2-0.1-0.2-0.1c-0.1-0.1,0-0.2,0-0.3
		c0.1-0.2,0.2-0.5,0.4-0.6c0.2,0,0.4,0.3,0.6,0.3c0.1,0.1,0.1,0.2,0.1,0.3C389.3,30.1,389,29.8,388.8,30.1z M388.9,28.4
		c0.2,0,0.3,0,0.4,0.1c0.1,0.1,0.1,0.3,0.3,0.5c0,0.1,0,0.2-0.1,0.2c-0.4,0.1-0.4-0.4-0.8-0.3c-0.1,0.1-0.3,0.3-0.4,0.5
		c-0.1,0-0.1,0.1-0.2,0.1c-0.1-0.1-0.2-0.2-0.2-0.3C388.1,28.8,388.4,28.4,388.9,28.4z M388.1,30c0,0.1,0.1,0.3,0,0.4
		c-0.2,0-0.5,0-0.6,0.3c-0.1,0.1-0.1,0.3-0.3,0.4c-0.1-0.1-0.2-0.2-0.3-0.4c0.1-0.2,0.2-0.5,0.3-0.7c0,0,0.1-0.1,0.1-0.1
		C387.7,29.9,387.8,30.1,388.1,30z M386.7,28.8c0.2,0,0.4,0,0.6,0.2c0.1,0.1,0.2,0.3,0.3,0.3c0.1,0,0.1,0.1,0.1,0.2
		c-0.1,0.1-0.2,0-0.3,0c-0.2,0-0.5-0.3-0.7,0.1c-0.1,0.1-0.1,0.3-0.2,0.3c-0.1-0.1-0.2-0.3-0.2-0.5
		C386.5,29.2,386.5,28.9,386.7,28.8z M381.6,28.9c0-0.3,0-0.5,0-0.8c0,0,0.1-0.1,0.1-0.1c0.3-0.1,0.2,0.3,0.4,0.4
		c0.1,0.3,0.4,0.6,0.7,0.6c0.6,0,1.2-0.1,1.8,0.1c0.4,0.1,0.8,0.4,1.1,0.8c0.1,0,0.1-0.1,0.2-0.1c0.1,0.1,0.4,0.2,0.3,0.4
		c0.3,0,0.4,0.4,0.7,0.6c-0.2,0.2,0.5,0.5-0.1,0.5c-0.4-0.2-0.8,0.1-1.2,0.1c-0.1,0-0.2,0-0.3-0.1l0-0.1c0.2-0.2,0.5-0.3,0.8-0.3
		c0.1,0,0-0.2,0.2-0.1c0.1,0.1,0.1,0.2,0.2,0.2c0,0,0-0.1,0-0.1c-0.2,0-0.2-0.3-0.4-0.3c-0.2,0-0.3,0-0.4-0.2
		c-0.1-0.3-0.4-0.4-0.6-0.5c-0.1-0.1-0.2-0.1-0.3-0.1c-0.1,0.1-0.1,0.1-0.1,0.2c0.2,0.3,0.4,0.6,0.7,0.8v0c-0.3,0-0.5-0.4-0.7-0.3
		c0,0-0.1,0.1,0,0.2c0.1,0.2,0.4,0.4,0.2,0.6c-0.2,0-0.3-0.2-0.4-0.3c0-0.3-0.3-0.3-0.5-0.4c-0.2-0.1-0.4,0-0.7,0
		c-0.2-0.1-0.4,0.1-0.6-0.1C382.1,30.2,381.7,29.6,381.6,28.9z M381.4,40c0.1-0.4,0-0.8,0.3-1.1c0.2,0,0.1,0.3,0.1,0.4
		c0.1,0.3,0.1,0.7,0.2,1c-0.1,0.2-0.3,0.3-0.5,0.3C381.4,40.5,381.4,40.2,381.4,40z M383.1,39.5c0-0.1,0.2-0.1,0.2,0
		c0,0.3-0.1,0.6-0.2,0.9c-0.3,0.4-0.3,0.9-0.7,1.3c-0.2,0.1-0.4,0.4-0.7,0.4c-0.1-0.2-0.3-0.4-0.3-0.7
		C382,40.8,382.7,40.2,383.1,39.5z M382,43.2c-0.1,0.1-0.2,0.2-0.4,0.1c0-0.2-0.1-0.6,0.1-0.7c0.1-0.1,0.3-0.3,0.4-0.1
		C382.2,42.8,382.2,43.1,382,43.2z M382.3,43.1c0.3-0.4,0.7-0.7,0.9-1.2c0,0,0.1-0.1,0.1-0.1c-0.1,0.8-0.4,1.6-0.9,2.2
		c-0.2,0.3-0.6,0.4-0.9,0.5c-0.1,0-0.2-0.1-0.2-0.2c0-0.1-0.1-0.2-0.1-0.3C381.6,43.8,382,43.5,382.3,43.1z M380.2,42.7
		c0-0.3,0.1-0.5,0.4-0.7c0.1-0.1,0.3-0.2,0.5-0.2l0.2,0.3c0,0.4-0.4,0.5-0.6,0.8c-0.1,0-0.1,0.1-0.2,0.1
		C380.3,42.9,380.2,42.8,380.2,42.7z M380.5,46.6c-0.1,0-0.2-0.1-0.3-0.1c-0.1-0.1-0.2-0.3-0.2-0.5c0.1-0.2,0.4-0.3,0.5-0.5
		c0.3-0.2,0.5-0.5,0.8-0.8c0.1,0,0.3-0.1,0.4,0C381.5,45.4,381.1,46,380.5,46.6z M382.2,56c-0.4-1.3-0.8-2.6-1-4
		c-0.2-1.2-0.3-2.4-0.5-3.6c0.1-0.5,0-1.1,0-1.6c0.1-0.2,0.3-0.3,0.5-0.4c0,0,0.1,0,0.1,0c0,0.9,0.2,1.7,0.2,2.6
		c0.1,0.7,0.2,1.4,0.2,2c0,0.7,0.1,1.4,0.1,2.1c0.1,0.8,0.2,1.5,0.3,2.2C382.2,55.6,382.3,55.8,382.2,56L382.2,56z M382.6,55
		c-0.1-0.6-0.1-1.3-0.2-1.9c-0.2-1.2-0.2-2.5-0.3-3.7c-0.1-0.3-0.1-0.7-0.1-1.1c-0.1-0.8-0.1-1.6-0.2-2.3c-0.1-0.5,0.1-0.9,0.2-1.2
		c0.1-0.1,0.3-0.3,0.4-0.2c0.1,0.8,0,1.6,0.1,2.4c0.1,0.3,0.1,0.7,0.1,1c0.1,1.3,0.1,2.5,0.3,3.7c0.2,1.7,0.4,3.4,0.6,5.2
		c0.1,0.6,0.2,1.2,0.3,1.9c0,0-0.1,0.1-0.1,0C383.1,57.6,382.8,56.3,382.6,55z M396.7,55.4c-0.2,0.9-0.3,1.8-0.6,2.7
		c0,0.3-0.1,0.6-0.2,0.8c0,0-0.1,0-0.1,0c0-0.7,0.3-1.2,0.3-1.8c0.1-0.5,0.1-1,0.2-1.5c0.1-0.7,0.1-1.3,0.2-2
		c0.1-0.2,0.1-0.5,0.1-0.7c-0.1-0.5,0.1-1,0.1-1.5c0.1-0.5,0.2-1.1,0.2-1.6c0.1-1,0.2-1.9,0.2-2.9c0.1-0.3,0-0.7,0.1-0.9
		c0-0.3,0-0.5,0-0.8c0.1-0.2-0.2-0.7,0.2-0.8c0.1,0.1,0.3,0.2,0.4,0.3c0,0.3-0.1,0.6-0.1,0.9c0,0.5-0.1,1-0.1,1.6
		c0,0.8,0,1.5-0.1,2.2c-0.1,0.9-0.2,1.8-0.3,2.6C397.1,53.1,396.8,54.2,396.7,55.4z M398.8,45.9c-0.1,0.6,0,1.1-0.1,1.7
		c0,0.5-0.2,1-0.2,1.5c0,0.8-0.3,1.5-0.3,2.3c-0.1,0.8-0.3,1.5-0.5,2.3c-0.2,0.9-0.5,1.8-0.8,2.6c0,0-0.1,0-0.1,0
		c0.1-0.8,0.3-1.7,0.4-2.5c0.2-1,0.4-2.1,0.6-3.1c0.1-0.8,0.1-1.6,0.2-2.4c0.1-1,0.2-2,0.3-2.9c0.1-0.1,0.3,0.1,0.4,0.1
		C398.8,45.6,398.9,45.7,398.8,45.9z M399.4,45.4c-0.5-0.4-1-0.7-1.3-1.2c-0.1-0.1-0.2-0.3-0.2-0.5c0.1-0.1,0.1-0.2,0.2-0.1
		c0.2,0,0.3,0.3,0.6,0.3c0.1,0,0.1,0.2,0.1,0.3c0.2,0.2,0.5,0.5,0.7,0.7c0.1,0.1,0.2,0.2,0.1,0.4C399.6,45.3,399.6,45.5,399.4,45.4z
		"/>
	<path class="st1" d="M382.3,29.1c0.2,0.2,0.5,0.2,0.8,0.2c0.3,0.1,0.6,0,0.8,0.2c0.1,0.1,0.3,0.2,0.3,0.5l-0.1,0
		c-0.6-0.3-1.3,0-1.8-0.5c-0.2,0-0.3-0.2-0.3-0.4c0-0.1,0-0.1,0-0.2C382.1,28.9,382.2,29.1,382.3,29.1z"/>
	<path class="st1" d="M397.5,29c0,0.1-0.1,0.3-0.3,0.4c-0.5,0.3-1.2,0.5-1.9,0.4c0,0,0-0.1,0-0.1c0.4-0.1,0.9-0.2,1.3-0.4
		C396.9,29.2,397.2,29,397.5,29L397.5,29z"/>
	<path class="st1" d="M385.4,33.9c-0.1,0-0.8,1.1-0.1,1.7c0.9,0.8,2-0.6,1.8-0.9c-0.1,0-0.4,0.8-1.2,0.6
		C384.9,35.1,385.5,33.9,385.4,33.9z"/>
	<path class="st1" d="M392.6,35.4c0,0.3,1.1,0.8,1.7,0c0.7-1.1-0.3-1.7-0.6-1.4c-0.1,0.1,0.6,0.4,0.3,1.1
		C393.6,35.9,392.6,35.2,392.6,35.4z"/>
	<path class="st1" d="M28.5,50.5c0,3.2-1.1,5.5-4.1,5.5c-3.2,0-4.2-2.2-4.2-5.5V46c0-2.2,0-2.5,1.2-2.6l0.5,0c0.1-0.1,0.1-0.4,0-0.5
		c-1,0-1.7,0.1-2.5,0.1c-0.8,0-1.5,0-2.6-0.1c-0.1,0.1-0.2,0.4,0,0.5l0.5,0c1.2,0.1,1.2,0.5,1.2,2.6v4.9c0,2.5,0.5,4,1.6,4.9
		c1,0.9,2.4,1.1,3.9,1.1c1.5,0,3.1-0.5,4-1.5c1.2-1.2,1.5-3.2,1.5-5v-2.3c0-1.2,0-3.5,0.3-4.2c0.1-0.3,0.5-0.5,1-0.5l0.5,0
		c0.1-0.1,0.1-0.4,0-0.5c-0.7,0-1.3,0.1-2.2,0.1c-0.8,0-1.6,0-2.4-0.1c-0.1,0.1-0.2,0.4,0,0.5l0.5,0c0.5,0,0.9,0.2,1,0.4
		c0.4,0.6,0.4,3,0.4,4.3V50.5z M48.4,48.1c0-1,0-3.5,0.3-4.3c0.1-0.2,0.5-0.3,1.2-0.4l0.3,0c0.1-0.1,0.1-0.4,0-0.5
		c-0.7,0-1.2,0.1-2.1,0.1c-0.8,0-1.5,0-2.4-0.1c-0.2,0.1-0.2,0.4,0,0.5l0.4,0c0.8,0.1,1.2,0.2,1.3,0.4c0.4,0.6,0.4,3.3,0.4,4.3v4.4
		c0,0.4,0,0.8-0.1,0.9h0c-1-1-2-2.2-3.4-3.8l-2-2.3c-0.7-0.8-3.1-3.5-3.5-4.6c-0.3,0-0.6,0.1-1,0.1c-0.4,0-1.5,0-2.3-0.1
		c-0.2,0.1-0.2,0.4,0,0.5l0.4,0c0.5,0.1,1,0.2,1.3,0.5c0.4,0.5,0.5,0.9,0.5,1.5v6c0,1,0,3.5-0.3,4.3C36.8,55.9,36.5,56,36,56
		l-0.6,0.1c-0.1,0.1-0.1,0.4,0,0.5c0.7,0,1.3-0.1,2.2-0.1c0.8,0,1.5,0,2.4,0.1c0.1-0.1,0.2-0.4,0-0.5L39.4,56
		c-0.5,0-0.9-0.2-1.1-0.4C38,55,38,52.3,38,51.4v-4.5c0-0.6,0-1.1,0.1-1.3h0c0.4,0.5,1.8,2.2,2.4,2.8l4.8,5.5
		c1.8,2.1,2.4,2.8,2.7,3.1c0.2,0,0.4-0.1,0.4-0.2c-0.1-0.5-0.1-3-0.1-3.6V48.1z M56.5,53.4c0,2.2,0,2.5-1.3,2.6l-0.5,0.1
		c-0.1,0.1-0.1,0.5,0,0.5c1,0,1.7-0.1,2.6-0.1c0.8,0,1.5,0,2.6,0.1c0.1-0.1,0.2-0.4,0-0.5L59.5,56c-1.2-0.1-1.3-0.4-1.3-2.6V46
		c0-2.2,0-2.5,1.3-2.7l0.5,0c0.1-0.1,0.1-0.5,0-0.5c-1,0-1.7,0.1-2.6,0.1c-0.9,0-1.6,0-2.6-0.1c-0.1,0.1-0.2,0.4,0,0.5l0.5,0
		c1.2,0.1,1.3,0.5,1.3,2.7V53.4z M69.7,54.1c0.4,0.9,0.7,1.9,1,2.8c0.1,0,0.2,0.1,0.3,0.1c0.1,0,0.2,0,0.2-0.1
		c0.4-1.1,1.3-3.5,2.2-5.4l1.1-2.5c0.9-2.1,1.7-3.8,2.3-4.8c0.3-0.4,0.6-0.7,1.1-0.7l0.6,0c0.1-0.1,0.1-0.4,0-0.5
		c-0.7,0-1.3,0.1-2,0.1c-0.8,0-1.6,0-2.2-0.1c-0.1,0.1-0.2,0.4,0,0.5l0.4,0c0.7,0.1,0.9,0.2,0.9,0.4c0,0.1,0,0.4-0.2,0.8
		c-0.4,0.9-1.3,3.2-1.9,4.6c-0.5,1.1-1.3,3.2-2,4.6c-1-2.4-2-4.7-2.9-7.2c-0.6-1.6-1-2.7-1-2.9c0-0.2,0.2-0.3,1-0.4l0.3,0
		c0.1-0.1,0.1-0.4,0-0.5c-0.9,0-1.6,0.1-2.5,0.1c-0.9,0-1.6,0-2.2-0.1c-0.2,0.1-0.2,0.4,0,0.5l0.4,0c0.9,0.1,1.2,0.5,1.7,1.7
		L69.7,54.1z M83.8,53.4c0,2.2-0.1,2.5-1.3,2.6l-0.7,0.1c-0.1,0.1-0.1,0.5,0,0.5c1.2,0,1.9-0.1,2.8-0.1h1.9c1.8,0,3.7,0,5.6,0.1
		c0.3-0.6,0.8-2.2,0.9-2.9c-0.1-0.2-0.4-0.2-0.5-0.1c-0.5,1.1-1.1,1.8-1.5,2c-0.5,0.2-1.1,0.3-2.7,0.3c-1.8,0-2.3-0.2-2.5-0.5
		c-0.3-0.4-0.4-1.1-0.4-2.2v-2.9c0-0.5,0.1-0.6,0.7-0.6h1.2c0.8,0,1.3,0,1.6,0.1c0.4,0.1,0.6,0.4,0.6,0.8l0.2,0.8
		c0.1,0.1,0.5,0.1,0.5,0c0-0.5-0.1-1.2-0.1-2c0-0.8,0.1-1.6,0.1-2.1c-0.1-0.1-0.4-0.1-0.5,0l-0.2,0.8c-0.1,0.5-0.2,0.6-0.5,0.7
		c-0.2,0.1-0.9,0.1-1.8,0.1h-1.2c-0.6,0-0.7,0-0.7-0.6v-4.1c0-0.8,0-0.8,0.6-0.8h1.5c0.9,0,1.6,0,2,0.1c1.1,0.3,1.3,1,1.6,2
		c0.1,0.1,0.4,0.1,0.5,0c-0.1-0.9-0.2-2.4-0.3-2.8c-0.2,0.1-1.5,0.1-2.8,0.1h-3.9c-0.9,0-1.6,0-2.4-0.1c-0.1,0.1-0.2,0.4,0,0.5
		l0.3,0c1.2,0.1,1.3,0.5,1.3,2.6V53.4z M99,53.4c0,2.2,0,2.4-1.2,2.6l-0.5,0.1c-0.1,0.1-0.1,0.5,0,0.5c1,0,1.7-0.1,2.6-0.1
		c0.8,0,1.5,0,2.5,0.1c0.1-0.1,0.2-0.4,0-0.5l-0.4-0.1c-1.2-0.2-1.2-0.4-1.2-2.6v-2.6c0-0.4,0-0.5,1-0.5c0.8,0,1.2,0.2,1.5,0.7
		c0.6,0.9,1.5,2.4,2,3.1c1.5,2.1,2.5,2.6,4.3,2.6c0.4,0,0.7,0,0.9-0.1c0.1-0.1,0.1-0.2,0-0.3c-0.6,0-1.1-0.3-1.4-0.6
		c-1.4-1.2-2.5-2.8-4.2-5.5c-0.1-0.2-0.2-0.4-0.1-0.5c1-0.4,2.6-1.5,2.6-3.5c0-1.5-0.7-2.4-1.7-2.9c-1-0.5-2.2-0.6-3.5-0.6
		c-2,0-3.5,0.1-4.6,0.2c-0.2,0.1-0.2,0.4,0,0.5l0.7,0.1C98.9,43.7,99,44,99,46V53.4z M100.7,44.1c0-0.6,0.1-0.7,1.3-0.7
		c2.3,0,3.3,1.6,3.3,3.2c0,1.4-0.5,2.1-1,2.6c-0.6,0.5-1.4,0.5-2.1,0.5c-1.1,0-1.4,0-1.4-0.1c-0.1-0.1-0.1-0.3-0.1-0.7V44.1z
		 M121.9,53.1c0-2-1.3-3.2-2.6-4l-1.7-1c-0.8-0.5-1.8-1.3-1.8-2.5c0-1,0.4-2.3,2.5-2.3c2,0,2.5,1.3,2.8,2.3c0.1,0.1,0.4,0.1,0.5-0.1
		c0-0.9-0.2-2-0.4-2.5c-0.2,0-0.5,0-0.7-0.1c-0.5-0.1-1.3-0.3-1.9-0.3c-2.7,0-4.2,1.6-4.2,3.6c0,1.7,1.2,2.9,2.2,3.6l2,1.3
		c1.5,1,1.7,2,1.7,2.9c0,1.2-0.8,2.4-2.6,2.4c-2.4,0-3.3-2-3.6-3.1c-0.1-0.1-0.4-0.1-0.5,0.1c0,1,0.3,2.4,0.6,2.9
		c0.4,0.2,1.5,0.8,3.2,0.8C120.2,56.9,121.9,55.3,121.9,53.1z M128.7,53.4c0,2.2,0,2.5-1.3,2.6l-0.5,0.1c-0.1,0.1-0.1,0.5,0,0.5
		c1,0,1.7-0.1,2.6-0.1c0.8,0,1.5,0,2.6,0.1c0.1-0.1,0.2-0.4,0-0.5l-0.5-0.1c-1.2-0.1-1.3-0.4-1.3-2.6V46c0-2.2,0-2.5,1.3-2.7l0.5,0
		c0.1-0.1,0.1-0.5,0-0.5c-1,0-1.7,0.1-2.6,0.1c-0.9,0-1.6,0-2.6-0.1c-0.1,0.1-0.2,0.4,0,0.5l0.5,0c1.2,0.1,1.3,0.5,1.3,2.7V53.4z
		 M143.8,44.2c0-0.7,0-0.7,0.6-0.7h1.5c1.1,0,1.9,0.2,2.4,0.5c0.3,0.2,0.5,1,0.5,1.5c0.1,0.1,0.5,0.1,0.5,0
		c-0.1-0.6,0.1-2.3,0.3-3.2c0-0.1-0.3-0.1-0.4-0.1c-0.3,0.5-0.5,0.6-1.6,0.6h-8.4c-1,0-1.6,0-1.8-0.6c-0.1-0.1-0.3,0-0.4,0
		c-0.1,0.8-0.5,2.2-0.8,3.1c0.1,0.2,0.4,0.3,0.5,0.1c0.2-0.5,0.4-1,0.9-1.4c0.5-0.5,1.7-0.5,2.5-0.5h1.1c0.6,0,0.6,0,0.6,0.7v9.3
		c0,2.2-0.1,2.5-1.3,2.6l-0.7,0.1c-0.2,0.1-0.1,0.5,0,0.5c1.3,0,2.1-0.1,2.9-0.1c0.8,0,1.5,0,2.7,0.1c0.1-0.1,0.2-0.4,0-0.5
		l-0.7-0.1c-1.2-0.1-1.2-0.4-1.2-2.6V44.2z M155.6,53.4c0,2.2-0.1,2.5-1.3,2.6l-0.7,0.1c-0.1,0.1-0.1,0.5,0,0.5
		c1.2,0,1.9-0.1,2.8-0.1h1.9c1.8,0,3.7,0,5.6,0.1c0.3-0.6,0.8-2.2,0.9-2.9c-0.1-0.2-0.4-0.2-0.5-0.1c-0.5,1.1-1.1,1.8-1.5,2
		c-0.5,0.2-1.1,0.3-2.7,0.3c-1.8,0-2.3-0.2-2.5-0.5c-0.3-0.4-0.4-1.1-0.4-2.2v-2.9c0-0.5,0.1-0.6,0.7-0.6h1.2c0.8,0,1.3,0,1.6,0.1
		c0.4,0.1,0.6,0.4,0.6,0.8l0.2,0.8c0.1,0.1,0.5,0.1,0.5,0c0-0.5-0.1-1.2-0.1-2c0-0.8,0.1-1.6,0.1-2.1c-0.1-0.1-0.4-0.1-0.5,0
		l-0.2,0.8c-0.1,0.5-0.2,0.6-0.5,0.7c-0.2,0.1-0.9,0.1-1.8,0.1H158c-0.6,0-0.7,0-0.7-0.6v-4.1c0-0.8,0-0.8,0.6-0.8h1.5
		c0.9,0,1.6,0,2,0.1c1.1,0.3,1.3,1,1.6,2c0.1,0.1,0.4,0.1,0.5,0c-0.1-0.9-0.2-2.4-0.3-2.8c-0.2,0.1-1.5,0.1-2.8,0.1h-3.9
		c-0.8,0-1.6,0-2.4-0.1c-0.1,0.1-0.2,0.4,0,0.5l0.3,0c1.2,0.1,1.3,0.5,1.3,2.6V53.4z M175.8,44.2c0-0.7,0-0.7,0.6-0.7h1.5
		c1.1,0,1.9,0.2,2.4,0.5c0.3,0.2,0.5,1,0.5,1.5c0.1,0.1,0.5,0.1,0.5,0c-0.1-0.6,0.1-2.3,0.3-3.2c0-0.1-0.3-0.1-0.4-0.1
		c-0.3,0.5-0.5,0.6-1.6,0.6h-8.4c-1,0-1.6,0-1.8-0.6c-0.1-0.1-0.3,0-0.4,0c-0.1,0.8-0.5,2.2-0.8,3.1c0.1,0.2,0.4,0.3,0.5,0.1
		c0.2-0.5,0.4-1,0.9-1.4c0.5-0.5,1.7-0.5,2.5-0.5h1.1c0.6,0,0.6,0,0.6,0.7v9.3c0,2.2-0.1,2.5-1.3,2.6l-0.7,0.1
		c-0.2,0.1-0.1,0.5,0,0.5c1.3,0,2.1-0.1,2.9-0.1c0.8,0,1.5,0,2.7,0.1c0.1-0.1,0.2-0.4,0-0.5l-0.7-0.1c-1.2-0.1-1.2-0.4-1.2-2.6V44.2
		z M187.6,53.4c0,2.2-0.1,2.5-1.3,2.6l-0.7,0.1c-0.1,0.1-0.1,0.5,0,0.5c1.2,0,1.9-0.1,2.8-0.1h1.9c1.8,0,3.7,0,5.6,0.1
		c0.3-0.6,0.8-2.2,0.9-2.9c-0.1-0.2-0.4-0.2-0.5-0.1c-0.5,1.1-1.1,1.8-1.5,2c-0.5,0.2-1.1,0.3-2.7,0.3c-1.8,0-2.3-0.2-2.5-0.5
		c-0.3-0.4-0.4-1.1-0.4-2.2v-2.9c0-0.5,0.1-0.6,0.7-0.6h1.2c0.8,0,1.3,0,1.6,0.1c0.4,0.1,0.6,0.4,0.6,0.8l0.2,0.8
		c0.1,0.1,0.5,0.1,0.5,0c0-0.5-0.1-1.2-0.1-2c0-0.8,0.1-1.6,0.1-2.1c-0.1-0.1-0.4-0.1-0.5,0l-0.2,0.8c-0.1,0.5-0.2,0.6-0.5,0.7
		c-0.3,0.1-0.9,0.1-1.8,0.1H190c-0.6,0-0.7,0-0.7-0.6v-4.1c0-0.8,0-0.8,0.6-0.8h1.5c0.9,0,1.6,0,2,0.1c1.1,0.3,1.3,1,1.6,2
		c0.1,0.1,0.4,0.1,0.5,0c-0.1-0.9-0.2-2.4-0.3-2.8c-0.2,0.1-1.5,0.1-2.8,0.1h-3.9c-0.9,0-1.6,0-2.4-0.1c-0.1,0.1-0.2,0.4,0,0.5
		l0.3,0c1.2,0.1,1.3,0.5,1.3,2.6V53.4z M207.8,44.2c0-0.7,0-0.7,0.6-0.7h1.5c1.1,0,1.9,0.2,2.4,0.5c0.3,0.2,0.5,1,0.5,1.5
		c0.1,0.1,0.5,0.1,0.5,0c-0.1-0.6,0.1-2.3,0.3-3.2c0-0.1-0.3-0.1-0.4-0.1c-0.3,0.5-0.5,0.6-1.6,0.6h-8.4c-1,0-1.6,0-1.8-0.6
		c-0.1-0.1-0.3,0-0.4,0c-0.1,0.8-0.5,2.2-0.8,3.1c0.1,0.2,0.4,0.3,0.5,0.1c0.2-0.5,0.4-1,0.9-1.4c0.5-0.5,1.7-0.5,2.5-0.5h1.1
		c0.6,0,0.6,0,0.6,0.7v9.3c0,2.2-0.1,2.5-1.3,2.6l-0.7,0.1c-0.2,0.1-0.1,0.5,0,0.5c1.3,0,2.1-0.1,2.9-0.1s1.5,0,2.7,0.1
		c0.1-0.1,0.2-0.4,0-0.5l-0.7-0.1c-1.2-0.1-1.2-0.4-1.2-2.6V44.2z M228,53.4c0,2.2,0,2.5-1.3,2.6l-0.5,0.1c-0.1,0.1-0.1,0.5,0,0.5
		c1,0,1.7-0.1,2.6-0.1c0.8,0,1.5,0,2.6,0.1c0.1-0.1,0.2-0.4,0-0.5l-0.5-0.1c-1.2-0.1-1.3-0.4-1.3-2.6V46c0-2.2,0-2.5,1.3-2.7l0.5,0
		c0.1-0.1,0.1-0.5,0-0.5c-1,0-1.7,0.1-2.6,0.1c-0.9,0-1.6,0-2.6-0.1c-0.1,0.1-0.2,0.4,0,0.5l0.5,0c1.2,0.1,1.3,0.5,1.3,2.7V53.4z
		 M246.4,53.4c0,2.2,0,2.4-1.1,2.6l-0.4,0.1c-0.1,0.1-0.1,0.5,0,0.5c0.8,0,1.5-0.1,2.4-0.1c0.9,0,1.9,0.1,2.5,0.1
		c3.7,0,5.5-1.6,5.5-4c0-2.2-1.7-3.3-2.8-3.5c-0.2,0-0.4-0.1-0.4-0.3c1.2-0.6,2.1-1.3,2.1-2.8c0-1.3-0.7-2.2-1.6-2.6
		c-0.9-0.5-2.2-0.6-3.5-0.6c-1.9,0-3.3,0.1-4.5,0.2c-0.2,0.1-0.2,0.4,0,0.5l0.7,0.1c0.9,0.1,1,0.5,1,2V53.4z M248.1,50.1
		c0-0.4,0.1-0.5,1.2-0.5c3.3,0,4.1,1.9,4.1,3.5c0,2.1-1.4,2.9-3.3,2.9c-0.6,0-1.2-0.1-1.6-0.6c-0.4-0.5-0.4-1.5-0.4-2.3V50.1z
		 M248.1,44.1c0-0.4,0.1-0.5,0.3-0.5c0.2-0.1,0.5-0.1,1-0.1c1.6,0,3.1,0.8,3.1,2.8c0,1.9-1.1,2.6-3.3,2.7c-1.1,0-1.1,0-1.1-0.6V44.1
		z M262,53.4c0,2.2-0.1,2.5-1.3,2.6l-0.7,0.1c-0.1,0.1-0.1,0.5,0,0.5c1.2,0,1.9-0.1,2.8-0.1h1.9c1.8,0,3.7,0,5.6,0.1
		c0.3-0.6,0.8-2.2,0.9-2.9c-0.1-0.2-0.4-0.2-0.5-0.1c-0.5,1.1-1.1,1.8-1.5,2c-0.5,0.2-1.1,0.3-2.7,0.3c-1.8,0-2.3-0.2-2.5-0.5
		c-0.3-0.4-0.4-1.1-0.4-2.2v-2.9c0-0.5,0.1-0.6,0.7-0.6h1.2c0.8,0,1.3,0,1.6,0.1c0.4,0.1,0.6,0.4,0.6,0.8l0.2,0.8
		c0.1,0.1,0.5,0.1,0.5,0c0-0.5-0.1-1.2-0.1-2c0-0.8,0.1-1.6,0.1-2.1c-0.1-0.1-0.4-0.1-0.5,0l-0.2,0.8c-0.1,0.5-0.2,0.6-0.5,0.7
		c-0.2,0.1-0.9,0.1-1.8,0.1h-1.2c-0.6,0-0.7,0-0.7-0.6v-4.1c0-0.8,0-0.8,0.6-0.8h1.5c0.9,0,1.6,0,2,0.1c1.1,0.3,1.3,1,1.6,2
		c0.1,0.1,0.4,0.1,0.5,0c-0.1-0.9-0.2-2.4-0.3-2.8c-0.2,0.1-1.5,0.1-2.8,0.1h-3.9c-0.8,0-1.6,0-2.4-0.1c-0.1,0.1-0.2,0.4,0,0.5
		l0.3,0c1.2,0.1,1.3,0.5,1.3,2.6V53.4z M277.2,53.4c0,2.2,0,2.4-1.2,2.6l-0.5,0.1c-0.1,0.1-0.1,0.5,0,0.5c1,0,1.7-0.1,2.6-0.1
		c0.8,0,1.5,0,2.5,0.1c0.1-0.1,0.2-0.4,0-0.5l-0.4-0.1c-1.2-0.2-1.2-0.4-1.2-2.6v-2.6c0-0.4,0-0.5,1-0.5c0.8,0,1.2,0.2,1.5,0.7
		c0.6,0.9,1.5,2.4,2,3.1c1.5,2.1,2.5,2.6,4.3,2.6c0.4,0,0.7,0,0.9-0.1c0.1-0.1,0.1-0.2,0-0.3c-0.6,0-1.1-0.3-1.4-0.6
		c-1.4-1.2-2.5-2.8-4.2-5.5c-0.1-0.2-0.2-0.4-0.1-0.5c1-0.4,2.6-1.5,2.6-3.5c0-1.5-0.7-2.4-1.7-2.9c-1-0.5-2.2-0.6-3.5-0.6
		c-2,0-3.5,0.1-4.6,0.2c-0.2,0.1-0.2,0.4,0,0.5l0.7,0.1c0.8,0.1,0.9,0.5,0.9,2.4V53.4z M278.9,44.1c0-0.6,0.1-0.7,1.3-0.7
		c2.3,0,3.3,1.6,3.3,3.2c0,1.4-0.5,2.1-1,2.6c-0.6,0.5-1.4,0.5-2.1,0.5c-1.1,0-1.4,0-1.4-0.1c-0.1-0.1-0.1-0.3-0.1-0.7V44.1z
		 M303.7,53.3c0-1.1,0-1.6,0.9-1.7l0.3,0c0.1-0.1,0.1-0.4,0-0.5c-0.7,0-1.4,0.1-2.2,0.1c-1.2,0-2.4,0-3-0.1c-0.1,0.1-0.2,0.4,0,0.5
		l0.9,0.1c1.3,0.1,1.3,0.3,1.3,2v0.8c0,0.7-0.1,1-0.2,1.2c-0.2,0.4-1,0.6-2.3,0.6c-4.2,0-6.2-3.1-6.2-7.1c0-3.1,1.8-6,5.8-6
		c2.1,0,3.7,0.7,4.2,2.9c0.1,0.1,0.5,0.1,0.6-0.1c-0.2-1.2-0.3-2.3-0.3-3c-0.3,0-0.9-0.1-1.3-0.2c-0.4-0.1-1.5-0.3-2.6-0.3
		c-3.1,0-5.2,1-6.6,2.4c-1.3,1.4-1.9,3.2-1.9,4.9c0,1.8,0.7,3.5,1.9,4.7c1.6,1.6,3.9,2.3,6.3,2.3c1.1,0,2.6-0.2,3.7-0.5
		c0.4-0.1,0.8-0.2,1-0.2c0.1-0.1,0.1-0.2,0-0.2c-0.4-0.1-0.5-0.6-0.5-1.5V53.3z M311.6,53.4c0,2.2-0.1,2.5-1.3,2.6l-0.7,0.1
		c-0.1,0.1-0.1,0.5,0,0.5c1.2,0,1.9-0.1,2.8-0.1h1.9c1.8,0,3.7,0,5.6,0.1c0.3-0.6,0.8-2.2,0.9-2.9c-0.1-0.2-0.4-0.2-0.5-0.1
		c-0.5,1.1-1.1,1.8-1.5,2c-0.5,0.2-1.1,0.3-2.7,0.3c-1.8,0-2.3-0.2-2.5-0.5c-0.3-0.4-0.4-1.1-0.4-2.2v-2.9c0-0.5,0.1-0.6,0.7-0.6
		h1.2c0.8,0,1.3,0,1.6,0.1c0.4,0.1,0.6,0.4,0.6,0.8l0.2,0.8c0.1,0.1,0.5,0.1,0.5,0c0-0.5-0.1-1.2-0.1-2c0-0.8,0.1-1.6,0.1-2.1
		c-0.1-0.1-0.4-0.1-0.5,0l-0.2,0.8c-0.1,0.5-0.2,0.6-0.5,0.7c-0.2,0.1-0.9,0.1-1.8,0.1h-1.2c-0.6,0-0.7,0-0.7-0.6v-4.1
		c0-0.8,0-0.8,0.6-0.8h1.5c0.9,0,1.6,0,2,0.1c1.1,0.3,1.3,1,1.6,2c0.1,0.1,0.4,0.1,0.5,0c-0.1-0.9-0.2-2.4-0.3-2.8
		c-0.2,0.1-1.5,0.1-2.8,0.1h-3.9c-0.8,0-1.6,0-2.4-0.1c-0.1,0.1-0.2,0.4,0,0.5l0.3,0c1.2,0.1,1.3,0.5,1.3,2.6V53.4z M337.9,48.1
		c0-1,0-3.5,0.3-4.3c0.1-0.2,0.5-0.3,1.2-0.4l0.3,0c0.1-0.1,0.1-0.4,0-0.5c-0.7,0-1.2,0.1-2.1,0.1c-0.8,0-1.5,0-2.4-0.1
		c-0.2,0.1-0.2,0.4,0,0.5l0.4,0c0.8,0.1,1.2,0.2,1.3,0.4c0.4,0.6,0.4,3.3,0.4,4.3v4.4c0,0.4,0,0.8-0.1,0.9h0c-1-1-2-2.2-3.4-3.8
		l-2-2.3c-0.7-0.8-3.1-3.5-3.5-4.6c-0.3,0-0.6,0.1-1,0.1c-0.4,0-1.5,0-2.3-0.1c-0.2,0.1-0.2,0.4,0,0.5l0.4,0c0.5,0.1,1,0.2,1.3,0.5
		c0.4,0.5,0.5,0.9,0.5,1.5v6c0,1,0,3.5-0.3,4.3c-0.1,0.2-0.4,0.4-0.9,0.4l-0.6,0.1c-0.1,0.1-0.1,0.4,0,0.5c0.7,0,1.3-0.1,2.2-0.1
		c0.8,0,1.5,0,2.4,0.1c0.1-0.1,0.2-0.4,0-0.5L329,56c-0.5,0-0.9-0.2-1.1-0.4c-0.4-0.6-0.4-3.3-0.4-4.3v-4.5c0-0.6,0-1.1,0.1-1.3h0
		c0.4,0.5,1.8,2.2,2.4,2.8l4.8,5.5c1.8,2.1,2.4,2.8,2.7,3.1c0.2,0,0.4-0.1,0.4-0.2c-0.1-0.5-0.1-3-0.1-3.6V48.1z"/>
</g>
</svg>
